solid OpenSCAD_Model
  facet normal -1 0 0
    outer loop
      vertex -14.5 14.5 -3.5
      vertex -14.5 14.5 -5.5
      vertex -14.5 -14.5 -3.5
    endloop
  endfacet
  facet normal -1 0 0
    outer loop
      vertex -14.5 -14.5 -3.5
      vertex -14.5 14.5 -5.5
      vertex -14.5 -14.5 -5.5
    endloop
  endfacet
  facet normal 0 1 -1.22465e-16
    outer loop
      vertex -14.5 14.5 -3.5
      vertex 14.5 14.5 -3.5
      vertex -14.5 14.5 -5.5
    endloop
  endfacet
  facet normal 0 1 -1.22465e-16
    outer loop
      vertex -14.5 14.5 -5.5
      vertex 14.5 14.5 -3.5
      vertex 14.5 14.5 -5.5
    endloop
  endfacet
  facet normal 0 1.22465e-16 1
    outer loop
      vertex 0.5 -9 -3.5
      vertex 14.5 14.5 -3.5
      vertex -9.5 -9 -3.5
    endloop
  endfacet
  facet normal 0 1.22465e-16 1
    outer loop
      vertex -14.5 -14.5 -3.5
      vertex -9.5 -14.5 -3.5
      vertex -9.5 -9 -3.5
    endloop
  endfacet
  facet normal 0 1.22465e-16 1
    outer loop
      vertex -14.5 14.5 -3.5
      vertex -14.5 -14.5 -3.5
      vertex -9.5 -9 -3.5
    endloop
  endfacet
  facet normal 0 1.22465e-16 1
    outer loop
      vertex 0.5 -14.5 -3.5
      vertex 14.5 -14.5 -3.5
      vertex 0.5 -9 -3.5
    endloop
  endfacet
  facet normal 0 1.22465e-16 1
    outer loop
      vertex 10.75 -10.75 -3.5
      vertex 14.5 14.5 -3.5
      vertex 0.5 -9 -3.5
    endloop
  endfacet
  facet normal 0 1.22465e-16 1
    outer loop
      vertex -12.75 10.75 -3.5
      vertex -14.5 14.5 -3.5
      vertex -9.5 -9 -3.5
    endloop
  endfacet
  facet normal 0 1.22465e-16 1
    outer loop
      vertex 10.75 -12.75 -3.5
      vertex 10.75 -10.75 -3.5
      vertex 0.5 -9 -3.5
    endloop
  endfacet
  facet normal 0 1.22465e-16 1
    outer loop
      vertex 14.5 14.5 -3.5
      vertex -14.5 14.5 -3.5
      vertex -12.75 12.75 -3.5
    endloop
  endfacet
  facet normal 0 1.22465e-16 1
    outer loop
      vertex 14.5 14.5 -3.5
      vertex -10.75 12.75 -3.5
      vertex -9.5 -9 -3.5
    endloop
  endfacet
  facet normal 0 1.22465e-16 1
    outer loop
      vertex 14.5 14.5 -3.5
      vertex -12.75 12.75 -3.5
      vertex -10.75 12.75 -3.5
    endloop
  endfacet
  facet normal 0 1.22465e-16 1
    outer loop
      vertex -10.75 12.75 -3.5
      vertex -10.75 10.75 -3.5
      vertex -9.5 -9 -3.5
    endloop
  endfacet
  facet normal 0 1.22465e-16 1
    outer loop
      vertex -12.75 12.75 -3.5
      vertex -14.5 14.5 -3.5
      vertex -12.75 10.75 -3.5
    endloop
  endfacet
  facet normal 0 1.22465e-16 1
    outer loop
      vertex 12.75 -10.75 -3.5
      vertex 14.5 14.5 -3.5
      vertex 10.75 -10.75 -3.5
    endloop
  endfacet
  facet normal 0 1.22465e-16 1
    outer loop
      vertex 14.5 -14.5 -3.5
      vertex 14.5 14.5 -3.5
      vertex 12.75 -10.75 -3.5
    endloop
  endfacet
  facet normal 0 1.22465e-16 1
    outer loop
      vertex 14.5 -14.5 -3.5
      vertex 12.75 -10.75 -3.5
      vertex 12.75 -12.75 -3.5
    endloop
  endfacet
  facet normal 0 1.22465e-16 1
    outer loop
      vertex 14.5 -14.5 -3.5
      vertex 10.75 -12.75 -3.5
      vertex 0.5 -9 -3.5
    endloop
  endfacet
  facet normal 0 1.22465e-16 1
    outer loop
      vertex 14.5 -14.5 -3.5
      vertex 12.75 -12.75 -3.5
      vertex 10.75 -12.75 -3.5
    endloop
  endfacet
  facet normal 0 1.22465e-16 1
    outer loop
      vertex -10.75 10.75 -3.5
      vertex -12.75 10.75 -3.5
      vertex -9.5 -9 -3.5
    endloop
  endfacet
  facet normal 0 -1 1.22465e-16
    outer loop
      vertex -9.5 -14.5 -3.5
      vertex -14.5 -14.5 -3.5
      vertex -14.5 -14.5 -5.5
    endloop
  endfacet
  facet normal 0 -1 1.22465e-16
    outer loop
      vertex -9.5 -14.5 -5.5
      vertex -9.5 -14.5 -3.5
      vertex -14.5 -14.5 -5.5
    endloop
  endfacet
  facet normal 0 -1.22465e-16 -1
    outer loop
      vertex -9.5 -14.5 -5.5
      vertex -14.5 -14.5 -5.5
      vertex -9.5 -9 -5.5
    endloop
  endfacet
  facet normal 0 -1.22465e-16 -1
    outer loop
      vertex 0.5 -14.5 -5.5
      vertex 14.5 14.5 -5.5
      vertex 14.5 -14.5 -5.5
    endloop
  endfacet
  facet normal 0 -1.22465e-16 -1
    outer loop
      vertex 0.5 -9 -5.5
      vertex 14.5 14.5 -5.5
      vertex 0.5 -14.5 -5.5
    endloop
  endfacet
  facet normal 0 -1.22465e-16 -1
    outer loop
      vertex -14.5 14.5 -5.5
      vertex 14.5 14.5 -5.5
      vertex -9.5 -9 -5.5
    endloop
  endfacet
  facet normal 0 -1.22465e-16 -1
    outer loop
      vertex -14.5 14.5 -5.5
      vertex -9.5 -9 -5.5
      vertex -14.5 -14.5 -5.5
    endloop
  endfacet
  facet normal 0 -1.22465e-16 -1
    outer loop
      vertex -9.5 -9 -5.5
      vertex 14.5 14.5 -5.5
      vertex 0.5 -9 -5.5
    endloop
  endfacet
  facet normal 1 0 0
    outer loop
      vertex 14.5 14.5 -5.5
      vertex 14.5 14.5 -3.5
      vertex 14.5 -14.5 -3.5
    endloop
  endfacet
  facet normal 1 0 0
    outer loop
      vertex 14.5 -14.5 -5.5
      vertex 14.5 14.5 -5.5
      vertex 14.5 -14.5 -3.5
    endloop
  endfacet
  facet normal 0 -1 1.22465e-16
    outer loop
      vertex 14.5 -14.5 -3.5
      vertex 0.5 -14.5 -3.5
      vertex 0.5 -14.5 -5.5
    endloop
  endfacet
  facet normal 0 -1 1.22465e-16
    outer loop
      vertex 14.5 -14.5 -5.5
      vertex 14.5 -14.5 -3.5
      vertex 0.5 -14.5 -5.5
    endloop
  endfacet
  facet normal -1 0 0
    outer loop
      vertex 0.5 -14.5 -5.5
      vertex 0.5 -14.5 -3.5
      vertex 0.5 -9 -5.5
    endloop
  endfacet
  facet normal -1 0 0
    outer loop
      vertex 0.5 -9 -5.5
      vertex 0.5 -14.5 -3.5
      vertex 0.5 -9 -3.5
    endloop
  endfacet
  facet normal 0 -1 1.22465e-16
    outer loop
      vertex -9.5 -9 -5.5
      vertex 0.5 -9 -5.5
      vertex 0.5 -9 -3.5
    endloop
  endfacet
  facet normal 0 -1 1.22465e-16
    outer loop
      vertex -9.5 -9 -3.5
      vertex -9.5 -9 -5.5
      vertex 0.5 -9 -3.5
    endloop
  endfacet
  facet normal 1 0 0
    outer loop
      vertex -9.5 -14.5 -3.5
      vertex -9.5 -14.5 -5.5
      vertex -9.5 -9 -5.5
    endloop
  endfacet
  facet normal 1 0 0
    outer loop
      vertex -9.5 -9 -3.5
      vertex -9.5 -14.5 -3.5
      vertex -9.5 -9 -5.5
    endloop
  endfacet
  facet normal -1 0 0
    outer loop
      vertex -12.75 12.75 -1
      vertex -12.75 12.75 -3.5
      vertex -12.75 10.75 -1
    endloop
  endfacet
  facet normal -1 0 0
    outer loop
      vertex -12.75 10.75 -1
      vertex -12.75 12.75 -3.5
      vertex -12.75 10.75 -3.5
    endloop
  endfacet
  facet normal 0 1 -1.22465e-16
    outer loop
      vertex -12.75 12.75 -1
      vertex -10.75 12.75 -1
      vertex -12.75 12.75 -3.5
    endloop
  endfacet
  facet normal 0 1 -1.22465e-16
    outer loop
      vertex -12.75 12.75 -3.5
      vertex -10.75 12.75 -1
      vertex -10.75 12.75 -3.5
    endloop
  endfacet
  facet normal 0 -1 1.22465e-16
    outer loop
      vertex -10.75 10.75 -1
      vertex -12.75 10.75 -1
      vertex -12.75 10.75 -3.5
    endloop
  endfacet
  facet normal 0 -1 1.22465e-16
    outer loop
      vertex -10.75 10.75 -3.5
      vertex -10.75 10.75 -1
      vertex -12.75 10.75 -3.5
    endloop
  endfacet
  facet normal 1 0 0
    outer loop
      vertex -10.75 12.75 -3.5
      vertex -10.75 12.75 -1
      vertex -10.75 10.75 -1
    endloop
  endfacet
  facet normal 1 0 0
    outer loop
      vertex -10.75 10.75 -3.5
      vertex -10.75 12.75 -3.5
      vertex -10.75 10.75 -1
    endloop
  endfacet
  facet normal -1 0 0
    outer loop
      vertex 10.75 -10.75 -1
      vertex 10.75 -10.75 -3.5
      vertex 10.75 -12.75 -1
    endloop
  endfacet
  facet normal -1 0 0
    outer loop
      vertex 10.75 -12.75 -1
      vertex 10.75 -10.75 -3.5
      vertex 10.75 -12.75 -3.5
    endloop
  endfacet
  facet normal 0 1 -1.22465e-16
    outer loop
      vertex 10.75 -10.75 -1
      vertex 12.75 -10.75 -1
      vertex 10.75 -10.75 -3.5
    endloop
  endfacet
  facet normal 0 1 -1.22465e-16
    outer loop
      vertex 10.75 -10.75 -3.5
      vertex 12.75 -10.75 -1
      vertex 12.75 -10.75 -3.5
    endloop
  endfacet
  facet normal 0 -1 1.22465e-16
    outer loop
      vertex 12.75 -12.75 -1
      vertex 10.75 -12.75 -1
      vertex 10.75 -12.75 -3.5
    endloop
  endfacet
  facet normal 0 -1 1.22465e-16
    outer loop
      vertex 12.75 -12.75 -3.5
      vertex 12.75 -12.75 -1
      vertex 10.75 -12.75 -3.5
    endloop
  endfacet
  facet normal 1 0 0
    outer loop
      vertex 12.75 -10.75 -3.5
      vertex 12.75 -10.75 -1
      vertex 12.75 -12.75 -1
    endloop
  endfacet
  facet normal 1 0 0
    outer loop
      vertex 12.75 -12.75 -3.5
      vertex 12.75 -10.75 -3.5
      vertex 12.75 -12.75 -1
    endloop
  endfacet
  facet normal 0 1.22465e-16 1
    outer loop
      vertex -10.75 12.75 -1
      vertex -12.75 12.75 -1
      vertex -12.75 10.75 -1
    endloop
  endfacet
  facet normal 0 1.22465e-16 1
    outer loop
      vertex -10.75 10.75 -1
      vertex -10.75 12.75 -1
      vertex -12.75 10.75 -1
    endloop
  endfacet
  facet normal 0 1.22465e-16 1
    outer loop
      vertex 12.75 -10.75 -1
      vertex 10.75 -10.75 -1
      vertex 10.75 -12.75 -1
    endloop
  endfacet
  facet normal 0 1.22465e-16 1
    outer loop
      vertex 12.75 -12.75 -1
      vertex 12.75 -10.75 -1
      vertex 10.75 -12.75 -1
    endloop
  endfacet
endsolid OpenSCAD_Model
