solid OpenSCAD_Model
  facet normal -1 0 0
    outer loop
      vertex -14.5 -14.5 -5.5
      vertex -14.5 -14.5 3.5
      vertex -14.5 -3.5 -3.5
    endloop
  endfacet
  facet normal -1 0 0
    outer loop
      vertex -14.5 -14.5 -5.5
      vertex -14.5 -3.5 -3.5
      vertex -14.5 14.5 -5.5
    endloop
  endfacet
  facet normal -1 0 0
    outer loop
      vertex -14.5 3.5 3.5
      vertex -14.5 14.5 -5.5
      vertex -14.5 3.5 -3.5
    endloop
  endfacet
  facet normal -1 0 0
    outer loop
      vertex -14.5 -3.5 -3.5
      vertex -14.5 3.5 -3.5
      vertex -14.5 14.5 -5.5
    endloop
  endfacet
  facet normal -1 0 0
    outer loop
      vertex -14.5 14.5 -5.5
      vertex -14.5 3.5 3.5
      vertex -14.5 14.5 3.5
    endloop
  endfacet
  facet normal -1 0 0
    outer loop
      vertex -14.5 -3.5 -3.5
      vertex -14.5 -14.5 3.5
      vertex -14.5 -3.5 3.5
    endloop
  endfacet
  facet normal 0 -1 0
    outer loop
      vertex -14.5 -14.5 3.5
      vertex -14.5 -14.5 -5.5
      vertex 14.5 -14.5 -5.5
    endloop
  endfacet
  facet normal 0 -1 0
    outer loop
      vertex 14.5 -14.5 3.5
      vertex -14.5 -14.5 3.5
      vertex 14.5 -14.5 -5.5
    endloop
  endfacet
  facet normal 0 0 -1
    outer loop
      vertex -14.5 -14.5 -5.5
      vertex -14.5 14.5 -5.5
      vertex 14.5 -14.5 -5.5
    endloop
  endfacet
  facet normal 0 0 -1
    outer loop
      vertex 14.5 -14.5 -5.5
      vertex -14.5 14.5 -5.5
      vertex 14.5 14.5 -5.5
    endloop
  endfacet
  facet normal 0 1 0
    outer loop
      vertex -14.5 14.5 -5.5
      vertex -14.5 14.5 3.5
      vertex 14.5 14.5 -5.5
    endloop
  endfacet
  facet normal 0 1 0
    outer loop
      vertex -9.5 14.5 2
      vertex -14.5 14.5 3.5
      vertex -9.5 14.5 3.5
    endloop
  endfacet
  facet normal 0 1 0
    outer loop
      vertex 14.5 14.5 -5.5
      vertex -14.5 14.5 3.5
      vertex -9.5 14.5 2
    endloop
  endfacet
  facet normal 0 1 0
    outer loop
      vertex 14.5 14.5 -5.5
      vertex 0.5 14.5 2
      vertex 0.5 14.5 3.5
    endloop
  endfacet
  facet normal 0 1 0
    outer loop
      vertex 14.5 14.5 -5.5
      vertex 0.5 14.5 3.5
      vertex 14.5 14.5 3.5
    endloop
  endfacet
  facet normal 0 1 0
    outer loop
      vertex 0.5 14.5 2
      vertex 14.5 14.5 -5.5
      vertex -9.5 14.5 2
    endloop
  endfacet
  facet normal 0 0 1
    outer loop
      vertex -14.5 14.5 3.5
      vertex -14.5 3.5 3.5
      vertex -12.75 3.5 3.5
    endloop
  endfacet
  facet normal 0 0 1
    outer loop
      vertex -9.5 12.75 3.5
      vertex -14.5 14.5 3.5
      vertex -12.75 12.75 3.5
    endloop
  endfacet
  facet normal 0 0 1
    outer loop
      vertex -12.75 12.75 3.5
      vertex -14.5 14.5 3.5
      vertex -12.75 3.5 3.5
    endloop
  endfacet
  facet normal 0 0 1
    outer loop
      vertex -9.5 14.5 3.5
      vertex -14.5 14.5 3.5
      vertex -9.5 12.75 3.5
    endloop
  endfacet
  facet normal 0 -1 0
    outer loop
      vertex -12.75 3.5 -3.5
      vertex -12.75 3.5 3.5
      vertex -14.5 3.5 3.5
    endloop
  endfacet
  facet normal 0 -1 0
    outer loop
      vertex -14.5 3.5 -3.5
      vertex -12.75 3.5 -3.5
      vertex -14.5 3.5 3.5
    endloop
  endfacet
  facet normal 0 0 1
    outer loop
      vertex -12.75 -3.5 -3.5
      vertex -12.75 -12.75 -3.5
      vertex 12.75 -12.75 -3.5
    endloop
  endfacet
  facet normal 0 0 1
    outer loop
      vertex 14.5 3.5 -3.5
      vertex -12.75 -3.5 -3.5
      vertex 12.75 -3.5 -3.5
    endloop
  endfacet
  facet normal 0 0 1
    outer loop
      vertex 12.75 -3.5 -3.5
      vertex -12.75 -3.5 -3.5
      vertex 12.75 -12.75 -3.5
    endloop
  endfacet
  facet normal 0 0 1
    outer loop
      vertex 14.5 3.5 -3.5
      vertex 12.75 -3.5 -3.5
      vertex 14.5 -3.5 -3.5
    endloop
  endfacet
  facet normal 0 0 1
    outer loop
      vertex 12.75 3.5 -3.5
      vertex -12.75 -3.5 -3.5
      vertex 14.5 3.5 -3.5
    endloop
  endfacet
  facet normal 0 0 1
    outer loop
      vertex 12.75 12.75 -3.5
      vertex -12.75 -3.5 -3.5
      vertex 12.75 3.5 -3.5
    endloop
  endfacet
  facet normal 0 0 1
    outer loop
      vertex -12.75 3.5 -3.5
      vertex -12.75 -3.5 -3.5
      vertex 12.75 12.75 -3.5
    endloop
  endfacet
  facet normal 0 0 1
    outer loop
      vertex -14.5 3.5 -3.5
      vertex -12.75 -3.5 -3.5
      vertex -12.75 3.5 -3.5
    endloop
  endfacet
  facet normal 0 0 1
    outer loop
      vertex -12.75 12.75 -3.5
      vertex -12.75 3.5 -3.5
      vertex 12.75 12.75 -3.5
    endloop
  endfacet
  facet normal 0 0 1
    outer loop
      vertex -14.5 -3.5 -3.5
      vertex -12.75 -3.5 -3.5
      vertex -14.5 3.5 -3.5
    endloop
  endfacet
  facet normal 0 1 0
    outer loop
      vertex -12.75 -3.5 3.5
      vertex -12.75 -3.5 -3.5
      vertex -14.5 -3.5 3.5
    endloop
  endfacet
  facet normal 0 1 0
    outer loop
      vertex -14.5 -3.5 3.5
      vertex -12.75 -3.5 -3.5
      vertex -14.5 -3.5 -3.5
    endloop
  endfacet
  facet normal 0 0 1
    outer loop
      vertex -12.75 -12.75 3.5
      vertex -14.5 -14.5 3.5
      vertex 14.5 -14.5 3.5
    endloop
  endfacet
  facet normal 0 0 1
    outer loop
      vertex -12.75 -12.75 3.5
      vertex -12.75 -3.5 3.5
      vertex -14.5 -3.5 3.5
    endloop
  endfacet
  facet normal 0 0 1
    outer loop
      vertex 14.5 -3.5 3.5
      vertex 12.75 -3.5 3.5
      vertex 14.5 -14.5 3.5
    endloop
  endfacet
  facet normal 0 0 1
    outer loop
      vertex 12.75 -3.5 3.5
      vertex 12.75 -12.75 3.5
      vertex 14.5 -14.5 3.5
    endloop
  endfacet
  facet normal 0 0 1
    outer loop
      vertex -14.5 -3.5 3.5
      vertex -14.5 -14.5 3.5
      vertex -12.75 -12.75 3.5
    endloop
  endfacet
  facet normal 0 0 1
    outer loop
      vertex 12.75 -12.75 3.5
      vertex -12.75 -12.75 3.5
      vertex 14.5 -14.5 3.5
    endloop
  endfacet
  facet normal 1 0 0
    outer loop
      vertex 14.5 3.5 -3.5
      vertex 14.5 -14.5 -5.5
      vertex 14.5 14.5 -5.5
    endloop
  endfacet
  facet normal 1 0 0
    outer loop
      vertex 14.5 -3.5 -3.5
      vertex 14.5 -3.5 3.5
      vertex 14.5 -14.5 3.5
    endloop
  endfacet
  facet normal 1 0 0
    outer loop
      vertex 14.5 14.5 3.5
      vertex 14.5 3.5 3.5
      vertex 14.5 14.5 -5.5
    endloop
  endfacet
  facet normal 1 0 0
    outer loop
      vertex 14.5 -3.5 -3.5
      vertex 14.5 -14.5 -5.5
      vertex 14.5 3.5 -3.5
    endloop
  endfacet
  facet normal 1 0 0
    outer loop
      vertex 14.5 -14.5 3.5
      vertex 14.5 -14.5 -5.5
      vertex 14.5 -3.5 -3.5
    endloop
  endfacet
  facet normal 1 0 0
    outer loop
      vertex 14.5 3.5 3.5
      vertex 14.5 3.5 -3.5
      vertex 14.5 14.5 -5.5
    endloop
  endfacet
  facet normal 0 0 1
    outer loop
      vertex 0.5 14.5 3.5
      vertex 0.5 12.75 3.5
      vertex 12.75 12.75 3.5
    endloop
  endfacet
  facet normal 0 0 1
    outer loop
      vertex 14.5 14.5 3.5
      vertex 0.5 14.5 3.5
      vertex 12.75 12.75 3.5
    endloop
  endfacet
  facet normal 0 0 1
    outer loop
      vertex 12.75 3.5 3.5
      vertex 14.5 3.5 3.5
      vertex 12.75 12.75 3.5
    endloop
  endfacet
  facet normal 0 0 1
    outer loop
      vertex 14.5 3.5 3.5
      vertex 14.5 14.5 3.5
      vertex 12.75 12.75 3.5
    endloop
  endfacet
  facet normal -1 0 0
    outer loop
      vertex 0.5 14.5 3.5
      vertex 0.5 14.5 2
      vertex 0.5 12.75 3.5
    endloop
  endfacet
  facet normal -1 0 0
    outer loop
      vertex 0.5 12.75 3.5
      vertex 0.5 14.5 2
      vertex 0.5 12.75 2
    endloop
  endfacet
  facet normal 0 0 1
    outer loop
      vertex 0.5 12.75 2
      vertex 0.5 14.5 2
      vertex -9.5 14.5 2
    endloop
  endfacet
  facet normal 0 0 1
    outer loop
      vertex -9.5 12.75 2
      vertex 0.5 12.75 2
      vertex -9.5 14.5 2
    endloop
  endfacet
  facet normal 1 0 0
    outer loop
      vertex -9.5 14.5 2
      vertex -9.5 14.5 3.5
      vertex -9.5 12.75 3.5
    endloop
  endfacet
  facet normal 1 0 0
    outer loop
      vertex -9.5 12.75 2
      vertex -9.5 14.5 2
      vertex -9.5 12.75 3.5
    endloop
  endfacet
  facet normal 0 -1 0
    outer loop
      vertex 12.75 12.75 -3.5
      vertex 12.75 12.75 3.5
      vertex 0.5 12.75 3.5
    endloop
  endfacet
  facet normal 0 -1 0
    outer loop
      vertex -9.5 12.75 2
      vertex 12.75 12.75 -3.5
      vertex 0.5 12.75 2
    endloop
  endfacet
  facet normal 0 -1 0
    outer loop
      vertex 0.5 12.75 2
      vertex 12.75 12.75 -3.5
      vertex 0.5 12.75 3.5
    endloop
  endfacet
  facet normal 0 -1 0
    outer loop
      vertex -12.75 12.75 -3.5
      vertex 12.75 12.75 -3.5
      vertex -9.5 12.75 2
    endloop
  endfacet
  facet normal 0 -1 0
    outer loop
      vertex -12.75 12.75 3.5
      vertex -9.5 12.75 2
      vertex -9.5 12.75 3.5
    endloop
  endfacet
  facet normal 0 -1 0
    outer loop
      vertex -12.75 12.75 -3.5
      vertex -9.5 12.75 2
      vertex -12.75 12.75 3.5
    endloop
  endfacet
  facet normal 1 0 0
    outer loop
      vertex -12.75 12.75 -3.5
      vertex -12.75 12.75 3.5
      vertex -12.75 3.5 3.5
    endloop
  endfacet
  facet normal 1 0 0
    outer loop
      vertex -12.75 3.5 -3.5
      vertex -12.75 12.75 -3.5
      vertex -12.75 3.5 3.5
    endloop
  endfacet
  facet normal 1 0 0
    outer loop
      vertex -12.75 -3.5 -3.5
      vertex -12.75 -3.5 3.5
      vertex -12.75 -12.75 3.5
    endloop
  endfacet
  facet normal 1 0 0
    outer loop
      vertex -12.75 -12.75 -3.5
      vertex -12.75 -3.5 -3.5
      vertex -12.75 -12.75 3.5
    endloop
  endfacet
  facet normal -1 0 0
    outer loop
      vertex 12.75 12.75 3.5
      vertex 12.75 12.75 -3.5
      vertex 12.75 3.5 3.5
    endloop
  endfacet
  facet normal -1 0 0
    outer loop
      vertex 12.75 3.5 3.5
      vertex 12.75 12.75 -3.5
      vertex 12.75 3.5 -3.5
    endloop
  endfacet
  facet normal 0 -1 0
    outer loop
      vertex 14.5 3.5 -3.5
      vertex 14.5 3.5 3.5
      vertex 12.75 3.5 3.5
    endloop
  endfacet
  facet normal 0 -1 0
    outer loop
      vertex 12.75 3.5 -3.5
      vertex 14.5 3.5 -3.5
      vertex 12.75 3.5 3.5
    endloop
  endfacet
  facet normal 0 1 0
    outer loop
      vertex 14.5 -3.5 3.5
      vertex 14.5 -3.5 -3.5
      vertex 12.75 -3.5 3.5
    endloop
  endfacet
  facet normal 0 1 0
    outer loop
      vertex 12.75 -3.5 3.5
      vertex 14.5 -3.5 -3.5
      vertex 12.75 -3.5 -3.5
    endloop
  endfacet
  facet normal -1 0 0
    outer loop
      vertex 12.75 -3.5 3.5
      vertex 12.75 -3.5 -3.5
      vertex 12.75 -12.75 3.5
    endloop
  endfacet
  facet normal -1 0 0
    outer loop
      vertex 12.75 -12.75 3.5
      vertex 12.75 -3.5 -3.5
      vertex 12.75 -12.75 -3.5
    endloop
  endfacet
  facet normal 0 1 0
    outer loop
      vertex 12.75 -12.75 3.5
      vertex 12.75 -12.75 -3.5
      vertex -12.75 -12.75 3.5
    endloop
  endfacet
  facet normal 0 1 0
    outer loop
      vertex -12.75 -12.75 3.5
      vertex 12.75 -12.75 -3.5
      vertex -12.75 -12.75 -3.5
    endloop
  endfacet
endsolid OpenSCAD_Model
