<?xml version="1.0" encoding="UTF-8" standalone="no"?>
<svg width="266.171mm" height="96.0437mm"
 xmlns="http://www.w3.org/2000/svg" xmlns:xlink="http://www.w3.org/1999/xlink"  version="1.2" baseProfile="tiny">
<title>Qt Svg Document</title>
<desc>Generated with Qt</desc>
<defs>
</defs>
<g fill="none" stroke="black" stroke-width="1" fill-rule="evenodd" stroke-linecap="square" stroke-linejoin="bevel" >

<g fill="#ffffff" fill-opacity="1" stroke="none" transform="matrix(1,0,0,1,0,0)"
font-family="Helvetica" font-size="16" font-weight="400" font-style="normal" 
>
<path vector-effect="non-scaling-stroke" fill-rule="evenodd" d="M0,0 L1006,0 L1006,363 L0,363 L0,0"/>
</g>

<g fill="none" stroke="#808080" stroke-opacity="1" stroke-width="1" stroke-linecap="square" stroke-linejoin="bevel" transform="matrix(1,0,0,1,0,0)"
font-family="Helvetica" font-size="16" font-weight="400" font-style="normal" 
>
<polyline fill="none" vector-effect="non-scaling-stroke" points="18,127 18,83 " />
<polyline fill="none" vector-effect="non-scaling-stroke" points="40,127 40,83 " />
<polyline fill="none" vector-effect="non-scaling-stroke" points="18,127 40,127 " />
<polyline fill="none" vector-effect="non-scaling-stroke" points="18,83 40,83 " />
</g>

<g fill="none" stroke="#000080" stroke-opacity="1" stroke-width="2" stroke-linecap="square" stroke-linejoin="bevel" transform="matrix(1,0,0,1,0,0)"
font-family="Helvetica" font-size="16" font-weight="400" font-style="normal" 
>
<polyline fill="none" vector-effect="none" points="29,135 29,124 " />
<polyline fill="none" vector-effect="none" points="29,75 29,86 " />
<polyline fill="none" vector-effect="none" points="29,106 29,102 " />
<polyline fill="none" vector-effect="none" points="24,102 24,86 " />
<polyline fill="none" vector-effect="none" points="34,102 34,86 " />
<polyline fill="none" vector-effect="none" points="24,102 34,102 " />
<polyline fill="none" vector-effect="none" points="24,86 34,86 " />
</g>

<g fill="none" stroke="#ff0000" stroke-opacity="1" stroke-width="1" stroke-linecap="square" stroke-linejoin="bevel" transform="matrix(1,0,0,1,0,0)"
font-family="Helvetica" font-size="16" font-weight="400" font-style="normal" 
>
<polyline fill="none" vector-effect="none" points="34,80 40,80 " />
<polyline fill="none" vector-effect="none" points="37,77 37,83 " />
</g>

<g fill="none" stroke="#000000" stroke-opacity="1" stroke-width="1" stroke-linecap="square" stroke-linejoin="bevel" transform="matrix(1,0,0,1,0,0)"
font-family="Helvetica" font-size="16" font-weight="400" font-style="normal" 
>
<polyline fill="none" vector-effect="none" points="34,130 40,130 " />
</g>

<g fill="none" stroke="#000080" stroke-opacity="1" stroke-width="2" stroke-linecap="square" stroke-linejoin="bevel" transform="matrix(1,0,0,1,0,0)"
font-family="Helvetica" font-size="16" font-weight="400" font-style="normal" 
>
<path vector-effect="none" fill-rule="evenodd" d="M29.5,106 C24.2533,106 20,110.253 20,115.5 C20,120.747 24.2533,125 29.5,125 C34.7467,125 39,120.747 39,115.5 C39,110.253 34.7467,106 29.5,106 "/>
<path vector-effect="none" fill-rule="evenodd" d="M30,115.5 C30,113.567 28.433,112 26.5,112 C24.567,112 23,113.567 23,115.5 "/>
<path vector-effect="none" fill-rule="evenodd" d="M29,115.5 C29,117.433 30.567,119 32.5,119 C34.433,119 36,117.433 36,115.5 "/>
</g>

<g fill="none" stroke="#000080" stroke-opacity="1" stroke-width="2" stroke-linecap="square" stroke-linejoin="bevel" transform="matrix(1,0,0,1,0,0)"
font-family="Helvetica" font-size="16" font-weight="400" font-style="normal" 
>
</g>

<g fill="none" stroke="#000000" stroke-opacity="1" stroke-width="1" stroke-linecap="square" stroke-linejoin="bevel" transform="matrix(1,0,0,1,0,0)"
font-family="Helvetica" font-size="16" font-weight="400" font-style="normal" 
>
<text fill="#000000" fill-opacity="1" stroke="none" xml:space="preserve" x="47" y="95" font-family="Helvetica" font-size="16" font-weight="400" font-style="normal" 
 >P1</text>
<text fill="#000000" fill-opacity="1" stroke="none" xml:space="preserve" x="47" y="115" font-family="Helvetica" font-size="16" font-weight="400" font-style="normal" 
 >Num=1</text>
<text fill="#000000" fill-opacity="1" stroke="none" xml:space="preserve" x="47" y="135" font-family="Helvetica" font-size="16" font-weight="400" font-style="normal" 
 >Z=50 Ohm</text>
</g>

<g fill="none" stroke="#000080" stroke-opacity="1" stroke-width="2" stroke-linecap="square" stroke-linejoin="bevel" transform="matrix(1,0,0,1,0,0)"
font-family="Helvetica" font-size="16" font-weight="400" font-style="normal" 
>
<polyline fill="none" vector-effect="none" points="29,135 29,145 " />
</g>

<g fill="none" stroke="#000080" stroke-opacity="1" stroke-width="3" stroke-linecap="square" stroke-linejoin="bevel" transform="matrix(1,0,0,1,0,0)"
font-family="Helvetica" font-size="16" font-weight="400" font-style="normal" 
>
<polyline fill="none" vector-effect="none" points="18,145 40,145 " />
<polyline fill="none" vector-effect="none" points="22,151 36,151 " />
<polyline fill="none" vector-effect="none" points="26,157 32,157 " />
</g>

<g fill="none" stroke="#000080" stroke-opacity="1" stroke-width="3" stroke-linecap="square" stroke-linejoin="bevel" transform="matrix(1,0,0,1,0,0)"
font-family="Helvetica" font-size="16" font-weight="400" font-style="normal" 
>
</g>

<g fill="none" stroke="#000080" stroke-opacity="1" stroke-width="2" stroke-linecap="square" stroke-linejoin="bevel" transform="matrix(1,0,0,1,0,0)"
font-family="Helvetica" font-size="16" font-weight="400" font-style="normal" 
>
<polyline fill="none" vector-effect="none" points="139,135 139,145 " />
</g>

<g fill="none" stroke="#000080" stroke-opacity="1" stroke-width="3" stroke-linecap="square" stroke-linejoin="bevel" transform="matrix(1,0,0,1,0,0)"
font-family="Helvetica" font-size="16" font-weight="400" font-style="normal" 
>
<polyline fill="none" vector-effect="none" points="128,145 150,145 " />
<polyline fill="none" vector-effect="none" points="132,151 146,151 " />
<polyline fill="none" vector-effect="none" points="136,157 142,157 " />
</g>

<g fill="none" stroke="#000080" stroke-opacity="1" stroke-width="3" stroke-linecap="square" stroke-linejoin="bevel" transform="matrix(1,0,0,1,0,0)"
font-family="Helvetica" font-size="16" font-weight="400" font-style="normal" 
>
</g>

<g fill="none" stroke="#000080" stroke-opacity="1" stroke-width="2" stroke-linecap="square" stroke-linejoin="bevel" transform="matrix(1,0,0,1,0,0)"
font-family="Helvetica" font-size="16" font-weight="400" font-style="normal" 
>
<polyline fill="none" vector-effect="none" points="279,135 279,145 " />
</g>

<g fill="none" stroke="#000080" stroke-opacity="1" stroke-width="3" stroke-linecap="square" stroke-linejoin="bevel" transform="matrix(1,0,0,1,0,0)"
font-family="Helvetica" font-size="16" font-weight="400" font-style="normal" 
>
<polyline fill="none" vector-effect="none" points="268,145 290,145 " />
<polyline fill="none" vector-effect="none" points="272,151 286,151 " />
<polyline fill="none" vector-effect="none" points="276,157 282,157 " />
</g>

<g fill="none" stroke="#000080" stroke-opacity="1" stroke-width="3" stroke-linecap="square" stroke-linejoin="bevel" transform="matrix(1,0,0,1,0,0)"
font-family="Helvetica" font-size="16" font-weight="400" font-style="normal" 
>
</g>

<g fill="none" stroke="#000080" stroke-opacity="1" stroke-width="2" stroke-linecap="square" stroke-linejoin="bevel" transform="matrix(1,0,0,1,0,0)"
font-family="Helvetica" font-size="16" font-weight="400" font-style="normal" 
>
<polyline fill="none" vector-effect="none" points="419,135 419,145 " />
</g>

<g fill="none" stroke="#000080" stroke-opacity="1" stroke-width="3" stroke-linecap="square" stroke-linejoin="bevel" transform="matrix(1,0,0,1,0,0)"
font-family="Helvetica" font-size="16" font-weight="400" font-style="normal" 
>
<polyline fill="none" vector-effect="none" points="408,145 430,145 " />
<polyline fill="none" vector-effect="none" points="412,151 426,151 " />
<polyline fill="none" vector-effect="none" points="416,157 422,157 " />
</g>

<g fill="none" stroke="#000080" stroke-opacity="1" stroke-width="3" stroke-linecap="square" stroke-linejoin="bevel" transform="matrix(1,0,0,1,0,0)"
font-family="Helvetica" font-size="16" font-weight="400" font-style="normal" 
>
</g>

<g fill="none" stroke="#000080" stroke-opacity="1" stroke-width="2" stroke-linecap="square" stroke-linejoin="bevel" transform="matrix(1,0,0,1,0,0)"
font-family="Helvetica" font-size="16" font-weight="400" font-style="normal" 
>
<polyline fill="none" vector-effect="none" points="559,135 559,145 " />
</g>

<g fill="none" stroke="#000080" stroke-opacity="1" stroke-width="3" stroke-linecap="square" stroke-linejoin="bevel" transform="matrix(1,0,0,1,0,0)"
font-family="Helvetica" font-size="16" font-weight="400" font-style="normal" 
>
<polyline fill="none" vector-effect="none" points="548,145 570,145 " />
<polyline fill="none" vector-effect="none" points="552,151 566,151 " />
<polyline fill="none" vector-effect="none" points="556,157 562,157 " />
</g>

<g fill="none" stroke="#000080" stroke-opacity="1" stroke-width="3" stroke-linecap="square" stroke-linejoin="bevel" transform="matrix(1,0,0,1,0,0)"
font-family="Helvetica" font-size="16" font-weight="400" font-style="normal" 
>
</g>

<g fill="none" stroke="#000080" stroke-opacity="1" stroke-width="2" stroke-linecap="square" stroke-linejoin="bevel" transform="matrix(1,0,0,1,0,0)"
font-family="Helvetica" font-size="16" font-weight="400" font-style="normal" 
>
<polyline fill="none" vector-effect="none" points="699,135 699,145 " />
</g>

<g fill="none" stroke="#000080" stroke-opacity="1" stroke-width="3" stroke-linecap="square" stroke-linejoin="bevel" transform="matrix(1,0,0,1,0,0)"
font-family="Helvetica" font-size="16" font-weight="400" font-style="normal" 
>
<polyline fill="none" vector-effect="none" points="688,145 710,145 " />
<polyline fill="none" vector-effect="none" points="692,151 706,151 " />
<polyline fill="none" vector-effect="none" points="696,157 702,157 " />
</g>

<g fill="none" stroke="#000080" stroke-opacity="1" stroke-width="3" stroke-linecap="square" stroke-linejoin="bevel" transform="matrix(1,0,0,1,0,0)"
font-family="Helvetica" font-size="16" font-weight="400" font-style="normal" 
>
</g>

<g fill="none" stroke="#808080" stroke-opacity="1" stroke-width="1" stroke-linecap="square" stroke-linejoin="bevel" transform="matrix(1,0,0,1,0,0)"
font-family="Helvetica" font-size="16" font-weight="400" font-style="normal" 
>
<polyline fill="none" vector-effect="non-scaling-stroke" points="798,127 798,83 " />
<polyline fill="none" vector-effect="non-scaling-stroke" points="820,127 820,83 " />
<polyline fill="none" vector-effect="non-scaling-stroke" points="798,127 820,127 " />
<polyline fill="none" vector-effect="non-scaling-stroke" points="798,83 820,83 " />
</g>

<g fill="none" stroke="#000080" stroke-opacity="1" stroke-width="2" stroke-linecap="square" stroke-linejoin="bevel" transform="matrix(1,0,0,1,0,0)"
font-family="Helvetica" font-size="16" font-weight="400" font-style="normal" 
>
<polyline fill="none" vector-effect="none" points="809,135 809,124 " />
<polyline fill="none" vector-effect="none" points="809,75 809,86 " />
<polyline fill="none" vector-effect="none" points="809,106 809,102 " />
<polyline fill="none" vector-effect="none" points="804,102 804,86 " />
<polyline fill="none" vector-effect="none" points="814,102 814,86 " />
<polyline fill="none" vector-effect="none" points="804,102 814,102 " />
<polyline fill="none" vector-effect="none" points="804,86 814,86 " />
</g>

<g fill="none" stroke="#ff0000" stroke-opacity="1" stroke-width="1" stroke-linecap="square" stroke-linejoin="bevel" transform="matrix(1,0,0,1,0,0)"
font-family="Helvetica" font-size="16" font-weight="400" font-style="normal" 
>
<polyline fill="none" vector-effect="none" points="814,80 820,80 " />
<polyline fill="none" vector-effect="none" points="817,77 817,83 " />
</g>

<g fill="none" stroke="#000000" stroke-opacity="1" stroke-width="1" stroke-linecap="square" stroke-linejoin="bevel" transform="matrix(1,0,0,1,0,0)"
font-family="Helvetica" font-size="16" font-weight="400" font-style="normal" 
>
<polyline fill="none" vector-effect="none" points="814,130 820,130 " />
</g>

<g fill="none" stroke="#000080" stroke-opacity="1" stroke-width="2" stroke-linecap="square" stroke-linejoin="bevel" transform="matrix(1,0,0,1,0,0)"
font-family="Helvetica" font-size="16" font-weight="400" font-style="normal" 
>
<path vector-effect="none" fill-rule="evenodd" d="M809.5,106 C804.253,106 800,110.253 800,115.5 C800,120.747 804.253,125 809.5,125 C814.747,125 819,120.747 819,115.5 C819,110.253 814.747,106 809.5,106 "/>
<path vector-effect="none" fill-rule="evenodd" d="M810,115.5 C810,113.567 808.433,112 806.5,112 C804.567,112 803,113.567 803,115.5 "/>
<path vector-effect="none" fill-rule="evenodd" d="M809,115.5 C809,117.433 810.567,119 812.5,119 C814.433,119 816,117.433 816,115.5 "/>
</g>

<g fill="none" stroke="#000080" stroke-opacity="1" stroke-width="2" stroke-linecap="square" stroke-linejoin="bevel" transform="matrix(1,0,0,1,0,0)"
font-family="Helvetica" font-size="16" font-weight="400" font-style="normal" 
>
</g>

<g fill="none" stroke="#000000" stroke-opacity="1" stroke-width="1" stroke-linecap="square" stroke-linejoin="bevel" transform="matrix(1,0,0,1,0,0)"
font-family="Helvetica" font-size="16" font-weight="400" font-style="normal" 
>
<text fill="#000000" fill-opacity="1" stroke="none" xml:space="preserve" x="827" y="95" font-family="Helvetica" font-size="16" font-weight="400" font-style="normal" 
 >P2</text>
<text fill="#000000" fill-opacity="1" stroke="none" xml:space="preserve" x="827" y="115" font-family="Helvetica" font-size="16" font-weight="400" font-style="normal" 
 >Num=2</text>
<text fill="#000000" fill-opacity="1" stroke="none" xml:space="preserve" x="827" y="135" font-family="Helvetica" font-size="16" font-weight="400" font-style="normal" 
 >Z=50 Ohm</text>
</g>

<g fill="none" stroke="#000080" stroke-opacity="1" stroke-width="2" stroke-linecap="square" stroke-linejoin="bevel" transform="matrix(1,0,0,1,0,0)"
font-family="Helvetica" font-size="16" font-weight="400" font-style="normal" 
>
<polyline fill="none" vector-effect="none" points="809,135 809,145 " />
</g>

<g fill="none" stroke="#000080" stroke-opacity="1" stroke-width="3" stroke-linecap="square" stroke-linejoin="bevel" transform="matrix(1,0,0,1,0,0)"
font-family="Helvetica" font-size="16" font-weight="400" font-style="normal" 
>
<polyline fill="none" vector-effect="none" points="798,145 820,145 " />
<polyline fill="none" vector-effect="none" points="802,151 816,151 " />
<polyline fill="none" vector-effect="none" points="806,157 812,157 " />
</g>

<g fill="none" stroke="#000080" stroke-opacity="1" stroke-width="3" stroke-linecap="square" stroke-linejoin="bevel" transform="matrix(1,0,0,1,0,0)"
font-family="Helvetica" font-size="16" font-weight="400" font-style="normal" 
>
</g>

<g fill="none" stroke="#000080" stroke-opacity="1" stroke-width="2" stroke-linecap="square" stroke-linejoin="bevel" transform="matrix(1,0,0,1,0,0)"
font-family="Helvetica" font-size="16" font-weight="400" font-style="normal" 
>
<polyline fill="none" vector-effect="none" points="205,207 205,223 " />
<polyline fill="none" vector-effect="none" points="205,223 256,223 " />
</g>

<g fill="none" stroke="#000000" stroke-opacity="1" stroke-width="1" stroke-linecap="square" stroke-linejoin="bevel" transform="matrix(1,0,0,1,209,204)"
font-family="Helvetica" font-size="16" font-weight="100" font-style="normal" 
>
<text fill="#000000" fill-opacity="1" stroke="none" xml:space="preserve" x="0" y="16" font-family="Helvetica" font-size="16" font-weight="100" font-style="normal" 
 >Equation</text>
</g>

<g fill="none" stroke="#000080" stroke-opacity="1" stroke-width="2" stroke-linecap="square" stroke-linejoin="bevel" transform="matrix(1,0,0,1,0,0)"
font-family="Helvetica" font-size="16" font-weight="400" font-style="normal" 
>
</g>

<g fill="none" stroke="#000000" stroke-opacity="1" stroke-width="1" stroke-linecap="square" stroke-linejoin="bevel" transform="matrix(1,0,0,1,0,0)"
font-family="Helvetica" font-size="16" font-weight="400" font-style="normal" 
>
<text fill="#000000" fill-opacity="1" stroke="none" xml:space="preserve" x="201" y="246" font-family="Helvetica" font-size="16" font-weight="400" font-style="normal" 
 >Eqn1</text>
<text fill="#000000" fill-opacity="1" stroke="none" xml:space="preserve" x="201" y="266" font-family="Helvetica" font-size="16" font-weight="400" font-style="normal" 
 >dBS21=dB(S[2,1])</text>
<text fill="#000000" fill-opacity="1" stroke="none" xml:space="preserve" x="201" y="286" font-family="Helvetica" font-size="16" font-weight="400" font-style="normal" 
 >dBS11=dB(S[1,1])</text>
</g>

<g fill="none" stroke="#000080" stroke-opacity="1" stroke-width="4" stroke-linecap="square" stroke-linejoin="bevel" transform="matrix(1,0,0,1,0,0)"
font-family="Helvetica" font-size="16" font-weight="400" font-style="normal" 
>
<polyline fill="none" vector-effect="none" points="128,109 150,109 " />
<polyline fill="none" vector-effect="none" points="128,101 150,101 " />
</g>

<g fill="none" stroke="#000080" stroke-opacity="1" stroke-width="2" stroke-linecap="square" stroke-linejoin="bevel" transform="matrix(1,0,0,1,0,0)"
font-family="Helvetica" font-size="16" font-weight="400" font-style="normal" 
>
<polyline fill="none" vector-effect="none" points="139,135 139,109 " />
<polyline fill="none" vector-effect="none" points="139,101 139,75 " />
</g>

<g fill="none" stroke="#000080" stroke-opacity="1" stroke-width="2" stroke-linecap="square" stroke-linejoin="bevel" transform="matrix(1,0,0,1,0,0)"
font-family="Helvetica" font-size="16" font-weight="400" font-style="normal" 
>
</g>

<g fill="none" stroke="#000000" stroke-opacity="1" stroke-width="1" stroke-linecap="square" stroke-linejoin="bevel" transform="matrix(1,0,0,1,0,0)"
font-family="Helvetica" font-size="16" font-weight="400" font-style="normal" 
>
<text fill="#000000" fill-opacity="1" stroke="none" xml:space="preserve" x="156" y="95" font-family="Helvetica" font-size="16" font-weight="400" font-style="normal" 
 >C1</text>
<text fill="#000000" fill-opacity="1" stroke="none" xml:space="preserve" x="156" y="115" font-family="Helvetica" font-size="16" font-weight="400" font-style="normal" 
 >C=20pF</text>
</g>

<g fill="none" stroke="#000080" stroke-opacity="1" stroke-width="4" stroke-linecap="square" stroke-linejoin="bevel" transform="matrix(1,0,0,1,0,0)"
font-family="Helvetica" font-size="16" font-weight="400" font-style="normal" 
>
<polyline fill="none" vector-effect="none" points="268,109 290,109 " />
<polyline fill="none" vector-effect="none" points="268,101 290,101 " />
</g>

<g fill="none" stroke="#000080" stroke-opacity="1" stroke-width="2" stroke-linecap="square" stroke-linejoin="bevel" transform="matrix(1,0,0,1,0,0)"
font-family="Helvetica" font-size="16" font-weight="400" font-style="normal" 
>
<polyline fill="none" vector-effect="none" points="279,135 279,109 " />
<polyline fill="none" vector-effect="none" points="279,101 279,75 " />
</g>

<g fill="none" stroke="#000080" stroke-opacity="1" stroke-width="2" stroke-linecap="square" stroke-linejoin="bevel" transform="matrix(1,0,0,1,0,0)"
font-family="Helvetica" font-size="16" font-weight="400" font-style="normal" 
>
</g>

<g fill="none" stroke="#000000" stroke-opacity="1" stroke-width="1" stroke-linecap="square" stroke-linejoin="bevel" transform="matrix(1,0,0,1,0,0)"
font-family="Helvetica" font-size="16" font-weight="400" font-style="normal" 
>
<text fill="#000000" fill-opacity="1" stroke="none" xml:space="preserve" x="296" y="95" font-family="Helvetica" font-size="16" font-weight="400" font-style="normal" 
 >C2</text>
<text fill="#000000" fill-opacity="1" stroke="none" xml:space="preserve" x="296" y="115" font-family="Helvetica" font-size="16" font-weight="400" font-style="normal" 
 >C=30pF</text>
</g>

<g fill="none" stroke="#000080" stroke-opacity="1" stroke-width="4" stroke-linecap="square" stroke-linejoin="bevel" transform="matrix(1,0,0,1,0,0)"
font-family="Helvetica" font-size="16" font-weight="400" font-style="normal" 
>
<polyline fill="none" vector-effect="none" points="408,109 430,109 " />
<polyline fill="none" vector-effect="none" points="408,101 430,101 " />
</g>

<g fill="none" stroke="#000080" stroke-opacity="1" stroke-width="2" stroke-linecap="square" stroke-linejoin="bevel" transform="matrix(1,0,0,1,0,0)"
font-family="Helvetica" font-size="16" font-weight="400" font-style="normal" 
>
<polyline fill="none" vector-effect="none" points="419,135 419,109 " />
<polyline fill="none" vector-effect="none" points="419,101 419,75 " />
</g>

<g fill="none" stroke="#000080" stroke-opacity="1" stroke-width="2" stroke-linecap="square" stroke-linejoin="bevel" transform="matrix(1,0,0,1,0,0)"
font-family="Helvetica" font-size="16" font-weight="400" font-style="normal" 
>
</g>

<g fill="none" stroke="#000000" stroke-opacity="1" stroke-width="1" stroke-linecap="square" stroke-linejoin="bevel" transform="matrix(1,0,0,1,0,0)"
font-family="Helvetica" font-size="16" font-weight="400" font-style="normal" 
>
<text fill="#000000" fill-opacity="1" stroke="none" xml:space="preserve" x="436" y="95" font-family="Helvetica" font-size="16" font-weight="400" font-style="normal" 
 >C3</text>
<text fill="#000000" fill-opacity="1" stroke="none" xml:space="preserve" x="436" y="115" font-family="Helvetica" font-size="16" font-weight="400" font-style="normal" 
 >C=30pF</text>
</g>

<g fill="none" stroke="#000080" stroke-opacity="1" stroke-width="4" stroke-linecap="square" stroke-linejoin="bevel" transform="matrix(1,0,0,1,0,0)"
font-family="Helvetica" font-size="16" font-weight="400" font-style="normal" 
>
<polyline fill="none" vector-effect="none" points="548,109 570,109 " />
<polyline fill="none" vector-effect="none" points="548,101 570,101 " />
</g>

<g fill="none" stroke="#000080" stroke-opacity="1" stroke-width="2" stroke-linecap="square" stroke-linejoin="bevel" transform="matrix(1,0,0,1,0,0)"
font-family="Helvetica" font-size="16" font-weight="400" font-style="normal" 
>
<polyline fill="none" vector-effect="none" points="559,135 559,109 " />
<polyline fill="none" vector-effect="none" points="559,101 559,75 " />
</g>

<g fill="none" stroke="#000080" stroke-opacity="1" stroke-width="2" stroke-linecap="square" stroke-linejoin="bevel" transform="matrix(1,0,0,1,0,0)"
font-family="Helvetica" font-size="16" font-weight="400" font-style="normal" 
>
</g>

<g fill="none" stroke="#000000" stroke-opacity="1" stroke-width="1" stroke-linecap="square" stroke-linejoin="bevel" transform="matrix(1,0,0,1,0,0)"
font-family="Helvetica" font-size="16" font-weight="400" font-style="normal" 
>
<text fill="#000000" fill-opacity="1" stroke="none" xml:space="preserve" x="576" y="95" font-family="Helvetica" font-size="16" font-weight="400" font-style="normal" 
 >C4</text>
<text fill="#000000" fill-opacity="1" stroke="none" xml:space="preserve" x="576" y="115" font-family="Helvetica" font-size="16" font-weight="400" font-style="normal" 
 >C=30pF</text>
</g>

<g fill="none" stroke="#000080" stroke-opacity="1" stroke-width="4" stroke-linecap="square" stroke-linejoin="bevel" transform="matrix(1,0,0,1,0,0)"
font-family="Helvetica" font-size="16" font-weight="400" font-style="normal" 
>
<polyline fill="none" vector-effect="none" points="688,109 710,109 " />
<polyline fill="none" vector-effect="none" points="688,101 710,101 " />
</g>

<g fill="none" stroke="#000080" stroke-opacity="1" stroke-width="2" stroke-linecap="square" stroke-linejoin="bevel" transform="matrix(1,0,0,1,0,0)"
font-family="Helvetica" font-size="16" font-weight="400" font-style="normal" 
>
<polyline fill="none" vector-effect="none" points="699,135 699,109 " />
<polyline fill="none" vector-effect="none" points="699,101 699,75 " />
</g>

<g fill="none" stroke="#000080" stroke-opacity="1" stroke-width="2" stroke-linecap="square" stroke-linejoin="bevel" transform="matrix(1,0,0,1,0,0)"
font-family="Helvetica" font-size="16" font-weight="400" font-style="normal" 
>
</g>

<g fill="none" stroke="#000000" stroke-opacity="1" stroke-width="1" stroke-linecap="square" stroke-linejoin="bevel" transform="matrix(1,0,0,1,0,0)"
font-family="Helvetica" font-size="16" font-weight="400" font-style="normal" 
>
<text fill="#000000" fill-opacity="1" stroke="none" xml:space="preserve" x="716" y="95" font-family="Helvetica" font-size="16" font-weight="400" font-style="normal" 
 >C5</text>
<text fill="#000000" fill-opacity="1" stroke="none" xml:space="preserve" x="716" y="115" font-family="Helvetica" font-size="16" font-weight="400" font-style="normal" 
 >C=20pF</text>
</g>

<g fill="none" stroke="#000080" stroke-opacity="1" stroke-width="2" stroke-linecap="square" stroke-linejoin="bevel" transform="matrix(1,0,0,1,0,0)"
font-family="Helvetica" font-size="21.3333" font-weight="630" font-style="normal" 
>
<text fill="#000080" fill-opacity="1" stroke="none" xml:space="preserve" x="39" y="226" font-family="Helvetica" font-size="21.3333" font-weight="630" font-style="normal" 
 >S parameter</text>
<text fill="#000080" fill-opacity="1" stroke="none" xml:space="preserve" x="39" y="254" font-family="Helvetica" font-size="21.3333" font-weight="630" font-style="normal" 
 >simulation</text>
<path vector-effect="none" fill-rule="evenodd" d="M33,200 L164,200 L164,266 L33,266 L33,200"/>
<polyline fill="none" vector-effect="none" points="38,271 33,266 " />
<polyline fill="none" vector-effect="none" points="168,271 38,271 " />
<polyline fill="none" vector-effect="none" points="168,271 164,266 " />
<polyline fill="none" vector-effect="none" points="168,271 168,205 " />
<polyline fill="none" vector-effect="none" points="168,205 164,200 " />
</g>

<g fill="none" stroke="#000000" stroke-opacity="1" stroke-width="1" stroke-linecap="square" stroke-linejoin="bevel" transform="matrix(1,0,0,1,0,0)"
font-family="Helvetica" font-size="16" font-weight="400" font-style="normal" 
>
<text fill="#000000" fill-opacity="1" stroke="none" xml:space="preserve" x="39" y="292" font-family="Helvetica" font-size="16" font-weight="400" font-style="normal" 
 >SP1</text>
<text fill="#000000" fill-opacity="1" stroke="none" xml:space="preserve" x="39" y="312" font-family="Helvetica" font-size="16" font-weight="400" font-style="normal" 
 >Type=log</text>
<text fill="#000000" fill-opacity="1" stroke="none" xml:space="preserve" x="39" y="332" font-family="Helvetica" font-size="16" font-weight="400" font-style="normal" 
 >Start=28MHz</text>
<text fill="#000000" fill-opacity="1" stroke="none" xml:space="preserve" x="39" y="352" font-family="Helvetica" font-size="16" font-weight="400" font-style="normal" 
 >Stop=2.88GHz</text>
<text fill="#000000" fill-opacity="1" stroke="none" xml:space="preserve" x="39" y="372" font-family="Helvetica" font-size="16" font-weight="400" font-style="normal" 
 >Points=2013</text>
</g>

<g fill="none" stroke="#000080" stroke-opacity="1" stroke-width="2" stroke-linecap="square" stroke-linejoin="bevel" transform="matrix(1,0,0,1,0,0)"
font-family="Helvetica" font-size="16" font-weight="400" font-style="normal" 
>
<polyline fill="none" vector-effect="none" points="179,25 191,25 " />
<polyline fill="none" vector-effect="none" points="227,25 239,25 " />
<path vector-effect="none" fill-rule="evenodd" d="M204,25.5 C204,21.9101 201.09,19 197.5,19 C193.91,19 191,21.9101 191,25.5 "/>
<path vector-effect="none" fill-rule="evenodd" d="M216,25.5 C216,21.9101 213.09,19 209.5,19 C205.91,19 203,21.9101 203,25.5 "/>
<path vector-effect="none" fill-rule="evenodd" d="M228,25.5 C228,21.9101 225.09,19 221.5,19 C217.91,19 215,21.9101 215,25.5 "/>
</g>

<g fill="none" stroke="#000080" stroke-opacity="1" stroke-width="2" stroke-linecap="square" stroke-linejoin="bevel" transform="matrix(1,0,0,1,0,0)"
font-family="Helvetica" font-size="16" font-weight="400" font-style="normal" 
>
</g>

<g fill="none" stroke="#000000" stroke-opacity="1" stroke-width="1" stroke-linecap="square" stroke-linejoin="bevel" transform="matrix(1,0,0,1,0,0)"
font-family="Helvetica" font-size="16" font-weight="400" font-style="normal" 
>
<text fill="#000000" fill-opacity="1" stroke="none" xml:space="preserve" x="183" y="51" font-family="Helvetica" font-size="16" font-weight="400" font-style="normal" 
 >L1</text>
<text fill="#000000" fill-opacity="1" stroke="none" xml:space="preserve" x="183" y="71" font-family="Helvetica" font-size="16" font-weight="400" font-style="normal" 
 >L=36.61nH</text>
</g>

<g fill="none" stroke="#000080" stroke-opacity="1" stroke-width="2" stroke-linecap="square" stroke-linejoin="bevel" transform="matrix(1,0,0,1,0,0)"
font-family="Helvetica" font-size="16" font-weight="400" font-style="normal" 
>
<polyline fill="none" vector-effect="none" points="319,25 331,25 " />
<polyline fill="none" vector-effect="none" points="367,25 379,25 " />
<path vector-effect="none" fill-rule="evenodd" d="M344,25.5 C344,21.9101 341.09,19 337.5,19 C333.91,19 331,21.9101 331,25.5 "/>
<path vector-effect="none" fill-rule="evenodd" d="M356,25.5 C356,21.9101 353.09,19 349.5,19 C345.91,19 343,21.9101 343,25.5 "/>
<path vector-effect="none" fill-rule="evenodd" d="M368,25.5 C368,21.9101 365.09,19 361.5,19 C357.91,19 355,21.9101 355,25.5 "/>
</g>

<g fill="none" stroke="#000080" stroke-opacity="1" stroke-width="2" stroke-linecap="square" stroke-linejoin="bevel" transform="matrix(1,0,0,1,0,0)"
font-family="Helvetica" font-size="16" font-weight="400" font-style="normal" 
>
</g>

<g fill="none" stroke="#000000" stroke-opacity="1" stroke-width="1" stroke-linecap="square" stroke-linejoin="bevel" transform="matrix(1,0,0,1,0,0)"
font-family="Helvetica" font-size="16" font-weight="400" font-style="normal" 
>
<text fill="#000000" fill-opacity="1" stroke="none" xml:space="preserve" x="323" y="51" font-family="Helvetica" font-size="16" font-weight="400" font-style="normal" 
 >L2</text>
<text fill="#000000" fill-opacity="1" stroke="none" xml:space="preserve" x="323" y="71" font-family="Helvetica" font-size="16" font-weight="400" font-style="normal" 
 >L=36.61nH</text>
</g>

<g fill="none" stroke="#000080" stroke-opacity="1" stroke-width="2" stroke-linecap="square" stroke-linejoin="bevel" transform="matrix(1,0,0,1,0,0)"
font-family="Helvetica" font-size="16" font-weight="400" font-style="normal" 
>
<polyline fill="none" vector-effect="none" points="459,25 471,25 " />
<polyline fill="none" vector-effect="none" points="507,25 519,25 " />
<path vector-effect="none" fill-rule="evenodd" d="M484,25.5 C484,21.9101 481.09,19 477.5,19 C473.91,19 471,21.9101 471,25.5 "/>
<path vector-effect="none" fill-rule="evenodd" d="M496,25.5 C496,21.9101 493.09,19 489.5,19 C485.91,19 483,21.9101 483,25.5 "/>
<path vector-effect="none" fill-rule="evenodd" d="M508,25.5 C508,21.9101 505.09,19 501.5,19 C497.91,19 495,21.9101 495,25.5 "/>
</g>

<g fill="none" stroke="#000080" stroke-opacity="1" stroke-width="2" stroke-linecap="square" stroke-linejoin="bevel" transform="matrix(1,0,0,1,0,0)"
font-family="Helvetica" font-size="16" font-weight="400" font-style="normal" 
>
</g>

<g fill="none" stroke="#000000" stroke-opacity="1" stroke-width="1" stroke-linecap="square" stroke-linejoin="bevel" transform="matrix(1,0,0,1,0,0)"
font-family="Helvetica" font-size="16" font-weight="400" font-style="normal" 
>
<text fill="#000000" fill-opacity="1" stroke="none" xml:space="preserve" x="463" y="51" font-family="Helvetica" font-size="16" font-weight="400" font-style="normal" 
 >L3</text>
<text fill="#000000" fill-opacity="1" stroke="none" xml:space="preserve" x="463" y="71" font-family="Helvetica" font-size="16" font-weight="400" font-style="normal" 
 >L=36.61nH</text>
</g>

<g fill="none" stroke="#000080" stroke-opacity="1" stroke-width="2" stroke-linecap="square" stroke-linejoin="bevel" transform="matrix(1,0,0,1,0,0)"
font-family="Helvetica" font-size="16" font-weight="400" font-style="normal" 
>
<polyline fill="none" vector-effect="none" points="599,25 611,25 " />
<polyline fill="none" vector-effect="none" points="647,25 659,25 " />
<path vector-effect="none" fill-rule="evenodd" d="M624,25.5 C624,21.9101 621.09,19 617.5,19 C613.91,19 611,21.9101 611,25.5 "/>
<path vector-effect="none" fill-rule="evenodd" d="M636,25.5 C636,21.9101 633.09,19 629.5,19 C625.91,19 623,21.9101 623,25.5 "/>
<path vector-effect="none" fill-rule="evenodd" d="M648,25.5 C648,21.9101 645.09,19 641.5,19 C637.91,19 635,21.9101 635,25.5 "/>
</g>

<g fill="none" stroke="#000080" stroke-opacity="1" stroke-width="2" stroke-linecap="square" stroke-linejoin="bevel" transform="matrix(1,0,0,1,0,0)"
font-family="Helvetica" font-size="16" font-weight="400" font-style="normal" 
>
</g>

<g fill="none" stroke="#000000" stroke-opacity="1" stroke-width="1" stroke-linecap="square" stroke-linejoin="bevel" transform="matrix(1,0,0,1,0,0)"
font-family="Helvetica" font-size="16" font-weight="400" font-style="normal" 
>
<text fill="#000000" fill-opacity="1" stroke="none" xml:space="preserve" x="603" y="51" font-family="Helvetica" font-size="16" font-weight="400" font-style="normal" 
 >L4</text>
<text fill="#000000" fill-opacity="1" stroke="none" xml:space="preserve" x="603" y="71" font-family="Helvetica" font-size="16" font-weight="400" font-style="normal" 
 >L=36.61nH</text>
</g>

<g fill="none" stroke="#000080" stroke-opacity="1" stroke-width="2" stroke-linecap="square" stroke-linejoin="bevel" transform="matrix(1,0,0,1,0,0)"
font-family="Helvetica" font-size="16" font-weight="400" font-style="normal" 
>
<polyline fill="none" vector-effect="none" points="29,25 29,75 " />
<polyline fill="none" vector-effect="none" points="29,25 139,25 " />
<polyline fill="none" vector-effect="none" points="139,25 139,75 " />
<polyline fill="none" vector-effect="none" points="419,25 419,75 " />
<polyline fill="none" vector-effect="none" points="559,25 559,75 " />
<polyline fill="none" vector-effect="none" points="699,25 699,75 " />
<polyline fill="none" vector-effect="none" points="139,25 179,25 " />
<polyline fill="none" vector-effect="none" points="239,25 279,25 " />
<polyline fill="none" vector-effect="none" points="279,25 319,25 " />
<polyline fill="none" vector-effect="none" points="379,25 419,25 " />
<polyline fill="none" vector-effect="none" points="419,25 459,25 " />
<polyline fill="none" vector-effect="none" points="519,25 559,25 " />
<polyline fill="none" vector-effect="none" points="559,25 599,25 " />
<polyline fill="none" vector-effect="none" points="659,25 699,25 " />
<polyline fill="none" vector-effect="none" points="809,25 809,75 " />
<polyline fill="none" vector-effect="none" points="699,25 809,25 " />
<polyline fill="none" vector-effect="none" points="279,25 279,75 " />
</g>

<g fill="#000080" fill-opacity="1" stroke="none" transform="matrix(1,0,0,1,0,0)"
font-family="Helvetica" font-size="16" font-weight="400" font-style="normal" 
>
<path vector-effect="non-scaling-stroke" fill-rule="evenodd" d="M27,73 L31,73 L31,77 L27,77 L27,73"/>
</g>

<g fill="#000080" fill-opacity="1" stroke="none" transform="matrix(1,0,0,1,0,0)"
font-family="Helvetica" font-size="16" font-weight="400" font-style="normal" 
>
<path vector-effect="non-scaling-stroke" fill-rule="evenodd" d="M27,133 L31,133 L31,137 L27,137 L27,133"/>
</g>

<g fill="#000080" fill-opacity="1" stroke="none" transform="matrix(1,0,0,1,0,0)"
font-family="Helvetica" font-size="16" font-weight="400" font-style="normal" 
>
<path vector-effect="non-scaling-stroke" fill-rule="evenodd" d="M137,133 L141,133 L141,137 L137,137 L137,133"/>
</g>

<g fill="#000080" fill-opacity="1" stroke="none" transform="matrix(1,0,0,1,0,0)"
font-family="Helvetica" font-size="16" font-weight="400" font-style="normal" 
>
<path vector-effect="non-scaling-stroke" fill-rule="evenodd" d="M277,133 L281,133 L281,137 L277,137 L277,133"/>
</g>

<g fill="#000080" fill-opacity="1" stroke="none" transform="matrix(1,0,0,1,0,0)"
font-family="Helvetica" font-size="16" font-weight="400" font-style="normal" 
>
<path vector-effect="non-scaling-stroke" fill-rule="evenodd" d="M417,133 L421,133 L421,137 L417,137 L417,133"/>
</g>

<g fill="#000080" fill-opacity="1" stroke="none" transform="matrix(1,0,0,1,0,0)"
font-family="Helvetica" font-size="16" font-weight="400" font-style="normal" 
>
<path vector-effect="non-scaling-stroke" fill-rule="evenodd" d="M557,133 L561,133 L561,137 L557,137 L557,133"/>
</g>

<g fill="#000080" fill-opacity="1" stroke="none" transform="matrix(1,0,0,1,0,0)"
font-family="Helvetica" font-size="16" font-weight="400" font-style="normal" 
>
<path vector-effect="non-scaling-stroke" fill-rule="evenodd" d="M697,133 L701,133 L701,137 L697,137 L697,133"/>
</g>

<g fill="#000080" fill-opacity="1" stroke="none" transform="matrix(1,0,0,1,0,0)"
font-family="Helvetica" font-size="16" font-weight="400" font-style="normal" 
>
<path vector-effect="non-scaling-stroke" fill-rule="evenodd" d="M807,73 L811,73 L811,77 L807,77 L807,73"/>
</g>

<g fill="#000080" fill-opacity="1" stroke="none" transform="matrix(1,0,0,1,0,0)"
font-family="Helvetica" font-size="16" font-weight="400" font-style="normal" 
>
<path vector-effect="non-scaling-stroke" fill-rule="evenodd" d="M807,133 L811,133 L811,137 L807,137 L807,133"/>
</g>

<g fill="#000080" fill-opacity="1" stroke="none" transform="matrix(1,0,0,1,0,0)"
font-family="Helvetica" font-size="16" font-weight="400" font-style="normal" 
>
<path vector-effect="non-scaling-stroke" fill-rule="evenodd" d="M137,73 L141,73 L141,77 L137,77 L137,73"/>
</g>

<g fill="#000080" fill-opacity="1" stroke="none" transform="matrix(1,0,0,1,0,0)"
font-family="Helvetica" font-size="16" font-weight="400" font-style="normal" 
>
<path vector-effect="non-scaling-stroke" fill-rule="evenodd" d="M277,73 L281,73 L281,77 L277,77 L277,73"/>
</g>

<g fill="#000080" fill-opacity="1" stroke="none" transform="matrix(1,0,0,1,0,0)"
font-family="Helvetica" font-size="16" font-weight="400" font-style="normal" 
>
<path vector-effect="non-scaling-stroke" fill-rule="evenodd" d="M417,73 L421,73 L421,77 L417,77 L417,73"/>
</g>

<g fill="#000080" fill-opacity="1" stroke="none" transform="matrix(1,0,0,1,0,0)"
font-family="Helvetica" font-size="16" font-weight="400" font-style="normal" 
>
<path vector-effect="non-scaling-stroke" fill-rule="evenodd" d="M557,73 L561,73 L561,77 L557,77 L557,73"/>
</g>

<g fill="#000080" fill-opacity="1" stroke="none" transform="matrix(1,0,0,1,0,0)"
font-family="Helvetica" font-size="16" font-weight="400" font-style="normal" 
>
<path vector-effect="non-scaling-stroke" fill-rule="evenodd" d="M697,73 L701,73 L701,77 L697,77 L697,73"/>
</g>

<g fill="#000080" fill-opacity="1" stroke="none" transform="matrix(1,0,0,1,0,0)"
font-family="Helvetica" font-size="16" font-weight="400" font-style="normal" 
>
<path vector-effect="non-scaling-stroke" fill-rule="evenodd" d="M177,23 L181,23 L181,27 L177,27 L177,23"/>
</g>

<g fill="#000080" fill-opacity="1" stroke="none" transform="matrix(1,0,0,1,0,0)"
font-family="Helvetica" font-size="16" font-weight="400" font-style="normal" 
>
<path vector-effect="non-scaling-stroke" fill-rule="evenodd" d="M237,23 L241,23 L241,27 L237,27 L237,23"/>
</g>

<g fill="#000080" fill-opacity="1" stroke="none" transform="matrix(1,0,0,1,0,0)"
font-family="Helvetica" font-size="16" font-weight="400" font-style="normal" 
>
<path vector-effect="non-scaling-stroke" fill-rule="evenodd" d="M317,23 L321,23 L321,27 L317,27 L317,23"/>
</g>

<g fill="#000080" fill-opacity="1" stroke="none" transform="matrix(1,0,0,1,0,0)"
font-family="Helvetica" font-size="16" font-weight="400" font-style="normal" 
>
<path vector-effect="non-scaling-stroke" fill-rule="evenodd" d="M377,23 L381,23 L381,27 L377,27 L377,23"/>
</g>

<g fill="#000080" fill-opacity="1" stroke="none" transform="matrix(1,0,0,1,0,0)"
font-family="Helvetica" font-size="16" font-weight="400" font-style="normal" 
>
<path vector-effect="non-scaling-stroke" fill-rule="evenodd" d="M457,23 L461,23 L461,27 L457,27 L457,23"/>
</g>

<g fill="#000080" fill-opacity="1" stroke="none" transform="matrix(1,0,0,1,0,0)"
font-family="Helvetica" font-size="16" font-weight="400" font-style="normal" 
>
<path vector-effect="non-scaling-stroke" fill-rule="evenodd" d="M517,23 L521,23 L521,27 L517,27 L517,23"/>
</g>

<g fill="#000080" fill-opacity="1" stroke="none" transform="matrix(1,0,0,1,0,0)"
font-family="Helvetica" font-size="16" font-weight="400" font-style="normal" 
>
<path vector-effect="non-scaling-stroke" fill-rule="evenodd" d="M597,23 L601,23 L601,27 L597,27 L597,23"/>
</g>

<g fill="#000080" fill-opacity="1" stroke="none" transform="matrix(1,0,0,1,0,0)"
font-family="Helvetica" font-size="16" font-weight="400" font-style="normal" 
>
<path vector-effect="non-scaling-stroke" fill-rule="evenodd" d="M657,23 L661,23 L661,27 L657,27 L657,23"/>
</g>

<g fill="#000080" fill-opacity="1" stroke="#000080" stroke-opacity="1" stroke-width="1" stroke-linecap="square" stroke-linejoin="bevel" transform="matrix(1,0,0,1,0,0)"
font-family="Helvetica" font-size="16" font-weight="400" font-style="normal" 
>
<path vector-effect="none" fill-rule="evenodd" d="M142,25 C142,26.6569 140.657,28 139,28 C137.343,28 136,26.6569 136,25 C136,23.3431 137.343,22 139,22 C140.657,22 142,23.3431 142,25 "/>
</g>

<g fill="#000080" fill-opacity="1" stroke="#000080" stroke-opacity="1" stroke-width="1" stroke-linecap="square" stroke-linejoin="bevel" transform="matrix(1,0,0,1,0,0)"
font-family="Helvetica" font-size="16" font-weight="400" font-style="normal" 
>
<path vector-effect="none" fill-rule="evenodd" d="M422,25 C422,26.6569 420.657,28 419,28 C417.343,28 416,26.6569 416,25 C416,23.3431 417.343,22 419,22 C420.657,22 422,23.3431 422,25 "/>
</g>

<g fill="#000080" fill-opacity="1" stroke="#000080" stroke-opacity="1" stroke-width="1" stroke-linecap="square" stroke-linejoin="bevel" transform="matrix(1,0,0,1,0,0)"
font-family="Helvetica" font-size="16" font-weight="400" font-style="normal" 
>
<path vector-effect="none" fill-rule="evenodd" d="M562,25 C562,26.6569 560.657,28 559,28 C557.343,28 556,26.6569 556,25 C556,23.3431 557.343,22 559,22 C560.657,22 562,23.3431 562,25 "/>
</g>

<g fill="#000080" fill-opacity="1" stroke="#000080" stroke-opacity="1" stroke-width="1" stroke-linecap="square" stroke-linejoin="bevel" transform="matrix(1,0,0,1,0,0)"
font-family="Helvetica" font-size="16" font-weight="400" font-style="normal" 
>
<path vector-effect="none" fill-rule="evenodd" d="M702,25 C702,26.6569 700.657,28 699,28 C697.343,28 696,26.6569 696,25 C696,23.3431 697.343,22 699,22 C700.657,22 702,23.3431 702,25 "/>
</g>

<g fill="#000080" fill-opacity="1" stroke="#000080" stroke-opacity="1" stroke-width="1" stroke-linecap="square" stroke-linejoin="bevel" transform="matrix(1,0,0,1,0,0)"
font-family="Helvetica" font-size="16" font-weight="400" font-style="normal" 
>
<path vector-effect="none" fill-rule="evenodd" d="M282,25 C282,26.6569 280.657,28 279,28 C277.343,28 276,26.6569 276,25 C276,23.3431 277.343,22 279,22 C280.657,22 282,23.3431 282,25 "/>
</g>

<g fill="none" stroke="#000080" stroke-opacity="1" stroke-width="1" stroke-linecap="square" stroke-linejoin="bevel" transform="matrix(1,0,0,1,0,0)"
font-family="Helvetica" font-size="16" font-weight="400" font-style="normal" 
>
</g>

<g fill="none" stroke="#000000" stroke-opacity="1" stroke-width="1" stroke-linecap="square" stroke-linejoin="bevel" transform="matrix(1,0,0,1,369,215)"
font-family="Helvetica" font-size="16" font-weight="400" font-style="normal" 
>
<text fill="#000000" fill-opacity="1" stroke="none" xml:space="preserve" x="0" y="16" font-family="Helvetica" font-size="16" font-weight="400" font-style="normal" 
 >Chebyshev low-pass filter</text>
<text fill="#000000" fill-opacity="1" stroke="none" xml:space="preserve" x="0" y="37" font-family="Helvetica" font-size="16" font-weight="400" font-style="normal" 
 >288MHz cutoff, PI-type,</text>
<text fill="#000000" fill-opacity="1" stroke="none" xml:space="preserve" x="0" y="58" font-family="Helvetica" font-size="16" font-weight="400" font-style="normal" 
 >impedance matching 50 Ohm</text>
</g>

<g fill="none" stroke="#000080" stroke-opacity="1" stroke-width="1" stroke-linecap="square" stroke-linejoin="bevel" transform="matrix(1,0,0,1,0,0)"
font-family="Helvetica" font-size="16" font-weight="400" font-style="normal" 
>
</g>
</g>
</svg>
