<?xml version="1.0" encoding="UTF-8" standalone="no"?>
<svg width="266.171mm" height="96.8375mm"
 xmlns="http://www.w3.org/2000/svg" xmlns:xlink="http://www.w3.org/1999/xlink"  version="1.2" baseProfile="tiny">
<title>Qt Svg Document</title>
<desc>Generated with Qt</desc>
<defs>
</defs>
<g fill="none" stroke="black" stroke-width="1" fill-rule="evenodd" stroke-linecap="square" stroke-linejoin="bevel" >

<g fill="#ffffff" fill-opacity="1" stroke="none" transform="matrix(1,0,0,1,0,0)"
font-family="Helvetica" font-size="16" font-weight="400" font-style="normal" 
>
<path vector-effect="non-scaling-stroke" fill-rule="evenodd" d="M0,0 L1006,0 L1006,366 L0,366 L0,0"/>
</g>

<g fill="none" stroke="#808080" stroke-opacity="1" stroke-width="1" stroke-linecap="square" stroke-linejoin="bevel" transform="matrix(1,0,0,1,0,0)"
font-family="Helvetica" font-size="16" font-weight="400" font-style="normal" 
>
<polyline fill="none" vector-effect="non-scaling-stroke" points="18,130 18,86 " />
<polyline fill="none" vector-effect="non-scaling-stroke" points="40,130 40,86 " />
<polyline fill="none" vector-effect="non-scaling-stroke" points="18,130 40,130 " />
<polyline fill="none" vector-effect="non-scaling-stroke" points="18,86 40,86 " />
</g>

<g fill="none" stroke="#000080" stroke-opacity="1" stroke-width="2" stroke-linecap="square" stroke-linejoin="bevel" transform="matrix(1,0,0,1,0,0)"
font-family="Helvetica" font-size="16" font-weight="400" font-style="normal" 
>
<polyline fill="none" vector-effect="none" points="29,138 29,127 " />
<polyline fill="none" vector-effect="none" points="29,78 29,89 " />
<polyline fill="none" vector-effect="none" points="29,109 29,105 " />
<polyline fill="none" vector-effect="none" points="24,105 24,89 " />
<polyline fill="none" vector-effect="none" points="34,105 34,89 " />
<polyline fill="none" vector-effect="none" points="24,105 34,105 " />
<polyline fill="none" vector-effect="none" points="24,89 34,89 " />
</g>

<g fill="none" stroke="#ff0000" stroke-opacity="1" stroke-width="1" stroke-linecap="square" stroke-linejoin="bevel" transform="matrix(1,0,0,1,0,0)"
font-family="Helvetica" font-size="16" font-weight="400" font-style="normal" 
>
<polyline fill="none" vector-effect="none" points="34,83 40,83 " />
<polyline fill="none" vector-effect="none" points="37,80 37,86 " />
</g>

<g fill="none" stroke="#000000" stroke-opacity="1" stroke-width="1" stroke-linecap="square" stroke-linejoin="bevel" transform="matrix(1,0,0,1,0,0)"
font-family="Helvetica" font-size="16" font-weight="400" font-style="normal" 
>
<polyline fill="none" vector-effect="none" points="34,133 40,133 " />
</g>

<g fill="none" stroke="#000080" stroke-opacity="1" stroke-width="2" stroke-linecap="square" stroke-linejoin="bevel" transform="matrix(1,0,0,1,0,0)"
font-family="Helvetica" font-size="16" font-weight="400" font-style="normal" 
>
<path vector-effect="none" fill-rule="evenodd" d="M29.5,109 C24.2533,109 20,113.253 20,118.5 C20,123.747 24.2533,128 29.5,128 C34.7467,128 39,123.747 39,118.5 C39,113.253 34.7467,109 29.5,109 "/>
<path vector-effect="none" fill-rule="evenodd" d="M30,118.5 C30,116.567 28.433,115 26.5,115 C24.567,115 23,116.567 23,118.5 "/>
<path vector-effect="none" fill-rule="evenodd" d="M29,118.5 C29,120.433 30.567,122 32.5,122 C34.433,122 36,120.433 36,118.5 "/>
</g>

<g fill="none" stroke="#000080" stroke-opacity="1" stroke-width="2" stroke-linecap="square" stroke-linejoin="bevel" transform="matrix(1,0,0,1,0,0)"
font-family="Helvetica" font-size="16" font-weight="400" font-style="normal" 
>
</g>

<g fill="none" stroke="#000000" stroke-opacity="1" stroke-width="1" stroke-linecap="square" stroke-linejoin="bevel" transform="matrix(1,0,0,1,0,0)"
font-family="Helvetica" font-size="16" font-weight="400" font-style="normal" 
>
<text fill="#000000" fill-opacity="1" stroke="none" xml:space="preserve" x="47" y="98" font-family="Helvetica" font-size="16" font-weight="400" font-style="normal" 
 >P1</text>
<text fill="#000000" fill-opacity="1" stroke="none" xml:space="preserve" x="47" y="118" font-family="Helvetica" font-size="16" font-weight="400" font-style="normal" 
 >Num=1</text>
<text fill="#000000" fill-opacity="1" stroke="none" xml:space="preserve" x="47" y="138" font-family="Helvetica" font-size="16" font-weight="400" font-style="normal" 
 >Z=50 Ohm</text>
</g>

<g fill="none" stroke="#000080" stroke-opacity="1" stroke-width="2" stroke-linecap="square" stroke-linejoin="bevel" transform="matrix(1,0,0,1,0,0)"
font-family="Helvetica" font-size="16" font-weight="400" font-style="normal" 
>
<polyline fill="none" vector-effect="none" points="29,138 29,148 " />
</g>

<g fill="none" stroke="#000080" stroke-opacity="1" stroke-width="3" stroke-linecap="square" stroke-linejoin="bevel" transform="matrix(1,0,0,1,0,0)"
font-family="Helvetica" font-size="16" font-weight="400" font-style="normal" 
>
<polyline fill="none" vector-effect="none" points="18,148 40,148 " />
<polyline fill="none" vector-effect="none" points="22,154 36,154 " />
<polyline fill="none" vector-effect="none" points="26,160 32,160 " />
</g>

<g fill="none" stroke="#000080" stroke-opacity="1" stroke-width="3" stroke-linecap="square" stroke-linejoin="bevel" transform="matrix(1,0,0,1,0,0)"
font-family="Helvetica" font-size="16" font-weight="400" font-style="normal" 
>
</g>

<g fill="none" stroke="#000080" stroke-opacity="1" stroke-width="2" stroke-linecap="square" stroke-linejoin="bevel" transform="matrix(1,0,0,1,0,0)"
font-family="Helvetica" font-size="16" font-weight="400" font-style="normal" 
>
<polyline fill="none" vector-effect="none" points="139,138 139,148 " />
</g>

<g fill="none" stroke="#000080" stroke-opacity="1" stroke-width="3" stroke-linecap="square" stroke-linejoin="bevel" transform="matrix(1,0,0,1,0,0)"
font-family="Helvetica" font-size="16" font-weight="400" font-style="normal" 
>
<polyline fill="none" vector-effect="none" points="128,148 150,148 " />
<polyline fill="none" vector-effect="none" points="132,154 146,154 " />
<polyline fill="none" vector-effect="none" points="136,160 142,160 " />
</g>

<g fill="none" stroke="#000080" stroke-opacity="1" stroke-width="3" stroke-linecap="square" stroke-linejoin="bevel" transform="matrix(1,0,0,1,0,0)"
font-family="Helvetica" font-size="16" font-weight="400" font-style="normal" 
>
</g>

<g fill="none" stroke="#000080" stroke-opacity="1" stroke-width="2" stroke-linecap="square" stroke-linejoin="bevel" transform="matrix(1,0,0,1,0,0)"
font-family="Helvetica" font-size="16" font-weight="400" font-style="normal" 
>
<polyline fill="none" vector-effect="none" points="279,138 279,148 " />
</g>

<g fill="none" stroke="#000080" stroke-opacity="1" stroke-width="3" stroke-linecap="square" stroke-linejoin="bevel" transform="matrix(1,0,0,1,0,0)"
font-family="Helvetica" font-size="16" font-weight="400" font-style="normal" 
>
<polyline fill="none" vector-effect="none" points="268,148 290,148 " />
<polyline fill="none" vector-effect="none" points="272,154 286,154 " />
<polyline fill="none" vector-effect="none" points="276,160 282,160 " />
</g>

<g fill="none" stroke="#000080" stroke-opacity="1" stroke-width="3" stroke-linecap="square" stroke-linejoin="bevel" transform="matrix(1,0,0,1,0,0)"
font-family="Helvetica" font-size="16" font-weight="400" font-style="normal" 
>
</g>

<g fill="none" stroke="#000080" stroke-opacity="1" stroke-width="2" stroke-linecap="square" stroke-linejoin="bevel" transform="matrix(1,0,0,1,0,0)"
font-family="Helvetica" font-size="16" font-weight="400" font-style="normal" 
>
<polyline fill="none" vector-effect="none" points="419,138 419,148 " />
</g>

<g fill="none" stroke="#000080" stroke-opacity="1" stroke-width="3" stroke-linecap="square" stroke-linejoin="bevel" transform="matrix(1,0,0,1,0,0)"
font-family="Helvetica" font-size="16" font-weight="400" font-style="normal" 
>
<polyline fill="none" vector-effect="none" points="408,148 430,148 " />
<polyline fill="none" vector-effect="none" points="412,154 426,154 " />
<polyline fill="none" vector-effect="none" points="416,160 422,160 " />
</g>

<g fill="none" stroke="#000080" stroke-opacity="1" stroke-width="3" stroke-linecap="square" stroke-linejoin="bevel" transform="matrix(1,0,0,1,0,0)"
font-family="Helvetica" font-size="16" font-weight="400" font-style="normal" 
>
</g>

<g fill="none" stroke="#000080" stroke-opacity="1" stroke-width="2" stroke-linecap="square" stroke-linejoin="bevel" transform="matrix(1,0,0,1,0,0)"
font-family="Helvetica" font-size="16" font-weight="400" font-style="normal" 
>
<polyline fill="none" vector-effect="none" points="559,138 559,148 " />
</g>

<g fill="none" stroke="#000080" stroke-opacity="1" stroke-width="3" stroke-linecap="square" stroke-linejoin="bevel" transform="matrix(1,0,0,1,0,0)"
font-family="Helvetica" font-size="16" font-weight="400" font-style="normal" 
>
<polyline fill="none" vector-effect="none" points="548,148 570,148 " />
<polyline fill="none" vector-effect="none" points="552,154 566,154 " />
<polyline fill="none" vector-effect="none" points="556,160 562,160 " />
</g>

<g fill="none" stroke="#000080" stroke-opacity="1" stroke-width="3" stroke-linecap="square" stroke-linejoin="bevel" transform="matrix(1,0,0,1,0,0)"
font-family="Helvetica" font-size="16" font-weight="400" font-style="normal" 
>
</g>

<g fill="none" stroke="#000080" stroke-opacity="1" stroke-width="2" stroke-linecap="square" stroke-linejoin="bevel" transform="matrix(1,0,0,1,0,0)"
font-family="Helvetica" font-size="16" font-weight="400" font-style="normal" 
>
<polyline fill="none" vector-effect="none" points="699,138 699,148 " />
</g>

<g fill="none" stroke="#000080" stroke-opacity="1" stroke-width="3" stroke-linecap="square" stroke-linejoin="bevel" transform="matrix(1,0,0,1,0,0)"
font-family="Helvetica" font-size="16" font-weight="400" font-style="normal" 
>
<polyline fill="none" vector-effect="none" points="688,148 710,148 " />
<polyline fill="none" vector-effect="none" points="692,154 706,154 " />
<polyline fill="none" vector-effect="none" points="696,160 702,160 " />
</g>

<g fill="none" stroke="#000080" stroke-opacity="1" stroke-width="3" stroke-linecap="square" stroke-linejoin="bevel" transform="matrix(1,0,0,1,0,0)"
font-family="Helvetica" font-size="16" font-weight="400" font-style="normal" 
>
</g>

<g fill="none" stroke="#808080" stroke-opacity="1" stroke-width="1" stroke-linecap="square" stroke-linejoin="bevel" transform="matrix(1,0,0,1,0,0)"
font-family="Helvetica" font-size="16" font-weight="400" font-style="normal" 
>
<polyline fill="none" vector-effect="non-scaling-stroke" points="798,130 798,86 " />
<polyline fill="none" vector-effect="non-scaling-stroke" points="820,130 820,86 " />
<polyline fill="none" vector-effect="non-scaling-stroke" points="798,130 820,130 " />
<polyline fill="none" vector-effect="non-scaling-stroke" points="798,86 820,86 " />
</g>

<g fill="none" stroke="#000080" stroke-opacity="1" stroke-width="2" stroke-linecap="square" stroke-linejoin="bevel" transform="matrix(1,0,0,1,0,0)"
font-family="Helvetica" font-size="16" font-weight="400" font-style="normal" 
>
<polyline fill="none" vector-effect="none" points="809,138 809,127 " />
<polyline fill="none" vector-effect="none" points="809,78 809,89 " />
<polyline fill="none" vector-effect="none" points="809,109 809,105 " />
<polyline fill="none" vector-effect="none" points="804,105 804,89 " />
<polyline fill="none" vector-effect="none" points="814,105 814,89 " />
<polyline fill="none" vector-effect="none" points="804,105 814,105 " />
<polyline fill="none" vector-effect="none" points="804,89 814,89 " />
</g>

<g fill="none" stroke="#ff0000" stroke-opacity="1" stroke-width="1" stroke-linecap="square" stroke-linejoin="bevel" transform="matrix(1,0,0,1,0,0)"
font-family="Helvetica" font-size="16" font-weight="400" font-style="normal" 
>
<polyline fill="none" vector-effect="none" points="814,83 820,83 " />
<polyline fill="none" vector-effect="none" points="817,80 817,86 " />
</g>

<g fill="none" stroke="#000000" stroke-opacity="1" stroke-width="1" stroke-linecap="square" stroke-linejoin="bevel" transform="matrix(1,0,0,1,0,0)"
font-family="Helvetica" font-size="16" font-weight="400" font-style="normal" 
>
<polyline fill="none" vector-effect="none" points="814,133 820,133 " />
</g>

<g fill="none" stroke="#000080" stroke-opacity="1" stroke-width="2" stroke-linecap="square" stroke-linejoin="bevel" transform="matrix(1,0,0,1,0,0)"
font-family="Helvetica" font-size="16" font-weight="400" font-style="normal" 
>
<path vector-effect="none" fill-rule="evenodd" d="M809.5,109 C804.253,109 800,113.253 800,118.5 C800,123.747 804.253,128 809.5,128 C814.747,128 819,123.747 819,118.5 C819,113.253 814.747,109 809.5,109 "/>
<path vector-effect="none" fill-rule="evenodd" d="M810,118.5 C810,116.567 808.433,115 806.5,115 C804.567,115 803,116.567 803,118.5 "/>
<path vector-effect="none" fill-rule="evenodd" d="M809,118.5 C809,120.433 810.567,122 812.5,122 C814.433,122 816,120.433 816,118.5 "/>
</g>

<g fill="none" stroke="#000080" stroke-opacity="1" stroke-width="2" stroke-linecap="square" stroke-linejoin="bevel" transform="matrix(1,0,0,1,0,0)"
font-family="Helvetica" font-size="16" font-weight="400" font-style="normal" 
>
</g>

<g fill="none" stroke="#000000" stroke-opacity="1" stroke-width="1" stroke-linecap="square" stroke-linejoin="bevel" transform="matrix(1,0,0,1,0,0)"
font-family="Helvetica" font-size="16" font-weight="400" font-style="normal" 
>
<text fill="#000000" fill-opacity="1" stroke="none" xml:space="preserve" x="827" y="98" font-family="Helvetica" font-size="16" font-weight="400" font-style="normal" 
 >P2</text>
<text fill="#000000" fill-opacity="1" stroke="none" xml:space="preserve" x="827" y="118" font-family="Helvetica" font-size="16" font-weight="400" font-style="normal" 
 >Num=2</text>
<text fill="#000000" fill-opacity="1" stroke="none" xml:space="preserve" x="827" y="138" font-family="Helvetica" font-size="16" font-weight="400" font-style="normal" 
 >Z=50 Ohm</text>
</g>

<g fill="none" stroke="#000080" stroke-opacity="1" stroke-width="2" stroke-linecap="square" stroke-linejoin="bevel" transform="matrix(1,0,0,1,0,0)"
font-family="Helvetica" font-size="16" font-weight="400" font-style="normal" 
>
<polyline fill="none" vector-effect="none" points="809,138 809,148 " />
</g>

<g fill="none" stroke="#000080" stroke-opacity="1" stroke-width="3" stroke-linecap="square" stroke-linejoin="bevel" transform="matrix(1,0,0,1,0,0)"
font-family="Helvetica" font-size="16" font-weight="400" font-style="normal" 
>
<polyline fill="none" vector-effect="none" points="798,148 820,148 " />
<polyline fill="none" vector-effect="none" points="802,154 816,154 " />
<polyline fill="none" vector-effect="none" points="806,160 812,160 " />
</g>

<g fill="none" stroke="#000080" stroke-opacity="1" stroke-width="3" stroke-linecap="square" stroke-linejoin="bevel" transform="matrix(1,0,0,1,0,0)"
font-family="Helvetica" font-size="16" font-weight="400" font-style="normal" 
>
</g>

<g fill="none" stroke="#000080" stroke-opacity="1" stroke-width="2" stroke-linecap="square" stroke-linejoin="bevel" transform="matrix(1,0,0,1,0,0)"
font-family="Helvetica" font-size="16" font-weight="400" font-style="normal" 
>
<polyline fill="none" vector-effect="none" points="205,210 205,226 " />
<polyline fill="none" vector-effect="none" points="205,226 256,226 " />
</g>

<g fill="none" stroke="#000000" stroke-opacity="1" stroke-width="1" stroke-linecap="square" stroke-linejoin="bevel" transform="matrix(1,0,0,1,209,207)"
font-family="Helvetica" font-size="16" font-weight="100" font-style="normal" 
>
<text fill="#000000" fill-opacity="1" stroke="none" xml:space="preserve" x="0" y="16" font-family="Helvetica" font-size="16" font-weight="100" font-style="normal" 
 >Equation</text>
</g>

<g fill="none" stroke="#000080" stroke-opacity="1" stroke-width="2" stroke-linecap="square" stroke-linejoin="bevel" transform="matrix(1,0,0,1,0,0)"
font-family="Helvetica" font-size="16" font-weight="400" font-style="normal" 
>
</g>

<g fill="none" stroke="#000000" stroke-opacity="1" stroke-width="1" stroke-linecap="square" stroke-linejoin="bevel" transform="matrix(1,0,0,1,0,0)"
font-family="Helvetica" font-size="16" font-weight="400" font-style="normal" 
>
<text fill="#000000" fill-opacity="1" stroke="none" xml:space="preserve" x="201" y="249" font-family="Helvetica" font-size="16" font-weight="400" font-style="normal" 
 >Eqn1</text>
<text fill="#000000" fill-opacity="1" stroke="none" xml:space="preserve" x="201" y="269" font-family="Helvetica" font-size="16" font-weight="400" font-style="normal" 
 >dBS21=dB(S[2,1])</text>
<text fill="#000000" fill-opacity="1" stroke="none" xml:space="preserve" x="201" y="289" font-family="Helvetica" font-size="16" font-weight="400" font-style="normal" 
 >dBS11=dB(S[1,1])</text>
</g>

<g fill="none" stroke="#000080" stroke-opacity="1" stroke-width="4" stroke-linecap="square" stroke-linejoin="bevel" transform="matrix(1,0,0,1,0,0)"
font-family="Helvetica" font-size="16" font-weight="400" font-style="normal" 
>
<polyline fill="none" vector-effect="none" points="205,17 205,39 " />
<polyline fill="none" vector-effect="none" points="213,17 213,39 " />
</g>

<g fill="none" stroke="#000080" stroke-opacity="1" stroke-width="2" stroke-linecap="square" stroke-linejoin="bevel" transform="matrix(1,0,0,1,0,0)"
font-family="Helvetica" font-size="16" font-weight="400" font-style="normal" 
>
<polyline fill="none" vector-effect="none" points="179,28 205,28 " />
<polyline fill="none" vector-effect="none" points="213,28 239,28 " />
</g>

<g fill="none" stroke="#000080" stroke-opacity="1" stroke-width="2" stroke-linecap="square" stroke-linejoin="bevel" transform="matrix(1,0,0,1,0,0)"
font-family="Helvetica" font-size="16" font-weight="400" font-style="normal" 
>
</g>

<g fill="none" stroke="#000000" stroke-opacity="1" stroke-width="1" stroke-linecap="square" stroke-linejoin="bevel" transform="matrix(1,0,0,1,0,0)"
font-family="Helvetica" font-size="16" font-weight="400" font-style="normal" 
>
<text fill="#000000" fill-opacity="1" stroke="none" xml:space="preserve" x="182" y="54" font-family="Helvetica" font-size="16" font-weight="400" font-style="normal" 
 >C1</text>
<text fill="#000000" fill-opacity="1" stroke="none" xml:space="preserve" x="182" y="74" font-family="Helvetica" font-size="16" font-weight="400" font-style="normal" 
 >C=9.4pF</text>
</g>

<g fill="none" stroke="#000080" stroke-opacity="1" stroke-width="4" stroke-linecap="square" stroke-linejoin="bevel" transform="matrix(1,0,0,1,0,0)"
font-family="Helvetica" font-size="16" font-weight="400" font-style="normal" 
>
<polyline fill="none" vector-effect="none" points="345,17 345,39 " />
<polyline fill="none" vector-effect="none" points="353,17 353,39 " />
</g>

<g fill="none" stroke="#000080" stroke-opacity="1" stroke-width="2" stroke-linecap="square" stroke-linejoin="bevel" transform="matrix(1,0,0,1,0,0)"
font-family="Helvetica" font-size="16" font-weight="400" font-style="normal" 
>
<polyline fill="none" vector-effect="none" points="319,28 345,28 " />
<polyline fill="none" vector-effect="none" points="353,28 379,28 " />
</g>

<g fill="none" stroke="#000080" stroke-opacity="1" stroke-width="2" stroke-linecap="square" stroke-linejoin="bevel" transform="matrix(1,0,0,1,0,0)"
font-family="Helvetica" font-size="16" font-weight="400" font-style="normal" 
>
</g>

<g fill="none" stroke="#000000" stroke-opacity="1" stroke-width="1" stroke-linecap="square" stroke-linejoin="bevel" transform="matrix(1,0,0,1,0,0)"
font-family="Helvetica" font-size="16" font-weight="400" font-style="normal" 
>
<text fill="#000000" fill-opacity="1" stroke="none" xml:space="preserve" x="322" y="54" font-family="Helvetica" font-size="16" font-weight="400" font-style="normal" 
 >C2</text>
<text fill="#000000" fill-opacity="1" stroke="none" xml:space="preserve" x="322" y="74" font-family="Helvetica" font-size="16" font-weight="400" font-style="normal" 
 >C=9.4pF</text>
</g>

<g fill="none" stroke="#000080" stroke-opacity="1" stroke-width="4" stroke-linecap="square" stroke-linejoin="bevel" transform="matrix(1,0,0,1,0,0)"
font-family="Helvetica" font-size="16" font-weight="400" font-style="normal" 
>
<polyline fill="none" vector-effect="none" points="485,17 485,39 " />
<polyline fill="none" vector-effect="none" points="493,17 493,39 " />
</g>

<g fill="none" stroke="#000080" stroke-opacity="1" stroke-width="2" stroke-linecap="square" stroke-linejoin="bevel" transform="matrix(1,0,0,1,0,0)"
font-family="Helvetica" font-size="16" font-weight="400" font-style="normal" 
>
<polyline fill="none" vector-effect="none" points="459,28 485,28 " />
<polyline fill="none" vector-effect="none" points="493,28 519,28 " />
</g>

<g fill="none" stroke="#000080" stroke-opacity="1" stroke-width="2" stroke-linecap="square" stroke-linejoin="bevel" transform="matrix(1,0,0,1,0,0)"
font-family="Helvetica" font-size="16" font-weight="400" font-style="normal" 
>
</g>

<g fill="none" stroke="#000000" stroke-opacity="1" stroke-width="1" stroke-linecap="square" stroke-linejoin="bevel" transform="matrix(1,0,0,1,0,0)"
font-family="Helvetica" font-size="16" font-weight="400" font-style="normal" 
>
<text fill="#000000" fill-opacity="1" stroke="none" xml:space="preserve" x="462" y="54" font-family="Helvetica" font-size="16" font-weight="400" font-style="normal" 
 >C3</text>
<text fill="#000000" fill-opacity="1" stroke="none" xml:space="preserve" x="462" y="74" font-family="Helvetica" font-size="16" font-weight="400" font-style="normal" 
 >C=9.4pF</text>
</g>

<g fill="none" stroke="#000080" stroke-opacity="1" stroke-width="4" stroke-linecap="square" stroke-linejoin="bevel" transform="matrix(1,0,0,1,0,0)"
font-family="Helvetica" font-size="16" font-weight="400" font-style="normal" 
>
<polyline fill="none" vector-effect="none" points="625,17 625,39 " />
<polyline fill="none" vector-effect="none" points="633,17 633,39 " />
</g>

<g fill="none" stroke="#000080" stroke-opacity="1" stroke-width="2" stroke-linecap="square" stroke-linejoin="bevel" transform="matrix(1,0,0,1,0,0)"
font-family="Helvetica" font-size="16" font-weight="400" font-style="normal" 
>
<polyline fill="none" vector-effect="none" points="599,28 625,28 " />
<polyline fill="none" vector-effect="none" points="633,28 659,28 " />
</g>

<g fill="none" stroke="#000080" stroke-opacity="1" stroke-width="2" stroke-linecap="square" stroke-linejoin="bevel" transform="matrix(1,0,0,1,0,0)"
font-family="Helvetica" font-size="16" font-weight="400" font-style="normal" 
>
</g>

<g fill="none" stroke="#000000" stroke-opacity="1" stroke-width="1" stroke-linecap="square" stroke-linejoin="bevel" transform="matrix(1,0,0,1,0,0)"
font-family="Helvetica" font-size="16" font-weight="400" font-style="normal" 
>
<text fill="#000000" fill-opacity="1" stroke="none" xml:space="preserve" x="602" y="54" font-family="Helvetica" font-size="16" font-weight="400" font-style="normal" 
 >C4</text>
<text fill="#000000" fill-opacity="1" stroke="none" xml:space="preserve" x="602" y="74" font-family="Helvetica" font-size="16" font-weight="400" font-style="normal" 
 >C=9.4pF</text>
</g>

<g fill="none" stroke="#000080" stroke-opacity="1" stroke-width="2" stroke-linecap="square" stroke-linejoin="bevel" transform="matrix(1,0,0,1,0,0)"
font-family="Helvetica" font-size="16" font-weight="400" font-style="normal" 
>
<polyline fill="none" vector-effect="none" points="139,138 139,126 " />
<polyline fill="none" vector-effect="none" points="139,90 139,78 " />
<path vector-effect="none" fill-rule="evenodd" d="M139.5,114 C135.91,114 133,116.91 133,120.5 C133,124.09 135.91,127 139.5,127 "/>
<path vector-effect="none" fill-rule="evenodd" d="M139.5,102 C135.91,102 133,104.91 133,108.5 C133,112.09 135.91,115 139.5,115 "/>
<path vector-effect="none" fill-rule="evenodd" d="M139.5,90 C135.91,90 133,92.9101 133,96.5 C133,100.09 135.91,103 139.5,103 "/>
</g>

<g fill="none" stroke="#000080" stroke-opacity="1" stroke-width="2" stroke-linecap="square" stroke-linejoin="bevel" transform="matrix(1,0,0,1,0,0)"
font-family="Helvetica" font-size="16" font-weight="400" font-style="normal" 
>
</g>

<g fill="none" stroke="#000000" stroke-opacity="1" stroke-width="1" stroke-linecap="square" stroke-linejoin="bevel" transform="matrix(1,0,0,1,0,0)"
font-family="Helvetica" font-size="16" font-weight="400" font-style="normal" 
>
<text fill="#000000" fill-opacity="1" stroke="none" xml:space="preserve" x="156" y="98" font-family="Helvetica" font-size="16" font-weight="400" font-style="normal" 
 >L1</text>
<text fill="#000000" fill-opacity="1" stroke="none" xml:space="preserve" x="156" y="118" font-family="Helvetica" font-size="16" font-weight="400" font-style="normal" 
 >L=15.16nH</text>
</g>

<g fill="none" stroke="#000080" stroke-opacity="1" stroke-width="2" stroke-linecap="square" stroke-linejoin="bevel" transform="matrix(1,0,0,1,0,0)"
font-family="Helvetica" font-size="16" font-weight="400" font-style="normal" 
>
<polyline fill="none" vector-effect="none" points="699,138 699,126 " />
<polyline fill="none" vector-effect="none" points="699,90 699,78 " />
<path vector-effect="none" fill-rule="evenodd" d="M699.5,114 C695.91,114 693,116.91 693,120.5 C693,124.09 695.91,127 699.5,127 "/>
<path vector-effect="none" fill-rule="evenodd" d="M699.5,102 C695.91,102 693,104.91 693,108.5 C693,112.09 695.91,115 699.5,115 "/>
<path vector-effect="none" fill-rule="evenodd" d="M699.5,90 C695.91,90 693,92.9101 693,96.5 C693,100.09 695.91,103 699.5,103 "/>
</g>

<g fill="none" stroke="#000080" stroke-opacity="1" stroke-width="2" stroke-linecap="square" stroke-linejoin="bevel" transform="matrix(1,0,0,1,0,0)"
font-family="Helvetica" font-size="16" font-weight="400" font-style="normal" 
>
</g>

<g fill="none" stroke="#000000" stroke-opacity="1" stroke-width="1" stroke-linecap="square" stroke-linejoin="bevel" transform="matrix(1,0,0,1,0,0)"
font-family="Helvetica" font-size="16" font-weight="400" font-style="normal" 
>
<text fill="#000000" fill-opacity="1" stroke="none" xml:space="preserve" x="716" y="98" font-family="Helvetica" font-size="16" font-weight="400" font-style="normal" 
 >L5</text>
<text fill="#000000" fill-opacity="1" stroke="none" xml:space="preserve" x="716" y="118" font-family="Helvetica" font-size="16" font-weight="400" font-style="normal" 
 >L=15.16nH</text>
</g>

<g fill="none" stroke="#000080" stroke-opacity="1" stroke-width="2" stroke-linecap="square" stroke-linejoin="bevel" transform="matrix(1,0,0,1,0,0)"
font-family="Helvetica" font-size="16" font-weight="400" font-style="normal" 
>
<polyline fill="none" vector-effect="none" points="279,138 279,126 " />
<polyline fill="none" vector-effect="none" points="279,90 279,78 " />
<path vector-effect="none" fill-rule="evenodd" d="M279.5,114 C275.91,114 273,116.91 273,120.5 C273,124.09 275.91,127 279.5,127 "/>
<path vector-effect="none" fill-rule="evenodd" d="M279.5,102 C275.91,102 273,104.91 273,108.5 C273,112.09 275.91,115 279.5,115 "/>
<path vector-effect="none" fill-rule="evenodd" d="M279.5,90 C275.91,90 273,92.9101 273,96.5 C273,100.09 275.91,103 279.5,103 "/>
</g>

<g fill="none" stroke="#000080" stroke-opacity="1" stroke-width="2" stroke-linecap="square" stroke-linejoin="bevel" transform="matrix(1,0,0,1,0,0)"
font-family="Helvetica" font-size="16" font-weight="400" font-style="normal" 
>
</g>

<g fill="none" stroke="#000000" stroke-opacity="1" stroke-width="1" stroke-linecap="square" stroke-linejoin="bevel" transform="matrix(1,0,0,1,0,0)"
font-family="Helvetica" font-size="16" font-weight="400" font-style="normal" 
>
<text fill="#000000" fill-opacity="1" stroke="none" xml:space="preserve" x="296" y="98" font-family="Helvetica" font-size="16" font-weight="400" font-style="normal" 
 >L2</text>
<text fill="#000000" fill-opacity="1" stroke="none" xml:space="preserve" x="296" y="118" font-family="Helvetica" font-size="16" font-weight="400" font-style="normal" 
 >L=8.63nH</text>
</g>

<g fill="none" stroke="#000080" stroke-opacity="1" stroke-width="2" stroke-linecap="square" stroke-linejoin="bevel" transform="matrix(1,0,0,1,0,0)"
font-family="Helvetica" font-size="16" font-weight="400" font-style="normal" 
>
<polyline fill="none" vector-effect="none" points="419,138 419,126 " />
<polyline fill="none" vector-effect="none" points="419,90 419,78 " />
<path vector-effect="none" fill-rule="evenodd" d="M419.5,114 C415.91,114 413,116.91 413,120.5 C413,124.09 415.91,127 419.5,127 "/>
<path vector-effect="none" fill-rule="evenodd" d="M419.5,102 C415.91,102 413,104.91 413,108.5 C413,112.09 415.91,115 419.5,115 "/>
<path vector-effect="none" fill-rule="evenodd" d="M419.5,90 C415.91,90 413,92.9101 413,96.5 C413,100.09 415.91,103 419.5,103 "/>
</g>

<g fill="none" stroke="#000080" stroke-opacity="1" stroke-width="2" stroke-linecap="square" stroke-linejoin="bevel" transform="matrix(1,0,0,1,0,0)"
font-family="Helvetica" font-size="16" font-weight="400" font-style="normal" 
>
</g>

<g fill="none" stroke="#000000" stroke-opacity="1" stroke-width="1" stroke-linecap="square" stroke-linejoin="bevel" transform="matrix(1,0,0,1,0,0)"
font-family="Helvetica" font-size="16" font-weight="400" font-style="normal" 
>
<text fill="#000000" fill-opacity="1" stroke="none" xml:space="preserve" x="436" y="98" font-family="Helvetica" font-size="16" font-weight="400" font-style="normal" 
 >L3</text>
<text fill="#000000" fill-opacity="1" stroke="none" xml:space="preserve" x="436" y="118" font-family="Helvetica" font-size="16" font-weight="400" font-style="normal" 
 >L=8.63nH</text>
</g>

<g fill="none" stroke="#000080" stroke-opacity="1" stroke-width="2" stroke-linecap="square" stroke-linejoin="bevel" transform="matrix(1,0,0,1,0,0)"
font-family="Helvetica" font-size="16" font-weight="400" font-style="normal" 
>
<polyline fill="none" vector-effect="none" points="559,138 559,126 " />
<polyline fill="none" vector-effect="none" points="559,90 559,78 " />
<path vector-effect="none" fill-rule="evenodd" d="M559.5,114 C555.91,114 553,116.91 553,120.5 C553,124.09 555.91,127 559.5,127 "/>
<path vector-effect="none" fill-rule="evenodd" d="M559.5,102 C555.91,102 553,104.91 553,108.5 C553,112.09 555.91,115 559.5,115 "/>
<path vector-effect="none" fill-rule="evenodd" d="M559.5,90 C555.91,90 553,92.9101 553,96.5 C553,100.09 555.91,103 559.5,103 "/>
</g>

<g fill="none" stroke="#000080" stroke-opacity="1" stroke-width="2" stroke-linecap="square" stroke-linejoin="bevel" transform="matrix(1,0,0,1,0,0)"
font-family="Helvetica" font-size="16" font-weight="400" font-style="normal" 
>
</g>

<g fill="none" stroke="#000000" stroke-opacity="1" stroke-width="1" stroke-linecap="square" stroke-linejoin="bevel" transform="matrix(1,0,0,1,0,0)"
font-family="Helvetica" font-size="16" font-weight="400" font-style="normal" 
>
<text fill="#000000" fill-opacity="1" stroke="none" xml:space="preserve" x="576" y="98" font-family="Helvetica" font-size="16" font-weight="400" font-style="normal" 
 >L4</text>
<text fill="#000000" fill-opacity="1" stroke="none" xml:space="preserve" x="576" y="118" font-family="Helvetica" font-size="16" font-weight="400" font-style="normal" 
 >L=8.63nH</text>
</g>

<g fill="none" stroke="#000080" stroke-opacity="1" stroke-width="2" stroke-linecap="square" stroke-linejoin="bevel" transform="matrix(1,0,0,1,0,0)"
font-family="Helvetica" font-size="21.3333" font-weight="630" font-style="normal" 
>
<text fill="#000080" fill-opacity="1" stroke="none" xml:space="preserve" x="39" y="229" font-family="Helvetica" font-size="21.3333" font-weight="630" font-style="normal" 
 >S parameter</text>
<text fill="#000080" fill-opacity="1" stroke="none" xml:space="preserve" x="39" y="257" font-family="Helvetica" font-size="21.3333" font-weight="630" font-style="normal" 
 >simulation</text>
<path vector-effect="none" fill-rule="evenodd" d="M33,203 L164,203 L164,269 L33,269 L33,203"/>
<polyline fill="none" vector-effect="none" points="38,274 33,269 " />
<polyline fill="none" vector-effect="none" points="168,274 38,274 " />
<polyline fill="none" vector-effect="none" points="168,274 164,269 " />
<polyline fill="none" vector-effect="none" points="168,274 168,208 " />
<polyline fill="none" vector-effect="none" points="168,208 164,203 " />
</g>

<g fill="none" stroke="#000000" stroke-opacity="1" stroke-width="1" stroke-linecap="square" stroke-linejoin="bevel" transform="matrix(1,0,0,1,0,0)"
font-family="Helvetica" font-size="16" font-weight="400" font-style="normal" 
>
<text fill="#000000" fill-opacity="1" stroke="none" xml:space="preserve" x="39" y="295" font-family="Helvetica" font-size="16" font-weight="400" font-style="normal" 
 >SP1</text>
<text fill="#000000" fill-opacity="1" stroke="none" xml:space="preserve" x="39" y="315" font-family="Helvetica" font-size="16" font-weight="400" font-style="normal" 
 >Type=log</text>
<text fill="#000000" fill-opacity="1" stroke="none" xml:space="preserve" x="39" y="335" font-family="Helvetica" font-size="16" font-weight="400" font-style="normal" 
 >Start=28MHz</text>
<text fill="#000000" fill-opacity="1" stroke="none" xml:space="preserve" x="39" y="355" font-family="Helvetica" font-size="16" font-weight="400" font-style="normal" 
 >Stop=2.88GHz</text>
<text fill="#000000" fill-opacity="1" stroke="none" xml:space="preserve" x="39" y="375" font-family="Helvetica" font-size="16" font-weight="400" font-style="normal" 
 >Points=2013</text>
</g>

<g fill="none" stroke="#000080" stroke-opacity="1" stroke-width="2" stroke-linecap="square" stroke-linejoin="bevel" transform="matrix(1,0,0,1,0,0)"
font-family="Helvetica" font-size="16" font-weight="400" font-style="normal" 
>
<polyline fill="none" vector-effect="none" points="29,28 29,78 " />
<polyline fill="none" vector-effect="none" points="29,28 139,28 " />
<polyline fill="none" vector-effect="none" points="139,28 139,78 " />
<polyline fill="none" vector-effect="none" points="279,28 279,78 " />
<polyline fill="none" vector-effect="none" points="419,28 419,78 " />
<polyline fill="none" vector-effect="none" points="559,28 559,78 " />
<polyline fill="none" vector-effect="none" points="699,28 699,78 " />
<polyline fill="none" vector-effect="none" points="139,28 179,28 " />
<polyline fill="none" vector-effect="none" points="239,28 279,28 " />
<polyline fill="none" vector-effect="none" points="279,28 319,28 " />
<polyline fill="none" vector-effect="none" points="379,28 419,28 " />
<polyline fill="none" vector-effect="none" points="419,28 459,28 " />
<polyline fill="none" vector-effect="none" points="519,28 559,28 " />
<polyline fill="none" vector-effect="none" points="559,28 599,28 " />
<polyline fill="none" vector-effect="none" points="659,28 699,28 " />
<polyline fill="none" vector-effect="none" points="809,28 809,78 " />
<polyline fill="none" vector-effect="none" points="699,28 809,28 " />
</g>

<g fill="#000080" fill-opacity="1" stroke="none" transform="matrix(1,0,0,1,0,0)"
font-family="Helvetica" font-size="16" font-weight="400" font-style="normal" 
>
<path vector-effect="non-scaling-stroke" fill-rule="evenodd" d="M27,76 L31,76 L31,80 L27,80 L27,76"/>
</g>

<g fill="#000080" fill-opacity="1" stroke="none" transform="matrix(1,0,0,1,0,0)"
font-family="Helvetica" font-size="16" font-weight="400" font-style="normal" 
>
<path vector-effect="non-scaling-stroke" fill-rule="evenodd" d="M27,136 L31,136 L31,140 L27,140 L27,136"/>
</g>

<g fill="#000080" fill-opacity="1" stroke="none" transform="matrix(1,0,0,1,0,0)"
font-family="Helvetica" font-size="16" font-weight="400" font-style="normal" 
>
<path vector-effect="non-scaling-stroke" fill-rule="evenodd" d="M137,136 L141,136 L141,140 L137,140 L137,136"/>
</g>

<g fill="#000080" fill-opacity="1" stroke="none" transform="matrix(1,0,0,1,0,0)"
font-family="Helvetica" font-size="16" font-weight="400" font-style="normal" 
>
<path vector-effect="non-scaling-stroke" fill-rule="evenodd" d="M277,136 L281,136 L281,140 L277,140 L277,136"/>
</g>

<g fill="#000080" fill-opacity="1" stroke="none" transform="matrix(1,0,0,1,0,0)"
font-family="Helvetica" font-size="16" font-weight="400" font-style="normal" 
>
<path vector-effect="non-scaling-stroke" fill-rule="evenodd" d="M417,136 L421,136 L421,140 L417,140 L417,136"/>
</g>

<g fill="#000080" fill-opacity="1" stroke="none" transform="matrix(1,0,0,1,0,0)"
font-family="Helvetica" font-size="16" font-weight="400" font-style="normal" 
>
<path vector-effect="non-scaling-stroke" fill-rule="evenodd" d="M557,136 L561,136 L561,140 L557,140 L557,136"/>
</g>

<g fill="#000080" fill-opacity="1" stroke="none" transform="matrix(1,0,0,1,0,0)"
font-family="Helvetica" font-size="16" font-weight="400" font-style="normal" 
>
<path vector-effect="non-scaling-stroke" fill-rule="evenodd" d="M697,136 L701,136 L701,140 L697,140 L697,136"/>
</g>

<g fill="#000080" fill-opacity="1" stroke="none" transform="matrix(1,0,0,1,0,0)"
font-family="Helvetica" font-size="16" font-weight="400" font-style="normal" 
>
<path vector-effect="non-scaling-stroke" fill-rule="evenodd" d="M807,76 L811,76 L811,80 L807,80 L807,76"/>
</g>

<g fill="#000080" fill-opacity="1" stroke="none" transform="matrix(1,0,0,1,0,0)"
font-family="Helvetica" font-size="16" font-weight="400" font-style="normal" 
>
<path vector-effect="non-scaling-stroke" fill-rule="evenodd" d="M807,136 L811,136 L811,140 L807,140 L807,136"/>
</g>

<g fill="#000080" fill-opacity="1" stroke="none" transform="matrix(1,0,0,1,0,0)"
font-family="Helvetica" font-size="16" font-weight="400" font-style="normal" 
>
<path vector-effect="non-scaling-stroke" fill-rule="evenodd" d="M177,26 L181,26 L181,30 L177,30 L177,26"/>
</g>

<g fill="#000080" fill-opacity="1" stroke="none" transform="matrix(1,0,0,1,0,0)"
font-family="Helvetica" font-size="16" font-weight="400" font-style="normal" 
>
<path vector-effect="non-scaling-stroke" fill-rule="evenodd" d="M237,26 L241,26 L241,30 L237,30 L237,26"/>
</g>

<g fill="#000080" fill-opacity="1" stroke="none" transform="matrix(1,0,0,1,0,0)"
font-family="Helvetica" font-size="16" font-weight="400" font-style="normal" 
>
<path vector-effect="non-scaling-stroke" fill-rule="evenodd" d="M317,26 L321,26 L321,30 L317,30 L317,26"/>
</g>

<g fill="#000080" fill-opacity="1" stroke="none" transform="matrix(1,0,0,1,0,0)"
font-family="Helvetica" font-size="16" font-weight="400" font-style="normal" 
>
<path vector-effect="non-scaling-stroke" fill-rule="evenodd" d="M377,26 L381,26 L381,30 L377,30 L377,26"/>
</g>

<g fill="#000080" fill-opacity="1" stroke="none" transform="matrix(1,0,0,1,0,0)"
font-family="Helvetica" font-size="16" font-weight="400" font-style="normal" 
>
<path vector-effect="non-scaling-stroke" fill-rule="evenodd" d="M457,26 L461,26 L461,30 L457,30 L457,26"/>
</g>

<g fill="#000080" fill-opacity="1" stroke="none" transform="matrix(1,0,0,1,0,0)"
font-family="Helvetica" font-size="16" font-weight="400" font-style="normal" 
>
<path vector-effect="non-scaling-stroke" fill-rule="evenodd" d="M517,26 L521,26 L521,30 L517,30 L517,26"/>
</g>

<g fill="#000080" fill-opacity="1" stroke="none" transform="matrix(1,0,0,1,0,0)"
font-family="Helvetica" font-size="16" font-weight="400" font-style="normal" 
>
<path vector-effect="non-scaling-stroke" fill-rule="evenodd" d="M597,26 L601,26 L601,30 L597,30 L597,26"/>
</g>

<g fill="#000080" fill-opacity="1" stroke="none" transform="matrix(1,0,0,1,0,0)"
font-family="Helvetica" font-size="16" font-weight="400" font-style="normal" 
>
<path vector-effect="non-scaling-stroke" fill-rule="evenodd" d="M657,26 L661,26 L661,30 L657,30 L657,26"/>
</g>

<g fill="#000080" fill-opacity="1" stroke="none" transform="matrix(1,0,0,1,0,0)"
font-family="Helvetica" font-size="16" font-weight="400" font-style="normal" 
>
<path vector-effect="non-scaling-stroke" fill-rule="evenodd" d="M137,76 L141,76 L141,80 L137,80 L137,76"/>
</g>

<g fill="#000080" fill-opacity="1" stroke="none" transform="matrix(1,0,0,1,0,0)"
font-family="Helvetica" font-size="16" font-weight="400" font-style="normal" 
>
<path vector-effect="non-scaling-stroke" fill-rule="evenodd" d="M697,76 L701,76 L701,80 L697,80 L697,76"/>
</g>

<g fill="#000080" fill-opacity="1" stroke="none" transform="matrix(1,0,0,1,0,0)"
font-family="Helvetica" font-size="16" font-weight="400" font-style="normal" 
>
<path vector-effect="non-scaling-stroke" fill-rule="evenodd" d="M277,76 L281,76 L281,80 L277,80 L277,76"/>
</g>

<g fill="#000080" fill-opacity="1" stroke="none" transform="matrix(1,0,0,1,0,0)"
font-family="Helvetica" font-size="16" font-weight="400" font-style="normal" 
>
<path vector-effect="non-scaling-stroke" fill-rule="evenodd" d="M417,76 L421,76 L421,80 L417,80 L417,76"/>
</g>

<g fill="#000080" fill-opacity="1" stroke="none" transform="matrix(1,0,0,1,0,0)"
font-family="Helvetica" font-size="16" font-weight="400" font-style="normal" 
>
<path vector-effect="non-scaling-stroke" fill-rule="evenodd" d="M557,76 L561,76 L561,80 L557,80 L557,76"/>
</g>

<g fill="#000080" fill-opacity="1" stroke="#000080" stroke-opacity="1" stroke-width="1" stroke-linecap="square" stroke-linejoin="bevel" transform="matrix(1,0,0,1,0,0)"
font-family="Helvetica" font-size="16" font-weight="400" font-style="normal" 
>
<path vector-effect="none" fill-rule="evenodd" d="M142,28 C142,29.6569 140.657,31 139,31 C137.343,31 136,29.6569 136,28 C136,26.3431 137.343,25 139,25 C140.657,25 142,26.3431 142,28 "/>
</g>

<g fill="#000080" fill-opacity="1" stroke="#000080" stroke-opacity="1" stroke-width="1" stroke-linecap="square" stroke-linejoin="bevel" transform="matrix(1,0,0,1,0,0)"
font-family="Helvetica" font-size="16" font-weight="400" font-style="normal" 
>
<path vector-effect="none" fill-rule="evenodd" d="M282,28 C282,29.6569 280.657,31 279,31 C277.343,31 276,29.6569 276,28 C276,26.3431 277.343,25 279,25 C280.657,25 282,26.3431 282,28 "/>
</g>

<g fill="#000080" fill-opacity="1" stroke="#000080" stroke-opacity="1" stroke-width="1" stroke-linecap="square" stroke-linejoin="bevel" transform="matrix(1,0,0,1,0,0)"
font-family="Helvetica" font-size="16" font-weight="400" font-style="normal" 
>
<path vector-effect="none" fill-rule="evenodd" d="M422,28 C422,29.6569 420.657,31 419,31 C417.343,31 416,29.6569 416,28 C416,26.3431 417.343,25 419,25 C420.657,25 422,26.3431 422,28 "/>
</g>

<g fill="#000080" fill-opacity="1" stroke="#000080" stroke-opacity="1" stroke-width="1" stroke-linecap="square" stroke-linejoin="bevel" transform="matrix(1,0,0,1,0,0)"
font-family="Helvetica" font-size="16" font-weight="400" font-style="normal" 
>
<path vector-effect="none" fill-rule="evenodd" d="M562,28 C562,29.6569 560.657,31 559,31 C557.343,31 556,29.6569 556,28 C556,26.3431 557.343,25 559,25 C560.657,25 562,26.3431 562,28 "/>
</g>

<g fill="#000080" fill-opacity="1" stroke="#000080" stroke-opacity="1" stroke-width="1" stroke-linecap="square" stroke-linejoin="bevel" transform="matrix(1,0,0,1,0,0)"
font-family="Helvetica" font-size="16" font-weight="400" font-style="normal" 
>
<path vector-effect="none" fill-rule="evenodd" d="M702,28 C702,29.6569 700.657,31 699,31 C697.343,31 696,29.6569 696,28 C696,26.3431 697.343,25 699,25 C700.657,25 702,26.3431 702,28 "/>
</g>

<g fill="none" stroke="#000080" stroke-opacity="1" stroke-width="1" stroke-linecap="square" stroke-linejoin="bevel" transform="matrix(1,0,0,1,0,0)"
font-family="Helvetica" font-size="16" font-weight="400" font-style="normal" 
>
</g>

<g fill="none" stroke="#000000" stroke-opacity="1" stroke-width="1" stroke-linecap="square" stroke-linejoin="bevel" transform="matrix(1,0,0,1,369,218)"
font-family="Helvetica" font-size="16" font-weight="400" font-style="normal" 
>
<text fill="#000000" fill-opacity="1" stroke="none" xml:space="preserve" x="0" y="16" font-family="Helvetica" font-size="16" font-weight="400" font-style="normal" 
 >Chebyshev high-pass filter</text>
<text fill="#000000" fill-opacity="1" stroke="none" xml:space="preserve" x="0" y="37" font-family="Helvetica" font-size="16" font-weight="400" font-style="normal" 
 >288MHz cutoff, PI-type,</text>
<text fill="#000000" fill-opacity="1" stroke="none" xml:space="preserve" x="0" y="58" font-family="Helvetica" font-size="16" font-weight="400" font-style="normal" 
 >impedance matching 50 Ohm</text>
</g>

<g fill="none" stroke="#000080" stroke-opacity="1" stroke-width="1" stroke-linecap="square" stroke-linejoin="bevel" transform="matrix(1,0,0,1,0,0)"
font-family="Helvetica" font-size="16" font-weight="400" font-style="normal" 
>
</g>
</g>
</svg>
