solid OpenSCAD_Model
  facet normal -0.866025 -0.5 0
    outer loop
      vertex -23.3827 -9.9 -1.8
      vertex -25.4238 -6.36462 -4.44089e-16
      vertex -22.7238 -11.0412 -3.11769
    endloop
  endfacet
  facet normal -0.866025 -0.5 0
    outer loop
      vertex -20.0238 -15.7177 -4.44089e-16
      vertex -18.2238 -18.8354 -7.2
      vertex -18.2238 -18.8354 -4.44089e-16
    endloop
  endfacet
  facet normal -0.866025 -0.5 0
    outer loop
      vertex -20.0238 -15.7177 -2.39808e-15
      vertex -18.2238 -18.8354 -7.2
      vertex -20.0238 -15.7177 -4.44089e-16
    endloop
  endfacet
  facet normal -0.866025 -0.5 0
    outer loop
      vertex -20.265 -15.3 -1.8
      vertex -18.2238 -18.8354 -7.2
      vertex -20.0238 -15.7177 -2.39808e-15
    endloop
  endfacet
  facet normal -0.866025 -0.5 0
    outer loop
      vertex -20.9238 -14.1588 -3.11769
      vertex -18.2238 -18.8354 -7.2
      vertex -20.265 -15.3 -1.8
    endloop
  endfacet
  facet normal -0.866025 -0.5 0
    outer loop
      vertex -25.4238 -6.36462 -7.2
      vertex -18.2238 -18.8354 -7.2
      vertex -21.8238 -12.6 -3.6
    endloop
  endfacet
  facet normal -0.866025 -0.5 0
    outer loop
      vertex -25.4238 -6.36462 -7.2
      vertex -21.8238 -12.6 -3.6
      vertex -22.7238 -11.0412 -3.11769
    endloop
  endfacet
  facet normal -0.866025 -0.5 0
    outer loop
      vertex -25.4238 -6.36462 -7.2
      vertex -22.7238 -11.0412 -3.11769
      vertex -25.4238 -6.36462 -4.44089e-16
    endloop
  endfacet
  facet normal -0.866025 -0.5 0
    outer loop
      vertex -23.6238 -9.48231 -4.44089e-16
      vertex -25.4238 -6.36462 -4.44089e-16
      vertex -23.6238 -9.48231 -2.39808e-15
    endloop
  endfacet
  facet normal -0.866025 -0.5 0
    outer loop
      vertex -21.8238 -12.6 -3.6
      vertex -18.2238 -18.8354 -7.2
      vertex -20.9238 -14.1588 -3.11769
    endloop
  endfacet
  facet normal -0.866025 -0.5 0
    outer loop
      vertex -23.6238 -9.48231 -2.39808e-15
      vertex -25.4238 -6.36462 -4.44089e-16
      vertex -23.3827 -9.9 -1.8
    endloop
  endfacet
  facet normal 0 0 -1
    outer loop
      vertex -25.4238 -6.36462 -7.2
      vertex -13.016 0.799043 -7.2
      vertex -18.2238 -18.8354 -7.2
    endloop
  endfacet
  facet normal 0 0 -1
    outer loop
      vertex -10.5981 7.69999 -7.2
      vertex -13.016 0.799043 -7.2
      vertex -11.9674 5.32825 -7.2
    endloop
  endfacet
  facet normal 0 0 -1
    outer loop
      vertex -13.016 0.799043 -7.2
      vertex -12.8137 2.72364 -7.2
      vertex -11.9674 5.32825 -7.2
    endloop
  endfacet
  facet normal 0 0 -1
    outer loop
      vertex -18.2238 -18.8354 -7.2
      vertex -13.016 0.799043 -7.2
      vertex -10.5981 7.69999 -7.2
    endloop
  endfacet
  facet normal 0 0 -1
    outer loop
      vertex -18.2238 -18.8354 -7.2
      vertex -10.5981 7.69999 -7.2
      vertex -8.76561 9.7352 -7.2
    endloop
  endfacet
  facet normal 0 0 -1
    outer loop
      vertex -18.2238 -18.8354 -7.2
      vertex -8.76561 9.7352 -7.2
      vertex -7.2 10.8727 -7.2
    endloop
  endfacet
  facet normal 0 0 -1
    outer loop
      vertex -7.2 10.8727 -7.2
      vertex -7.2 25.2 -7.2
      vertex 7.2 25.2 -7.2
    endloop
  endfacet
  facet normal 0 0 -1
    outer loop
      vertex -7.2 10.8727 -7.2
      vertex 7.2 25.2 -7.2
      vertex -18.2238 -18.8354 -7.2
    endloop
  endfacet
  facet normal 0 0 -1
    outer loop
      vertex -2.09555 2.4184 -7.2
      vertex 7.2 25.2 -7.2
      vertex 7.2 10.8727 -7.2
    endloop
  endfacet
  facet normal 0 0 -1
    outer loop
      vertex 1.32933 2.91082 -7.2
      vertex 7.2 10.8727 -7.2
      vertex 8.76561 9.7352 -7.2
    endloop
  endfacet
  facet normal 0 0 -1
    outer loop
      vertex 2.69201 1.73005 -7.2
      vertex 8.76561 9.7352 -7.2
      vertex 10.5981 7.69999 -7.2
    endloop
  endfacet
  facet normal 0 0 -1
    outer loop
      vertex 3.2 0 -7.2
      vertex 10.5981 7.69999 -7.2
      vertex 11.9674 5.32825 -7.2
    endloop
  endfacet
  facet normal 0 0 -1
    outer loop
      vertex -18.2238 -18.8354 -7.2
      vertex 11.9674 5.32825 -7.2
      vertex 12.8137 2.72364 -7.2
    endloop
  endfacet
  facet normal 0 0 -1
    outer loop
      vertex -18.2238 -18.8354 -7.2
      vertex 12.8137 2.72364 -7.2
      vertex 13.016 0.799043 -7.2
    endloop
  endfacet
  facet normal 0 0 -1
    outer loop
      vertex 5.81602 -11.6717 -7.2
      vertex 13.016 0.799043 -7.2
      vertex 25.4238 -6.36462 -7.2
    endloop
  endfacet
  facet normal 0 0 -1
    outer loop
      vertex -0.455407 3.16743 -7.2
      vertex 7.2 10.8727 -7.2
      vertex 1.32933 2.91082 -7.2
    endloop
  endfacet
  facet normal 0 0 -1
    outer loop
      vertex -1.36932 -13.0282 -7.2
      vertex 13.016 0.799043 -7.2
      vertex 5.81602 -11.6717 -7.2
    endloop
  endfacet
  facet normal 0 0 -1
    outer loop
      vertex -1.36932 -13.0282 -7.2
      vertex 5.81602 -11.6717 -7.2
      vertex 1.36932 -13.0282 -7.2
    endloop
  endfacet
  facet normal 0 0 -1
    outer loop
      vertex 1.36932 -13.0282 -7.2
      vertex 5.81602 -11.6717 -7.2
      vertex 4.04812 -12.4588 -7.2
    endloop
  endfacet
  facet normal 0 0 -1
    outer loop
      vertex -4.04812 -12.4588 -7.2
      vertex 13.016 0.799043 -7.2
      vertex -1.36932 -13.0282 -7.2
    endloop
  endfacet
  facet normal 0 0 -1
    outer loop
      vertex -2.09555 -2.4184 -7.2
      vertex -18.2238 -18.8354 -7.2
      vertex -3.07038 -0.901544 -7.2
    endloop
  endfacet
  facet normal 0 0 -1
    outer loop
      vertex -5.81602 -11.6717 -7.2
      vertex 13.016 0.799043 -7.2
      vertex -4.04812 -12.4588 -7.2
    endloop
  endfacet
  facet normal 0 0 -1
    outer loop
      vertex -18.2238 -18.8354 -7.2
      vertex 13.016 0.799043 -7.2
      vertex -5.81602 -11.6717 -7.2
    endloop
  endfacet
  facet normal 0 0 -1
    outer loop
      vertex -18.2238 -18.8354 -7.2
      vertex 7.2 25.2 -7.2
      vertex -3.07038 0.901544 -7.2
    endloop
  endfacet
  facet normal 0 0 -1
    outer loop
      vertex -18.2238 -18.8354 -7.2
      vertex -3.07038 0.901544 -7.2
      vertex -3.07038 -0.901544 -7.2
    endloop
  endfacet
  facet normal 0 0 -1
    outer loop
      vertex -0.455407 -3.16743 -7.2
      vertex -18.2238 -18.8354 -7.2
      vertex -2.09555 -2.4184 -7.2
    endloop
  endfacet
  facet normal 0 0 -1
    outer loop
      vertex 3.2 0 -7.2
      vertex 11.9674 5.32825 -7.2
      vertex 2.69201 -1.73005 -7.2
    endloop
  endfacet
  facet normal 0 0 -1
    outer loop
      vertex -18.2238 -18.8354 -7.2
      vertex -0.455407 -3.16743 -7.2
      vertex 1.32933 -2.91082 -7.2
    endloop
  endfacet
  facet normal 0 0 -1
    outer loop
      vertex -18.2238 -18.8354 -7.2
      vertex 1.32933 -2.91082 -7.2
      vertex 11.9674 5.32825 -7.2
    endloop
  endfacet
  facet normal 0 0 -1
    outer loop
      vertex 1.32933 -2.91082 -7.2
      vertex 2.69201 -1.73005 -7.2
      vertex 11.9674 5.32825 -7.2
    endloop
  endfacet
  facet normal 0 0 -1
    outer loop
      vertex 2.69201 1.73005 -7.2
      vertex 10.5981 7.69999 -7.2
      vertex 3.2 0 -7.2
    endloop
  endfacet
  facet normal 0 0 -1
    outer loop
      vertex 1.32933 2.91082 -7.2
      vertex 8.76561 9.7352 -7.2
      vertex 2.69201 1.73005 -7.2
    endloop
  endfacet
  facet normal 0 0 -1
    outer loop
      vertex -2.09555 2.4184 -7.2
      vertex 7.2 10.8727 -7.2
      vertex -0.455407 3.16743 -7.2
    endloop
  endfacet
  facet normal 0 0 -1
    outer loop
      vertex -3.07038 0.901544 -7.2
      vertex 7.2 25.2 -7.2
      vertex -2.09555 2.4184 -7.2
    endloop
  endfacet
  facet normal 0 0 -1
    outer loop
      vertex 5.81602 -11.6717 -7.2
      vertex 25.4238 -6.36462 -7.2
      vertex 18.2238 -18.8354 -7.2
    endloop
  endfacet
  facet normal -0.5 0.866025 0
    outer loop
      vertex -25.4238 -6.36462 -7.2
      vertex -25.4238 -6.36462 -4.44089e-16
      vertex -13.016 0.799043 -7.2
    endloop
  endfacet
  facet normal -0.5 0.866025 0
    outer loop
      vertex -13.016 0.799043 -7.2
      vertex -25.4238 -6.36462 -4.44089e-16
      vertex -13.016 0.799043 -4.44089e-16
    endloop
  endfacet
  facet normal 0 0 1
    outer loop
      vertex -13.016 0.799043 -4.44089e-16
      vertex -25.4238 -6.36462 -4.44089e-16
      vertex -23.6238 -9.48231 -4.44089e-16
    endloop
  endfacet
  facet normal 0 0 1
    outer loop
      vertex -9.36842 -1.25194 -4.44089e-16
      vertex -13.016 0.799043 -4.44089e-16
      vertex -16.0028 -5.08231 -4.44089e-16
    endloop
  endfacet
  facet normal 0 0 1
    outer loop
      vertex -16.0028 -5.08231 -4.44089e-16
      vertex -13.016 0.799043 -4.44089e-16
      vertex -23.6238 -9.48231 -4.44089e-16
    endloop
  endfacet
  facet normal 0 0 1
    outer loop
      vertex -9.5 0 -4.44089e-16
      vertex -13.016 0.799043 -4.44089e-16
      vertex -9.36842 -1.25194 -4.44089e-16
    endloop
  endfacet
  facet normal 0 0 1
    outer loop
      vertex -9.2924 1.97516 -4.44089e-16
      vertex -13.016 0.799043 -4.44089e-16
      vertex -9.5 0 -4.44089e-16
    endloop
  endfacet
  facet normal 0 0 1
    outer loop
      vertex -8.67868 3.864 -4.44089e-16
      vertex -13.016 0.799043 -4.44089e-16
      vertex -9.2924 1.97516 -4.44089e-16
    endloop
  endfacet
  facet normal 0 0 1
    outer loop
      vertex -7.2 25.2 -4.44089e-16
      vertex -3.6 16.4 -4.44089e-16
      vertex -3.6 25.2 -4.44089e-16
    endloop
  endfacet
  facet normal 0 0 1
    outer loop
      vertex -7.2 25.2 -4.44089e-16
      vertex -7.2 10.8727 -4.44089e-16
      vertex -3.6 16.4 -4.44089e-16
    endloop
  endfacet
  facet normal 0 0 1
    outer loop
      vertex -3.6 16.4 -4.44089e-16
      vertex -4.75 8.22724 -4.44089e-16
      vertex -3.6 8.73925 -4.44089e-16
    endloop
  endfacet
  facet normal 0 0 1
    outer loop
      vertex -3.6 16.4 -4.44089e-16
      vertex -7.2 10.8727 -4.44089e-16
      vertex -4.75 8.22724 -4.44089e-16
    endloop
  endfacet
  facet normal 0 0 1
    outer loop
      vertex -10.5981 7.69999 -4.44089e-16
      vertex -11.9674 5.32825 -4.44089e-16
      vertex -7.2 10.8727 -4.44089e-16
    endloop
  endfacet
  facet normal 0 0 1
    outer loop
      vertex -8.76561 9.7352 -4.44089e-16
      vertex -10.5981 7.69999 -4.44089e-16
      vertex -7.2 10.8727 -4.44089e-16
    endloop
  endfacet
  facet normal 0 0 1
    outer loop
      vertex -7.2 10.8727 -4.44089e-16
      vertex -11.9674 5.32825 -4.44089e-16
      vertex -4.75 8.22724 -4.44089e-16
    endloop
  endfacet
  facet normal 0 0 1
    outer loop
      vertex -11.9674 5.32825 -4.44089e-16
      vertex -12.8137 2.72364 -4.44089e-16
      vertex -4.75 8.22724 -4.44089e-16
    endloop
  endfacet
  facet normal 0 0 1
    outer loop
      vertex -12.8137 2.72364 -4.44089e-16
      vertex -6.35674 7.05988 -4.44089e-16
      vertex -4.75 8.22724 -4.44089e-16
    endloop
  endfacet
  facet normal 0 0 1
    outer loop
      vertex -12.8137 2.72364 -4.44089e-16
      vertex -7.68566 5.58396 -4.44089e-16
      vertex -6.35674 7.05988 -4.44089e-16
    endloop
  endfacet
  facet normal 0 0 1
    outer loop
      vertex -12.8137 2.72364 -4.44089e-16
      vertex -8.67868 3.864 -4.44089e-16
      vertex -7.68566 5.58396 -4.44089e-16
    endloop
  endfacet
  facet normal 0 0 1
    outer loop
      vertex -12.8137 2.72364 -4.44089e-16
      vertex -13.016 0.799043 -4.44089e-16
      vertex -8.67868 3.864 -4.44089e-16
    endloop
  endfacet
  facet normal 0.482963 -0.836516 -0.258819
    outer loop
      vertex -16.0028 -5.08231 -4.44089e-16
      vertex -23.6238 -9.48231 -4.44089e-16
      vertex -23.6238 -9.48231 -2.39808e-15
    endloop
  endfacet
  facet normal 0.482963 -0.836516 0.258819
    outer loop
      vertex -23.3827 -9.9 -1.8
      vertex -9.31323 -1.777 -1.8
      vertex -9.36842 -1.25194 -4.44089e-16
    endloop
  endfacet
  facet normal 0.482963 -0.836516 0.258819
    outer loop
      vertex -23.6238 -9.48231 -2.39808e-15
      vertex -23.3827 -9.9 -1.8
      vertex -16.0028 -5.08231 -4.44089e-16
    endloop
  endfacet
  facet normal 0.482963 -0.836516 0.258819
    outer loop
      vertex -16.0028 -5.08231 -4.44089e-16
      vertex -23.3827 -9.9 -1.8
      vertex -9.36842 -1.25194 -4.44089e-16
    endloop
  endfacet
  facet normal 0.353553 -0.612372 0.707107
    outer loop
      vertex -22.7238 -11.0412 -3.11769
      vertex -8.93362 -3.07937 -3.11769
      vertex -9.2924 -1.97516 -1.98203
    endloop
  endfacet
  facet normal 0.353553 -0.612372 0.707107
    outer loop
      vertex -9.31323 -1.777 -1.8
      vertex -22.7238 -11.0412 -3.11769
      vertex -9.2924 -1.97516 -1.98203
    endloop
  endfacet
  facet normal 0.353553 -0.612372 0.707107
    outer loop
      vertex -9.31323 -1.777 -1.8
      vertex -23.3827 -9.9 -1.8
      vertex -22.7238 -11.0412 -3.11769
    endloop
  endfacet
  facet normal 0.12941 -0.224144 0.965926
    outer loop
      vertex -21.8238 -12.6 -3.6
      vertex -8.18217 -4.72398 -3.6
      vertex -8.67868 -3.864 -3.33392
    endloop
  endfacet
  facet normal 0.12941 -0.224144 0.965926
    outer loop
      vertex -8.93362 -3.07937 -3.11769
      vertex -21.8238 -12.6 -3.6
      vertex -8.67868 -3.864 -3.33392
    endloop
  endfacet
  facet normal 0.12941 -0.224144 0.965926
    outer loop
      vertex -8.93362 -3.07937 -3.11769
      vertex -22.7238 -11.0412 -3.11769
      vertex -21.8238 -12.6 -3.6
    endloop
  endfacet
  facet normal -0.12941 0.224144 0.965926
    outer loop
      vertex -20.9238 -14.1588 -3.11769
      vertex -7.13362 -6.19706 -3.11769
      vertex -7.68566 -5.58396 -3.33392
    endloop
  endfacet
  facet normal -0.12941 0.224144 0.965926
    outer loop
      vertex -8.18217 -4.72398 -3.6
      vertex -20.9238 -14.1588 -3.11769
      vertex -7.68566 -5.58396 -3.33392
    endloop
  endfacet
  facet normal -0.12941 0.224144 0.965926
    outer loop
      vertex -8.18217 -4.72398 -3.6
      vertex -21.8238 -12.6 -3.6
      vertex -20.9238 -14.1588 -3.11769
    endloop
  endfacet
  facet normal -0.353553 0.612372 0.707107
    outer loop
      vertex -20.265 -15.3 -1.8
      vertex -6.19554 -7.177 -1.8
      vertex -6.35674 -7.05988 -1.98203
    endloop
  endfacet
  facet normal -0.353553 0.612372 0.707107
    outer loop
      vertex -7.13362 -6.19706 -3.11769
      vertex -20.265 -15.3 -1.8
      vertex -6.35674 -7.05988 -1.98203
    endloop
  endfacet
  facet normal -0.353553 0.612372 0.707107
    outer loop
      vertex -7.13362 -6.19706 -3.11769
      vertex -20.9238 -14.1588 -3.11769
      vertex -20.265 -15.3 -1.8
    endloop
  endfacet
  facet normal -0.482963 0.836516 0.258819
    outer loop
      vertex -12.4028 -11.3177 -4.44089e-16
      vertex -5.76842 -7.48732 -4.44089e-16
      vertex -20.0238 -15.7177 -2.39808e-15
    endloop
  endfacet
  facet normal -0.482963 0.836516 0.258819
    outer loop
      vertex -20.0238 -15.7177 -2.39808e-15
      vertex -5.76842 -7.48732 -4.44089e-16
      vertex -6.19554 -7.177 -1.8
    endloop
  endfacet
  facet normal -0.482963 0.836516 0.258819
    outer loop
      vertex -20.0238 -15.7177 -2.39808e-15
      vertex -6.19554 -7.177 -1.8
      vertex -20.265 -15.3 -1.8
    endloop
  endfacet
  facet normal -0.482963 0.836516 -0.258819
    outer loop
      vertex -12.4028 -11.3177 -4.44089e-16
      vertex -20.0238 -15.7177 -2.39808e-15
      vertex -20.0238 -15.7177 -4.44089e-16
    endloop
  endfacet
  facet normal 0 0 1
    outer loop
      vertex -12.4028 -11.3177 -4.44089e-16
      vertex -20.0238 -15.7177 -4.44089e-16
      vertex -18.2238 -18.8354 -4.44089e-16
    endloop
  endfacet
  facet normal 0 0 1
    outer loop
      vertex 5.81602 -11.6717 -4.44089e-16
      vertex -12.4028 -11.3177 -4.44089e-16
      vertex -5.81602 -11.6717 -4.44089e-16
    endloop
  endfacet
  facet normal 0 0 1
    outer loop
      vertex -5.81602 -11.6717 -4.44089e-16
      vertex -12.4028 -11.3177 -4.44089e-16
      vertex -18.2238 -18.8354 -4.44089e-16
    endloop
  endfacet
  facet normal 0 0 1
    outer loop
      vertex -1.36932 -13.0282 -4.44089e-16
      vertex -5.81602 -11.6717 -4.44089e-16
      vertex -4.04812 -12.4588 -4.44089e-16
    endloop
  endfacet
  facet normal 0 0 1
    outer loop
      vertex 1.36932 -13.0282 -4.44089e-16
      vertex -5.81602 -11.6717 -4.44089e-16
      vertex -1.36932 -13.0282 -4.44089e-16
    endloop
  endfacet
  facet normal 0 0 1
    outer loop
      vertex 4.04812 -12.4588 -4.44089e-16
      vertex -5.81602 -11.6717 -4.44089e-16
      vertex 1.36932 -13.0282 -4.44089e-16
    endloop
  endfacet
  facet normal 0 0 1
    outer loop
      vertex 5.81602 -11.6717 -4.44089e-16
      vertex -5.81602 -11.6717 -4.44089e-16
      vertex 4.04812 -12.4588 -4.44089e-16
    endloop
  endfacet
  facet normal 0 0 1
    outer loop
      vertex 12.4028 -11.3177 -4.44089e-16
      vertex -12.4028 -11.3177 -4.44089e-16
      vertex 5.81602 -11.6717 -4.44089e-16
    endloop
  endfacet
  facet normal 0 0 1
    outer loop
      vertex 20.0238 -15.7177 -4.44089e-16
      vertex 5.81602 -11.6717 -4.44089e-16
      vertex 18.2238 -18.8354 -4.44089e-16
    endloop
  endfacet
  facet normal 0 0 1
    outer loop
      vertex 12.4028 -11.3177 -4.44089e-16
      vertex 5.81602 -11.6717 -4.44089e-16
      vertex 20.0238 -15.7177 -4.44089e-16
    endloop
  endfacet
  facet normal 0 0 1
    outer loop
      vertex 0.99302 -9.44796 -4.44089e-16
      vertex -12.4028 -11.3177 -4.44089e-16
      vertex 12.4028 -11.3177 -4.44089e-16
    endloop
  endfacet
  facet normal 0 0 1
    outer loop
      vertex 5.76842 -7.48732 -4.44089e-16
      vertex 4.75 -8.22724 -4.44089e-16
      vertex 12.4028 -11.3177 -4.44089e-16
    endloop
  endfacet
  facet normal 0 0 1
    outer loop
      vertex 4.75 -8.22724 -4.44089e-16
      vertex 2.93566 -9.03504 -4.44089e-16
      vertex 12.4028 -11.3177 -4.44089e-16
    endloop
  endfacet
  facet normal 0 0 1
    outer loop
      vertex 2.93566 -9.03504 -4.44089e-16
      vertex 0.99302 -9.44796 -4.44089e-16
      vertex 12.4028 -11.3177 -4.44089e-16
    endloop
  endfacet
  facet normal 0 0 1
    outer loop
      vertex -4.75 -8.22724 -4.44089e-16
      vertex -12.4028 -11.3177 -4.44089e-16
      vertex -2.93566 -9.03504 -4.44089e-16
    endloop
  endfacet
  facet normal 0 0 1
    outer loop
      vertex -5.76842 -7.48732 -4.44089e-16
      vertex -12.4028 -11.3177 -4.44089e-16
      vertex -4.75 -8.22724 -4.44089e-16
    endloop
  endfacet
  facet normal 0 0 1
    outer loop
      vertex 0.99302 -9.44796 -4.44089e-16
      vertex -0.99302 -9.44796 -4.44089e-16
      vertex -12.4028 -11.3177 -4.44089e-16
    endloop
  endfacet
  facet normal 0 0 1
    outer loop
      vertex -0.99302 -9.44796 -4.44089e-16
      vertex -2.93566 -9.03504 -4.44089e-16
      vertex -12.4028 -11.3177 -4.44089e-16
    endloop
  endfacet
  facet normal 0.5 -0.866025 0
    outer loop
      vertex -18.2238 -18.8354 -4.44089e-16
      vertex -18.2238 -18.8354 -7.2
      vertex -5.81602 -11.6717 -7.2
    endloop
  endfacet
  facet normal 0.5 -0.866025 0
    outer loop
      vertex -5.81602 -11.6717 -4.44089e-16
      vertex -18.2238 -18.8354 -4.44089e-16
      vertex -5.81602 -11.6717 -7.2
    endloop
  endfacet
  facet normal -0.406737 -0.913546 0
    outer loop
      vertex -5.81602 -11.6717 -4.44089e-16
      vertex -5.81602 -11.6717 -7.2
      vertex -4.04812 -12.4588 -7.2
    endloop
  endfacet
  facet normal -0.406737 -0.913546 0
    outer loop
      vertex -4.04812 -12.4588 -4.44089e-16
      vertex -5.81602 -11.6717 -4.44089e-16
      vertex -4.04812 -12.4588 -7.2
    endloop
  endfacet
  facet normal -0.207912 -0.978148 0
    outer loop
      vertex -4.04812 -12.4588 -4.44089e-16
      vertex -4.04812 -12.4588 -7.2
      vertex -1.36932 -13.0282 -7.2
    endloop
  endfacet
  facet normal -0.207912 -0.978148 0
    outer loop
      vertex -1.36932 -13.0282 -4.44089e-16
      vertex -4.04812 -12.4588 -4.44089e-16
      vertex -1.36932 -13.0282 -7.2
    endloop
  endfacet
  facet normal 0 -1 0
    outer loop
      vertex -1.36932 -13.0282 -4.44089e-16
      vertex -1.36932 -13.0282 -7.2
      vertex 1.36932 -13.0282 -7.2
    endloop
  endfacet
  facet normal 0 -1 0
    outer loop
      vertex 1.36932 -13.0282 -4.44089e-16
      vertex -1.36932 -13.0282 -4.44089e-16
      vertex 1.36932 -13.0282 -7.2
    endloop
  endfacet
  facet normal 0.207912 -0.978148 0
    outer loop
      vertex 1.36932 -13.0282 -4.44089e-16
      vertex 1.36932 -13.0282 -7.2
      vertex 4.04812 -12.4588 -7.2
    endloop
  endfacet
  facet normal 0.207912 -0.978148 0
    outer loop
      vertex 4.04812 -12.4588 -4.44089e-16
      vertex 1.36932 -13.0282 -4.44089e-16
      vertex 4.04812 -12.4588 -7.2
    endloop
  endfacet
  facet normal 0.406737 -0.913546 0
    outer loop
      vertex 4.04812 -12.4588 -4.44089e-16
      vertex 4.04812 -12.4588 -7.2
      vertex 5.81602 -11.6717 -7.2
    endloop
  endfacet
  facet normal 0.406737 -0.913546 0
    outer loop
      vertex 5.81602 -11.6717 -4.44089e-16
      vertex 4.04812 -12.4588 -4.44089e-16
      vertex 5.81602 -11.6717 -7.2
    endloop
  endfacet
  facet normal -0.5 -0.866025 0
    outer loop
      vertex 5.81602 -11.6717 -4.44089e-16
      vertex 5.81602 -11.6717 -7.2
      vertex 18.2238 -18.8354 -7.2
    endloop
  endfacet
  facet normal -0.5 -0.866025 0
    outer loop
      vertex 18.2238 -18.8354 -4.44089e-16
      vertex 5.81602 -11.6717 -4.44089e-16
      vertex 18.2238 -18.8354 -7.2
    endloop
  endfacet
  facet normal 0.866025 -0.5 0
    outer loop
      vertex 21.8238 -12.6 -3.6
      vertex 18.2238 -18.8354 -7.2
      vertex 25.4238 -6.36462 -7.2
    endloop
  endfacet
  facet normal 0.866025 -0.5 0
    outer loop
      vertex 20.9238 -14.1588 -3.11769
      vertex 20.265 -15.3 -1.8
      vertex 18.2238 -18.8354 -4.44089e-16
    endloop
  endfacet
  facet normal 0.866025 -0.5 0
    outer loop
      vertex 25.4238 -6.36462 -4.44089e-16
      vertex 23.6238 -9.48231 -4.44089e-16
      vertex 25.4238 -6.36462 -7.2
    endloop
  endfacet
  facet normal 0.866025 -0.5 0
    outer loop
      vertex 23.6238 -9.48231 -4.44089e-16
      vertex 23.6238 -9.48231 -2.39808e-15
      vertex 25.4238 -6.36462 -7.2
    endloop
  endfacet
  facet normal 0.866025 -0.5 0
    outer loop
      vertex 23.6238 -9.48231 -2.39808e-15
      vertex 23.3827 -9.9 -1.8
      vertex 25.4238 -6.36462 -7.2
    endloop
  endfacet
  facet normal 0.866025 -0.5 0
    outer loop
      vertex 23.3827 -9.9 -1.8
      vertex 22.7238 -11.0412 -3.11769
      vertex 25.4238 -6.36462 -7.2
    endloop
  endfacet
  facet normal 0.866025 -0.5 0
    outer loop
      vertex 20.0238 -15.7177 -2.39808e-15
      vertex 20.0238 -15.7177 -4.44089e-16
      vertex 18.2238 -18.8354 -4.44089e-16
    endloop
  endfacet
  facet normal 0.866025 -0.5 0
    outer loop
      vertex 20.9238 -14.1588 -3.11769
      vertex 18.2238 -18.8354 -7.2
      vertex 21.8238 -12.6 -3.6
    endloop
  endfacet
  facet normal 0.866025 -0.5 0
    outer loop
      vertex 18.2238 -18.8354 -4.44089e-16
      vertex 18.2238 -18.8354 -7.2
      vertex 20.9238 -14.1588 -3.11769
    endloop
  endfacet
  facet normal 0.866025 -0.5 0
    outer loop
      vertex 20.265 -15.3 -1.8
      vertex 20.0238 -15.7177 -2.39808e-15
      vertex 18.2238 -18.8354 -4.44089e-16
    endloop
  endfacet
  facet normal 0.866025 -0.5 0
    outer loop
      vertex 22.7238 -11.0412 -3.11769
      vertex 21.8238 -12.6 -3.6
      vertex 25.4238 -6.36462 -7.2
    endloop
  endfacet
  facet normal 0.5 0.866025 0
    outer loop
      vertex 13.016 0.799043 -7.2
      vertex 13.016 0.799043 -4.44089e-16
      vertex 25.4238 -6.36462 -7.2
    endloop
  endfacet
  facet normal 0.5 0.866025 0
    outer loop
      vertex 25.4238 -6.36462 -7.2
      vertex 13.016 0.799043 -4.44089e-16
      vertex 25.4238 -6.36462 -4.44089e-16
    endloop
  endfacet
  facet normal 0.994522 0.104528 0
    outer loop
      vertex 13.016 0.799043 -7.2
      vertex 12.8137 2.72364 -7.2
      vertex 12.8137 2.72364 -4.44089e-16
    endloop
  endfacet
  facet normal 0.994522 0.104528 0
    outer loop
      vertex 13.016 0.799043 -4.44089e-16
      vertex 13.016 0.799043 -7.2
      vertex 12.8137 2.72364 -4.44089e-16
    endloop
  endfacet
  facet normal 0.951056 0.309017 0
    outer loop
      vertex 12.8137 2.72364 -7.2
      vertex 11.9674 5.32825 -7.2
      vertex 11.9674 5.32825 -4.44089e-16
    endloop
  endfacet
  facet normal 0.951056 0.309017 0
    outer loop
      vertex 12.8137 2.72364 -4.44089e-16
      vertex 12.8137 2.72364 -7.2
      vertex 11.9674 5.32825 -4.44089e-16
    endloop
  endfacet
  facet normal 0.866026 0.5 0
    outer loop
      vertex 11.9674 5.32825 -7.2
      vertex 10.5981 7.69999 -7.2
      vertex 10.5981 7.69999 -4.44089e-16
    endloop
  endfacet
  facet normal 0.866026 0.5 0
    outer loop
      vertex 11.9674 5.32825 -4.44089e-16
      vertex 11.9674 5.32825 -7.2
      vertex 10.5981 7.69999 -4.44089e-16
    endloop
  endfacet
  facet normal 0.743145 0.669131 0
    outer loop
      vertex 10.5981 7.69999 -7.2
      vertex 8.76561 9.7352 -7.2
      vertex 8.76561 9.7352 -4.44089e-16
    endloop
  endfacet
  facet normal 0.743145 0.669131 0
    outer loop
      vertex 10.5981 7.69999 -4.44089e-16
      vertex 10.5981 7.69999 -7.2
      vertex 8.76561 9.7352 -4.44089e-16
    endloop
  endfacet
  facet normal 0.587785 0.809017 0
    outer loop
      vertex 7.2 10.8727 -7.2
      vertex 7.2 10.8727 -4.44089e-16
      vertex 8.76561 9.7352 -7.2
    endloop
  endfacet
  facet normal 0.587785 0.809017 0
    outer loop
      vertex 8.76561 9.7352 -7.2
      vertex 7.2 10.8727 -4.44089e-16
      vertex 8.76561 9.7352 -4.44089e-16
    endloop
  endfacet
  facet normal 1 0 0
    outer loop
      vertex 7.2 10.8727 -4.44089e-16
      vertex 7.2 10.8727 -7.2
      vertex 7.2 25.2 -7.2
    endloop
  endfacet
  facet normal 1 0 0
    outer loop
      vertex 7.2 25.2 -4.44089e-16
      vertex 7.2 10.8727 -4.44089e-16
      vertex 7.2 25.2 -7.2
    endloop
  endfacet
  facet normal 0 1 0
    outer loop
      vertex -3.6 25.2 -2.39808e-15
      vertex -7.2 25.2 -4.44089e-16
      vertex -3.6 25.2 -4.44089e-16
    endloop
  endfacet
  facet normal 0 1 0
    outer loop
      vertex -3.11769 25.2 -1.8
      vertex -7.2 25.2 -4.44089e-16
      vertex -3.6 25.2 -2.39808e-15
    endloop
  endfacet
  facet normal 0 1 0
    outer loop
      vertex -7.2 25.2 -7.2
      vertex -7.2 25.2 -4.44089e-16
      vertex -1.8 25.2 -3.11769
    endloop
  endfacet
  facet normal 0 1 0
    outer loop
      vertex -7.2 25.2 -7.2
      vertex -1.8 25.2 -3.11769
      vertex 7.2 25.2 -7.2
    endloop
  endfacet
  facet normal 0 1 0
    outer loop
      vertex 1.8 25.2 -3.11769
      vertex 7.2 25.2 -7.2
      vertex 0 25.2 -3.6
    endloop
  endfacet
  facet normal 0 1 0
    outer loop
      vertex -1.8 25.2 -3.11769
      vertex 0 25.2 -3.6
      vertex 7.2 25.2 -7.2
    endloop
  endfacet
  facet normal 0 1 0
    outer loop
      vertex 7.2 25.2 -7.2
      vertex 1.8 25.2 -3.11769
      vertex 3.11769 25.2 -1.8
    endloop
  endfacet
  facet normal 0 1 0
    outer loop
      vertex 3.11769 25.2 -1.8
      vertex 3.6 25.2 -2.39808e-15
      vertex 7.2 25.2 -7.2
    endloop
  endfacet
  facet normal 0 1 0
    outer loop
      vertex 3.6 25.2 -2.39808e-15
      vertex 3.6 25.2 -4.44089e-16
      vertex 7.2 25.2 -7.2
    endloop
  endfacet
  facet normal 0 1 0
    outer loop
      vertex 7.2 25.2 -7.2
      vertex 3.6 25.2 -4.44089e-16
      vertex 7.2 25.2 -4.44089e-16
    endloop
  endfacet
  facet normal 0 1 0
    outer loop
      vertex -1.8 25.2 -3.11769
      vertex -7.2 25.2 -4.44089e-16
      vertex -3.11769 25.2 -1.8
    endloop
  endfacet
  facet normal -1 0 0
    outer loop
      vertex -7.2 10.8727 -7.2
      vertex -7.2 10.8727 -4.44089e-16
      vertex -7.2 25.2 -7.2
    endloop
  endfacet
  facet normal -1 0 0
    outer loop
      vertex -7.2 25.2 -7.2
      vertex -7.2 10.8727 -4.44089e-16
      vertex -7.2 25.2 -4.44089e-16
    endloop
  endfacet
  facet normal -0.587785 0.809017 0
    outer loop
      vertex -8.76561 9.7352 -7.2
      vertex -8.76561 9.7352 -4.44089e-16
      vertex -7.2 10.8727 -7.2
    endloop
  endfacet
  facet normal -0.587785 0.809017 0
    outer loop
      vertex -7.2 10.8727 -7.2
      vertex -8.76561 9.7352 -4.44089e-16
      vertex -7.2 10.8727 -4.44089e-16
    endloop
  endfacet
  facet normal -0.743145 0.669131 0
    outer loop
      vertex -10.5981 7.69999 -7.2
      vertex -10.5981 7.69999 -4.44089e-16
      vertex -8.76561 9.7352 -7.2
    endloop
  endfacet
  facet normal -0.743145 0.669131 0
    outer loop
      vertex -8.76561 9.7352 -7.2
      vertex -10.5981 7.69999 -4.44089e-16
      vertex -8.76561 9.7352 -4.44089e-16
    endloop
  endfacet
  facet normal -0.866026 0.5 0
    outer loop
      vertex -11.9674 5.32825 -7.2
      vertex -11.9674 5.32825 -4.44089e-16
      vertex -10.5981 7.69999 -7.2
    endloop
  endfacet
  facet normal -0.866026 0.5 0
    outer loop
      vertex -10.5981 7.69999 -7.2
      vertex -11.9674 5.32825 -4.44089e-16
      vertex -10.5981 7.69999 -4.44089e-16
    endloop
  endfacet
  facet normal -0.951056 0.309017 0
    outer loop
      vertex -12.8137 2.72364 -7.2
      vertex -12.8137 2.72364 -4.44089e-16
      vertex -11.9674 5.32825 -7.2
    endloop
  endfacet
  facet normal -0.951056 0.309017 0
    outer loop
      vertex -11.9674 5.32825 -7.2
      vertex -12.8137 2.72364 -4.44089e-16
      vertex -11.9674 5.32825 -4.44089e-16
    endloop
  endfacet
  facet normal -0.994522 0.104528 0
    outer loop
      vertex -13.016 0.799043 -7.2
      vertex -13.016 0.799043 -4.44089e-16
      vertex -12.8137 2.72364 -7.2
    endloop
  endfacet
  facet normal -0.994522 0.104528 0
    outer loop
      vertex -12.8137 2.72364 -7.2
      vertex -13.016 0.799043 -4.44089e-16
      vertex -12.8137 2.72364 -4.44089e-16
    endloop
  endfacet
  facet normal 1 0 0
    outer loop
      vertex -3.07038 0.901544 -7.2
      vertex -3.07038 0.901544 -3.6
      vertex -3.07038 -0.901544 -3.6
    endloop
  endfacet
  facet normal 1 0 0
    outer loop
      vertex -3.07038 -0.901544 -7.2
      vertex -3.07038 0.901544 -7.2
      vertex -3.07038 -0.901544 -3.6
    endloop
  endfacet
  facet normal 0.841253 -0.540641 0
    outer loop
      vertex -2.09555 2.4184 -7.2
      vertex -2.09555 2.4184 -3.6
      vertex -3.07038 0.901544 -3.6
    endloop
  endfacet
  facet normal 0.841253 -0.540641 0
    outer loop
      vertex -3.07038 0.901544 -7.2
      vertex -2.09555 2.4184 -7.2
      vertex -3.07038 0.901544 -3.6
    endloop
  endfacet
  facet normal 0.415415 -0.909632 0
    outer loop
      vertex -0.455407 3.16743 -7.2
      vertex -0.455407 3.16743 -3.6
      vertex -2.09555 2.4184 -3.6
    endloop
  endfacet
  facet normal 0.415415 -0.909632 0
    outer loop
      vertex -2.09555 2.4184 -7.2
      vertex -0.455407 3.16743 -7.2
      vertex -2.09555 2.4184 -3.6
    endloop
  endfacet
  facet normal -0.142315 -0.989821 0
    outer loop
      vertex 1.32933 2.91082 -7.2
      vertex 1.32933 2.91082 -3.6
      vertex -0.455407 3.16743 -3.6
    endloop
  endfacet
  facet normal -0.142315 -0.989821 0
    outer loop
      vertex -0.455407 3.16743 -7.2
      vertex 1.32933 2.91082 -7.2
      vertex -0.455407 3.16743 -3.6
    endloop
  endfacet
  facet normal -0.654861 -0.75575 0
    outer loop
      vertex 2.69201 1.73005 -7.2
      vertex 2.69201 1.73005 -3.6
      vertex 1.32933 2.91082 -3.6
    endloop
  endfacet
  facet normal -0.654861 -0.75575 0
    outer loop
      vertex 1.32933 2.91082 -7.2
      vertex 2.69201 1.73005 -7.2
      vertex 1.32933 2.91082 -3.6
    endloop
  endfacet
  facet normal -0.959493 -0.281733 0
    outer loop
      vertex 3.2 0 -3.6
      vertex 2.69201 1.73005 -3.6
      vertex 3.2 0 -7.2
    endloop
  endfacet
  facet normal -0.959493 -0.281733 0
    outer loop
      vertex 3.2 0 -7.2
      vertex 2.69201 1.73005 -3.6
      vertex 2.69201 1.73005 -7.2
    endloop
  endfacet
  facet normal -0.959493 0.281733 0
    outer loop
      vertex 3.2 0 -3.6
      vertex 3.2 0 -7.2
      vertex 2.69201 -1.73005 -3.6
    endloop
  endfacet
  facet normal -0.959493 0.281733 0
    outer loop
      vertex 2.69201 -1.73005 -3.6
      vertex 3.2 0 -7.2
      vertex 2.69201 -1.73005 -7.2
    endloop
  endfacet
  facet normal -0.654861 0.75575 0
    outer loop
      vertex 2.69201 -1.73005 -3.6
      vertex 2.69201 -1.73005 -7.2
      vertex 1.32933 -2.91082 -3.6
    endloop
  endfacet
  facet normal -0.654861 0.75575 0
    outer loop
      vertex 1.32933 -2.91082 -3.6
      vertex 2.69201 -1.73005 -7.2
      vertex 1.32933 -2.91082 -7.2
    endloop
  endfacet
  facet normal -0.142315 0.989821 0
    outer loop
      vertex 1.32933 -2.91082 -3.6
      vertex 1.32933 -2.91082 -7.2
      vertex -0.455407 -3.16743 -3.6
    endloop
  endfacet
  facet normal -0.142315 0.989821 0
    outer loop
      vertex -0.455407 -3.16743 -3.6
      vertex 1.32933 -2.91082 -7.2
      vertex -0.455407 -3.16743 -7.2
    endloop
  endfacet
  facet normal 0.415415 0.909632 0
    outer loop
      vertex -0.455407 -3.16743 -3.6
      vertex -0.455407 -3.16743 -7.2
      vertex -2.09555 -2.4184 -3.6
    endloop
  endfacet
  facet normal 0.415415 0.909632 0
    outer loop
      vertex -2.09555 -2.4184 -3.6
      vertex -0.455407 -3.16743 -7.2
      vertex -2.09555 -2.4184 -7.2
    endloop
  endfacet
  facet normal 0.841253 0.540641 0
    outer loop
      vertex -3.07038 -0.901544 -3.6
      vertex -2.09555 -2.4184 -3.6
      vertex -2.09555 -2.4184 -7.2
    endloop
  endfacet
  facet normal 0.841253 0.540641 0
    outer loop
      vertex -3.07038 -0.901544 -7.2
      vertex -3.07038 -0.901544 -3.6
      vertex -2.09555 -2.4184 -7.2
    endloop
  endfacet
  facet normal 0.965926 -5.74694e-17 -0.258819
    outer loop
      vertex -3.6 25.2 -2.39808e-15
      vertex -3.6 25.2 -4.44089e-16
      vertex -3.6 16.4 -4.44089e-16
    endloop
  endfacet
  facet normal 0.965926 5.74694e-17 0.258819
    outer loop
      vertex -3.6 8.73925 -4.44089e-16
      vertex -3.11769 8.95399 -1.8
      vertex -3.11769 25.2 -1.8
    endloop
  endfacet
  facet normal 0.965926 5.74694e-17 0.258819
    outer loop
      vertex -3.6 16.4 -4.44089e-16
      vertex -3.6 8.73925 -4.44089e-16
      vertex -3.6 25.2 -2.39808e-15
    endloop
  endfacet
  facet normal 0.965926 5.74694e-17 0.258819
    outer loop
      vertex -3.6 25.2 -2.39808e-15
      vertex -3.6 8.73925 -4.44089e-16
      vertex -3.11769 25.2 -1.8
    endloop
  endfacet
  facet normal 0.406737 -0.913545 0
    outer loop
      vertex -2.93566 9.03504 -3.6
      vertex -2.93566 9.03504 -1.98203
      vertex -3.11769 8.95399 -1.8
    endloop
  endfacet
  facet normal 0.406737 -0.913545 0
    outer loop
      vertex -3.6 8.73925 -4.44089e-16
      vertex -2.93566 9.03504 -3.6
      vertex -3.11769 8.95399 -1.8
    endloop
  endfacet
  facet normal 0.406737 -0.913545 0
    outer loop
      vertex -3.6 8.73925 -4.44089e-16
      vertex -4.75 8.22724 -4.44089e-16
      vertex -2.93566 9.03504 -3.6
    endloop
  endfacet
  facet normal 0.406737 -0.913545 0
    outer loop
      vertex -4.75 8.22724 -4.44089e-16
      vertex -4.75 8.22724 -3.6
      vertex -2.93566 9.03504 -3.6
    endloop
  endfacet
  facet normal 0.587785 -0.809017 0
    outer loop
      vertex -4.75 8.22724 -3.6
      vertex -4.75 8.22724 -4.44089e-16
      vertex -6.35674 7.05988 -4.44089e-16
    endloop
  endfacet
  facet normal 0.587785 -0.809017 0
    outer loop
      vertex -6.35674 7.05988 -3.6
      vertex -4.75 8.22724 -3.6
      vertex -6.35674 7.05988 -4.44089e-16
    endloop
  endfacet
  facet normal 0.743145 -0.66913 0
    outer loop
      vertex -6.35674 7.05988 -3.6
      vertex -6.35674 7.05988 -4.44089e-16
      vertex -7.68566 5.58396 -4.44089e-16
    endloop
  endfacet
  facet normal 0.743145 -0.66913 0
    outer loop
      vertex -7.68566 5.58396 -3.6
      vertex -6.35674 7.05988 -3.6
      vertex -7.68566 5.58396 -4.44089e-16
    endloop
  endfacet
  facet normal 0.866025 -0.5 0
    outer loop
      vertex -7.68566 5.58396 -3.6
      vertex -7.68566 5.58396 -4.44089e-16
      vertex -8.67868 3.864 -4.44089e-16
    endloop
  endfacet
  facet normal 0.866025 -0.5 0
    outer loop
      vertex -8.67868 3.864 -3.6
      vertex -7.68566 5.58396 -3.6
      vertex -8.67868 3.864 -4.44089e-16
    endloop
  endfacet
  facet normal 0.951057 -0.309017 0
    outer loop
      vertex -8.67868 3.864 -3.6
      vertex -8.67868 3.864 -4.44089e-16
      vertex -9.2924 1.97516 -4.44089e-16
    endloop
  endfacet
  facet normal 0.951057 -0.309017 0
    outer loop
      vertex -9.2924 1.97516 -3.6
      vertex -8.67868 3.864 -3.6
      vertex -9.2924 1.97516 -4.44089e-16
    endloop
  endfacet
  facet normal 0.994522 -0.104529 0
    outer loop
      vertex -9.2924 1.97516 -3.6
      vertex -9.2924 1.97516 -4.44089e-16
      vertex -9.5 0 -4.44089e-16
    endloop
  endfacet
  facet normal 0.994522 -0.104529 0
    outer loop
      vertex -9.5 0 -3.6
      vertex -9.2924 1.97516 -3.6
      vertex -9.5 0 -4.44089e-16
    endloop
  endfacet
  facet normal 0.994522 0.104529 0
    outer loop
      vertex -9.5 0 -4.44089e-16
      vertex -9.36842 -1.25194 -4.44089e-16
      vertex -9.31323 -1.777 -1.8
    endloop
  endfacet
  facet normal 0.994522 0.104529 0
    outer loop
      vertex -9.2924 -1.97516 -3.6
      vertex -9.5 0 -4.44089e-16
      vertex -9.31323 -1.777 -1.8
    endloop
  endfacet
  facet normal 0.994522 0.104529 0
    outer loop
      vertex -9.2924 -1.97516 -1.98203
      vertex -9.2924 -1.97516 -3.6
      vertex -9.31323 -1.777 -1.8
    endloop
  endfacet
  facet normal 0.994522 0.104529 0
    outer loop
      vertex -9.2924 -1.97516 -3.6
      vertex -9.5 0 -3.6
      vertex -9.5 0 -4.44089e-16
    endloop
  endfacet
  facet normal 0.951057 0.309017 0
    outer loop
      vertex -8.67868 -3.864 -3.6
      vertex -8.93362 -3.07937 -3.11769
      vertex -8.67868 -3.864 -3.33392
    endloop
  endfacet
  facet normal 0.951057 0.309017 0
    outer loop
      vertex -9.2924 -1.97516 -3.6
      vertex -8.93362 -3.07937 -3.11769
      vertex -8.67868 -3.864 -3.6
    endloop
  endfacet
  facet normal 0.951057 0.309017 0
    outer loop
      vertex -9.2924 -1.97516 -1.98203
      vertex -8.93362 -3.07937 -3.11769
      vertex -9.2924 -1.97516 -3.6
    endloop
  endfacet
  facet normal 0.866025 0.5 0
    outer loop
      vertex -7.68566 -5.58396 -3.6
      vertex -8.18217 -4.72398 -3.6
      vertex -7.68566 -5.58396 -3.33392
    endloop
  endfacet
  facet normal 0.866025 0.5 0
    outer loop
      vertex -8.67868 -3.864 -3.6
      vertex -8.18217 -4.72398 -3.6
      vertex -7.68566 -5.58396 -3.6
    endloop
  endfacet
  facet normal 0.866025 0.5 0
    outer loop
      vertex -8.67868 -3.864 -3.33392
      vertex -8.18217 -4.72398 -3.6
      vertex -8.67868 -3.864 -3.6
    endloop
  endfacet
  facet normal 0.743145 0.66913 0
    outer loop
      vertex -7.68566 -5.58396 -3.33392
      vertex -7.13362 -6.19706 -3.11769
      vertex -6.35674 -7.05988 -3.6
    endloop
  endfacet
  facet normal 0.743145 0.66913 0
    outer loop
      vertex -6.35674 -7.05988 -3.6
      vertex -7.13362 -6.19706 -3.11769
      vertex -6.35674 -7.05988 -1.98203
    endloop
  endfacet
  facet normal 0.743145 0.66913 0
    outer loop
      vertex -7.68566 -5.58396 -3.33392
      vertex -6.35674 -7.05988 -3.6
      vertex -7.68566 -5.58396 -3.6
    endloop
  endfacet
  facet normal 0.587785 0.809017 0
    outer loop
      vertex -6.19554 -7.177 -1.8
      vertex -5.76842 -7.48732 -4.44089e-16
      vertex -4.75 -8.22724 -4.44089e-16
    endloop
  endfacet
  facet normal 0.587785 0.809017 0
    outer loop
      vertex -6.19554 -7.177 -1.8
      vertex -4.75 -8.22724 -4.44089e-16
      vertex -4.75 -8.22724 -3.6
    endloop
  endfacet
  facet normal 0.587785 0.809017 0
    outer loop
      vertex -6.19554 -7.177 -1.8
      vertex -4.75 -8.22724 -3.6
      vertex -6.35674 -7.05988 -1.98203
    endloop
  endfacet
  facet normal 0.587785 0.809017 0
    outer loop
      vertex -4.75 -8.22724 -3.6
      vertex -6.35674 -7.05988 -3.6
      vertex -6.35674 -7.05988 -1.98203
    endloop
  endfacet
  facet normal 0.406737 0.913545 0
    outer loop
      vertex -2.93566 -9.03504 -4.44089e-16
      vertex -2.93566 -9.03504 -3.6
      vertex -4.75 -8.22724 -4.44089e-16
    endloop
  endfacet
  facet normal 0.406737 0.913545 0
    outer loop
      vertex -4.75 -8.22724 -4.44089e-16
      vertex -2.93566 -9.03504 -3.6
      vertex -4.75 -8.22724 -3.6
    endloop
  endfacet
  facet normal 0.207912 0.978148 0
    outer loop
      vertex -0.99302 -9.44796 -4.44089e-16
      vertex -0.99302 -9.44796 -3.6
      vertex -2.93566 -9.03504 -4.44089e-16
    endloop
  endfacet
  facet normal 0.207912 0.978148 0
    outer loop
      vertex -2.93566 -9.03504 -4.44089e-16
      vertex -0.99302 -9.44796 -3.6
      vertex -2.93566 -9.03504 -3.6
    endloop
  endfacet
  facet normal 0 1 0
    outer loop
      vertex 0.99302 -9.44796 -4.44089e-16
      vertex 0.99302 -9.44796 -3.6
      vertex -0.99302 -9.44796 -4.44089e-16
    endloop
  endfacet
  facet normal 0 1 0
    outer loop
      vertex -0.99302 -9.44796 -4.44089e-16
      vertex 0.99302 -9.44796 -3.6
      vertex -0.99302 -9.44796 -3.6
    endloop
  endfacet
  facet normal -0.207912 0.978148 0
    outer loop
      vertex 2.93566 -9.03504 -4.44089e-16
      vertex 2.93566 -9.03504 -3.6
      vertex 0.99302 -9.44796 -4.44089e-16
    endloop
  endfacet
  facet normal -0.207912 0.978148 0
    outer loop
      vertex 0.99302 -9.44796 -4.44089e-16
      vertex 2.93566 -9.03504 -3.6
      vertex 0.99302 -9.44796 -3.6
    endloop
  endfacet
  facet normal -0.406737 0.913545 0
    outer loop
      vertex 4.75 -8.22724 -4.44089e-16
      vertex 4.75 -8.22724 -3.6
      vertex 2.93566 -9.03504 -4.44089e-16
    endloop
  endfacet
  facet normal -0.406737 0.913545 0
    outer loop
      vertex 2.93566 -9.03504 -4.44089e-16
      vertex 4.75 -8.22724 -3.6
      vertex 2.93566 -9.03504 -3.6
    endloop
  endfacet
  facet normal -0.587785 0.809017 0
    outer loop
      vertex 5.76842 -7.48732 -4.44089e-16
      vertex 6.19554 -7.177 -1.8
      vertex 4.75 -8.22724 -4.44089e-16
    endloop
  endfacet
  facet normal -0.587785 0.809017 0
    outer loop
      vertex 6.35674 -7.05988 -3.6
      vertex 6.19554 -7.177 -1.8
      vertex 6.35674 -7.05988 -1.98203
    endloop
  endfacet
  facet normal -0.587785 0.809017 0
    outer loop
      vertex 4.75 -8.22724 -4.44089e-16
      vertex 6.19554 -7.177 -1.8
      vertex 6.35674 -7.05988 -3.6
    endloop
  endfacet
  facet normal -0.587785 0.809017 0
    outer loop
      vertex 4.75 -8.22724 -4.44089e-16
      vertex 6.35674 -7.05988 -3.6
      vertex 4.75 -8.22724 -3.6
    endloop
  endfacet
  facet normal 0.482963 0.836516 0.258819
    outer loop
      vertex 20.0238 -15.7177 -2.39808e-15
      vertex 20.265 -15.3 -1.8
      vertex 12.4028 -11.3177 -4.44089e-16
    endloop
  endfacet
  facet normal 0.482963 0.836516 0.258819
    outer loop
      vertex 12.4028 -11.3177 -4.44089e-16
      vertex 20.265 -15.3 -1.8
      vertex 6.19554 -7.177 -1.8
    endloop
  endfacet
  facet normal 0.482963 0.836516 0.258819
    outer loop
      vertex 12.4028 -11.3177 -4.44089e-16
      vertex 6.19554 -7.177 -1.8
      vertex 5.76842 -7.48732 -4.44089e-16
    endloop
  endfacet
  facet normal 0.482963 0.836516 -0.258819
    outer loop
      vertex 20.0238 -15.7177 -4.44089e-16
      vertex 20.0238 -15.7177 -2.39808e-15
      vertex 12.4028 -11.3177 -4.44089e-16
    endloop
  endfacet
  facet normal 0.353553 0.612372 0.707107
    outer loop
      vertex 20.265 -15.3 -1.8
      vertex 20.9238 -14.1588 -3.11769
      vertex 7.13362 -6.19706 -3.11769
    endloop
  endfacet
  facet normal 0.353553 0.612372 0.707107
    outer loop
      vertex 6.19554 -7.177 -1.8
      vertex 20.265 -15.3 -1.8
      vertex 6.35674 -7.05988 -1.98203
    endloop
  endfacet
  facet normal 0.353553 0.612372 0.707107
    outer loop
      vertex 6.35674 -7.05988 -1.98203
      vertex 20.265 -15.3 -1.8
      vertex 7.13362 -6.19706 -3.11769
    endloop
  endfacet
  facet normal 0.12941 0.224144 0.965926
    outer loop
      vertex 20.9238 -14.1588 -3.11769
      vertex 21.8238 -12.6 -3.6
      vertex 8.18217 -4.72398 -3.6
    endloop
  endfacet
  facet normal 0.12941 0.224144 0.965926
    outer loop
      vertex 7.13362 -6.19706 -3.11769
      vertex 20.9238 -14.1588 -3.11769
      vertex 7.68566 -5.58396 -3.33392
    endloop
  endfacet
  facet normal 0.12941 0.224144 0.965926
    outer loop
      vertex 7.68566 -5.58396 -3.33392
      vertex 20.9238 -14.1588 -3.11769
      vertex 8.18217 -4.72398 -3.6
    endloop
  endfacet
  facet normal -0.12941 -0.224144 0.965926
    outer loop
      vertex 21.8238 -12.6 -3.6
      vertex 22.7238 -11.0412 -3.11769
      vertex 8.93362 -3.07937 -3.11769
    endloop
  endfacet
  facet normal -0.12941 -0.224144 0.965926
    outer loop
      vertex 8.18217 -4.72398 -3.6
      vertex 21.8238 -12.6 -3.6
      vertex 8.67868 -3.864 -3.33392
    endloop
  endfacet
  facet normal -0.12941 -0.224144 0.965926
    outer loop
      vertex 8.67868 -3.864 -3.33392
      vertex 21.8238 -12.6 -3.6
      vertex 8.93362 -3.07937 -3.11769
    endloop
  endfacet
  facet normal -0.353553 -0.612372 0.707107
    outer loop
      vertex 22.7238 -11.0412 -3.11769
      vertex 23.3827 -9.9 -1.8
      vertex 9.31323 -1.777 -1.8
    endloop
  endfacet
  facet normal -0.353553 -0.612372 0.707107
    outer loop
      vertex 8.93362 -3.07937 -3.11769
      vertex 22.7238 -11.0412 -3.11769
      vertex 9.2924 -1.97516 -1.98203
    endloop
  endfacet
  facet normal -0.353553 -0.612372 0.707107
    outer loop
      vertex 9.2924 -1.97516 -1.98203
      vertex 22.7238 -11.0412 -3.11769
      vertex 9.31323 -1.777 -1.8
    endloop
  endfacet
  facet normal -0.482963 -0.836516 0.258819
    outer loop
      vertex 23.3827 -9.9 -1.8
      vertex 23.6238 -9.48231 -2.39808e-15
      vertex 16.0028 -5.08231 -4.44089e-16
    endloop
  endfacet
  facet normal -0.482963 -0.836516 0.258819
    outer loop
      vertex 9.31323 -1.777 -1.8
      vertex 23.3827 -9.9 -1.8
      vertex 9.36842 -1.25194 -4.44089e-16
    endloop
  endfacet
  facet normal -0.482963 -0.836516 0.258819
    outer loop
      vertex 9.36842 -1.25194 -4.44089e-16
      vertex 23.3827 -9.9 -1.8
      vertex 16.0028 -5.08231 -4.44089e-16
    endloop
  endfacet
  facet normal -0.482963 -0.836516 -0.258819
    outer loop
      vertex 23.6238 -9.48231 -2.39808e-15
      vertex 23.6238 -9.48231 -4.44089e-16
      vertex 16.0028 -5.08231 -4.44089e-16
    endloop
  endfacet
  facet normal 0 0 1
    outer loop
      vertex 4.75 8.22724 -4.44089e-16
      vertex 6.35674 7.05988 -4.44089e-16
      vertex 7.2 25.2 -4.44089e-16
    endloop
  endfacet
  facet normal 0 0 1
    outer loop
      vertex 7.2 25.2 -4.44089e-16
      vertex 3.6 25.2 -4.44089e-16
      vertex 3.6 16.4 -4.44089e-16
    endloop
  endfacet
  facet normal 0 0 1
    outer loop
      vertex 3.6 8.73925 -4.44089e-16
      vertex 7.2 25.2 -4.44089e-16
      vertex 3.6 16.4 -4.44089e-16
    endloop
  endfacet
  facet normal 0 0 1
    outer loop
      vertex 3.6 8.73925 -4.44089e-16
      vertex 4.75 8.22724 -4.44089e-16
      vertex 7.2 25.2 -4.44089e-16
    endloop
  endfacet
  facet normal 0 0 1
    outer loop
      vertex 11.9674 5.32825 -4.44089e-16
      vertex 10.5981 7.69999 -4.44089e-16
      vertex 13.016 0.799043 -4.44089e-16
    endloop
  endfacet
  facet normal 0 0 1
    outer loop
      vertex 9.36842 -1.25194 -4.44089e-16
      vertex 16.0028 -5.08231 -4.44089e-16
      vertex 9.5 0 -4.44089e-16
    endloop
  endfacet
  facet normal 0 0 1
    outer loop
      vertex 8.76561 9.7352 -4.44089e-16
      vertex 8.67868 3.864 -4.44089e-16
      vertex 9.2924 1.97516 -4.44089e-16
    endloop
  endfacet
  facet normal 0 0 1
    outer loop
      vertex 8.76561 9.7352 -4.44089e-16
      vertex 7.68566 5.58396 -4.44089e-16
      vertex 8.67868 3.864 -4.44089e-16
    endloop
  endfacet
  facet normal 0 0 1
    outer loop
      vertex 9.5 0 -4.44089e-16
      vertex 16.0028 -5.08231 -4.44089e-16
      vertex 13.016 0.799043 -4.44089e-16
    endloop
  endfacet
  facet normal 0 0 1
    outer loop
      vertex 8.76561 9.7352 -4.44089e-16
      vertex 9.2924 1.97516 -4.44089e-16
      vertex 9.5 0 -4.44089e-16
    endloop
  endfacet
  facet normal 0 0 1
    outer loop
      vertex 13.016 0.799043 -4.44089e-16
      vertex 12.8137 2.72364 -4.44089e-16
      vertex 11.9674 5.32825 -4.44089e-16
    endloop
  endfacet
  facet normal 0 0 1
    outer loop
      vertex 9.5 0 -4.44089e-16
      vertex 13.016 0.799043 -4.44089e-16
      vertex 10.5981 7.69999 -4.44089e-16
    endloop
  endfacet
  facet normal 0 0 1
    outer loop
      vertex 9.5 0 -4.44089e-16
      vertex 10.5981 7.69999 -4.44089e-16
      vertex 8.76561 9.7352 -4.44089e-16
    endloop
  endfacet
  facet normal 0 0 1
    outer loop
      vertex 6.35674 7.05988 -4.44089e-16
      vertex 7.2 10.8727 -4.44089e-16
      vertex 7.2 25.2 -4.44089e-16
    endloop
  endfacet
  facet normal 0 0 1
    outer loop
      vertex 6.35674 7.05988 -4.44089e-16
      vertex 7.68566 5.58396 -4.44089e-16
      vertex 7.2 10.8727 -4.44089e-16
    endloop
  endfacet
  facet normal 0 0 1
    outer loop
      vertex 25.4238 -6.36462 -4.44089e-16
      vertex 16.0028 -5.08231 -4.44089e-16
      vertex 23.6238 -9.48231 -4.44089e-16
    endloop
  endfacet
  facet normal 0 0 1
    outer loop
      vertex 25.4238 -6.36462 -4.44089e-16
      vertex 13.016 0.799043 -4.44089e-16
      vertex 16.0028 -5.08231 -4.44089e-16
    endloop
  endfacet
  facet normal 0 0 1
    outer loop
      vertex 8.76561 9.7352 -4.44089e-16
      vertex 7.2 10.8727 -4.44089e-16
      vertex 7.68566 5.58396 -4.44089e-16
    endloop
  endfacet
  facet normal -0.965926 -5.74694e-17 -0.258819
    outer loop
      vertex 3.6 25.2 -2.39808e-15
      vertex 3.6 16.4 -4.44089e-16
      vertex 3.6 25.2 -4.44089e-16
    endloop
  endfacet
  facet normal -0.965926 5.74694e-17 0.258819
    outer loop
      vertex 3.6 16.4 -4.44089e-16
      vertex 3.6 25.2 -2.39808e-15
      vertex 3.6 8.73925 -4.44089e-16
    endloop
  endfacet
  facet normal -0.965926 5.74694e-17 0.258819
    outer loop
      vertex 3.6 8.73925 -4.44089e-16
      vertex 3.6 25.2 -2.39808e-15
      vertex 3.11769 25.2 -1.8
    endloop
  endfacet
  facet normal -0.965926 5.74694e-17 0.258819
    outer loop
      vertex 3.6 8.73925 -4.44089e-16
      vertex 3.11769 25.2 -1.8
      vertex 3.11769 8.95399 -1.8
    endloop
  endfacet
  facet normal -0.707107 1.57009e-16 0.707107
    outer loop
      vertex 3.11769 8.95399 -1.8
      vertex 3.11769 25.2 -1.8
      vertex 2.93566 9.03504 -1.98203
    endloop
  endfacet
  facet normal -0.707107 1.57009e-16 0.707107
    outer loop
      vertex 2.93566 9.03504 -1.98203
      vertex 3.11769 25.2 -1.8
      vertex 1.8 25.2 -3.11769
    endloop
  endfacet
  facet normal -0.707107 1.57009e-16 0.707107
    outer loop
      vertex 2.93566 9.03504 -1.98203
      vertex 1.8 25.2 -3.11769
      vertex 1.8 9.27643 -3.11769
    endloop
  endfacet
  facet normal -0.258819 2.14479e-16 0.965926
    outer loop
      vertex 0.99302 9.44796 -3.33392
      vertex 1.8 9.27643 -3.11769
      vertex 1.8 25.2 -3.11769
    endloop
  endfacet
  facet normal -0.258819 2.14479e-16 0.965926
    outer loop
      vertex 0 9.44796 -3.6
      vertex 0.99302 9.44796 -3.33392
      vertex 0 25.2 -3.6
    endloop
  endfacet
  facet normal -0.258819 2.14479e-16 0.965926
    outer loop
      vertex 0 25.2 -3.6
      vertex 0.99302 9.44796 -3.33392
      vertex 1.8 25.2 -3.11769
    endloop
  endfacet
  facet normal 0.258819 2.14479e-16 0.965926
    outer loop
      vertex -0.99302 9.44796 -3.33392
      vertex 0 9.44796 -3.6
      vertex 0 25.2 -3.6
    endloop
  endfacet
  facet normal 0.258819 2.14479e-16 0.965926
    outer loop
      vertex -1.8 9.27643 -3.11769
      vertex -0.99302 9.44796 -3.33392
      vertex -1.8 25.2 -3.11769
    endloop
  endfacet
  facet normal 0.258819 2.14479e-16 0.965926
    outer loop
      vertex -1.8 25.2 -3.11769
      vertex -0.99302 9.44796 -3.33392
      vertex 0 25.2 -3.6
    endloop
  endfacet
  facet normal 0.707107 1.57009e-16 0.707107
    outer loop
      vertex -2.93566 9.03504 -1.98203
      vertex -1.8 9.27643 -3.11769
      vertex -1.8 25.2 -3.11769
    endloop
  endfacet
  facet normal 0.707107 1.57009e-16 0.707107
    outer loop
      vertex -3.11769 8.95399 -1.8
      vertex -2.93566 9.03504 -1.98203
      vertex -3.11769 25.2 -1.8
    endloop
  endfacet
  facet normal 0.707107 1.57009e-16 0.707107
    outer loop
      vertex -3.11769 25.2 -1.8
      vertex -2.93566 9.03504 -1.98203
      vertex -1.8 25.2 -3.11769
    endloop
  endfacet
  facet normal 0 0 1
    outer loop
      vertex -9.2924 -1.97516 -3.6
      vertex -8.67868 -3.864 -3.6
      vertex -7.68566 -5.58396 -3.6
    endloop
  endfacet
  facet normal 0 0 1
    outer loop
      vertex -4.75 -8.22724 -3.6
      vertex -9.2924 -1.97516 -3.6
      vertex -6.35674 -7.05988 -3.6
    endloop
  endfacet
  facet normal 0 0 1
    outer loop
      vertex -6.35674 -7.05988 -3.6
      vertex -9.2924 -1.97516 -3.6
      vertex -7.68566 -5.58396 -3.6
    endloop
  endfacet
  facet normal 0 0 1
    outer loop
      vertex -2.93566 -9.03504 -3.6
      vertex -9.2924 -1.97516 -3.6
      vertex -4.75 -8.22724 -3.6
    endloop
  endfacet
  facet normal 0 0 1
    outer loop
      vertex -0.99302 -9.44796 -3.6
      vertex -9.2924 -1.97516 -3.6
      vertex -2.93566 -9.03504 -3.6
    endloop
  endfacet
  facet normal 0 0 1
    outer loop
      vertex 0.99302 -9.44796 -3.6
      vertex -9.2924 -1.97516 -3.6
      vertex -0.99302 -9.44796 -3.6
    endloop
  endfacet
  facet normal 0 0 1
    outer loop
      vertex 2.93566 -9.03504 -3.6
      vertex -9.2924 -1.97516 -3.6
      vertex 0.99302 -9.44796 -3.6
    endloop
  endfacet
  facet normal 0 0 1
    outer loop
      vertex 4.75 -8.22724 -3.6
      vertex -9.2924 -1.97516 -3.6
      vertex 2.93566 -9.03504 -3.6
    endloop
  endfacet
  facet normal 0 0 1
    outer loop
      vertex 6.35674 -7.05988 -3.6
      vertex -9.2924 -1.97516 -3.6
      vertex 4.75 -8.22724 -3.6
    endloop
  endfacet
  facet normal 0 0 1
    outer loop
      vertex 7.68566 -5.58396 -3.6
      vertex -9.2924 -1.97516 -3.6
      vertex 6.35674 -7.05988 -3.6
    endloop
  endfacet
  facet normal 0 0 1
    outer loop
      vertex -0.455407 -3.16743 -3.6
      vertex -9.2924 -1.97516 -3.6
      vertex 7.68566 -5.58396 -3.6
    endloop
  endfacet
  facet normal 0 0 1
    outer loop
      vertex -0.455407 -3.16743 -3.6
      vertex -2.09555 -2.4184 -3.6
      vertex -9.2924 -1.97516 -3.6
    endloop
  endfacet
  facet normal 0 0 1
    outer loop
      vertex -2.09555 -2.4184 -3.6
      vertex -3.07038 -0.901544 -3.6
      vertex -9.2924 -1.97516 -3.6
    endloop
  endfacet
  facet normal 0 0 1
    outer loop
      vertex 1.32933 2.91082 -3.6
      vertex 8.67868 3.864 -3.6
      vertex 7.68566 5.58396 -3.6
    endloop
  endfacet
  facet normal 0 0 1
    outer loop
      vertex -0.455407 3.16743 -3.6
      vertex 1.32933 2.91082 -3.6
      vertex 6.35674 7.05988 -3.6
    endloop
  endfacet
  facet normal 0 0 1
    outer loop
      vertex 2.93566 9.03504 -3.6
      vertex -9.2924 -1.97516 -3.6
      vertex 4.75 8.22724 -3.6
    endloop
  endfacet
  facet normal 0 0 1
    outer loop
      vertex 0.99302 9.44796 -3.6
      vertex -9.2924 -1.97516 -3.6
      vertex 2.93566 9.03504 -3.6
    endloop
  endfacet
  facet normal 0 0 1
    outer loop
      vertex -0.99302 9.44796 -3.6
      vertex -9.2924 -1.97516 -3.6
      vertex 0.99302 9.44796 -3.6
    endloop
  endfacet
  facet normal 0 0 1
    outer loop
      vertex -2.93566 9.03504 -3.6
      vertex -9.2924 -1.97516 -3.6
      vertex -0.99302 9.44796 -3.6
    endloop
  endfacet
  facet normal 0 0 1
    outer loop
      vertex -4.75 8.22724 -3.6
      vertex -9.2924 -1.97516 -3.6
      vertex -2.93566 9.03504 -3.6
    endloop
  endfacet
  facet normal 0 0 1
    outer loop
      vertex -6.35674 7.05988 -3.6
      vertex -9.2924 -1.97516 -3.6
      vertex -4.75 8.22724 -3.6
    endloop
  endfacet
  facet normal 0 0 1
    outer loop
      vertex -7.68566 5.58396 -3.6
      vertex -9.2924 -1.97516 -3.6
      vertex -6.35674 7.05988 -3.6
    endloop
  endfacet
  facet normal 0 0 1
    outer loop
      vertex -8.67868 3.864 -3.6
      vertex -9.2924 -1.97516 -3.6
      vertex -7.68566 5.58396 -3.6
    endloop
  endfacet
  facet normal 0 0 1
    outer loop
      vertex -9.2924 1.97516 -3.6
      vertex -9.2924 -1.97516 -3.6
      vertex -8.67868 3.864 -3.6
    endloop
  endfacet
  facet normal 0 0 1
    outer loop
      vertex -9.5 0 -3.6
      vertex -9.2924 -1.97516 -3.6
      vertex -9.2924 1.97516 -3.6
    endloop
  endfacet
  facet normal 0 0 1
    outer loop
      vertex 2.69201 1.73005 -3.6
      vertex 3.2 0 -3.6
      vertex 9.2924 1.97516 -3.6
    endloop
  endfacet
  facet normal 0 0 1
    outer loop
      vertex 1.32933 2.91082 -3.6
      vertex 2.69201 1.73005 -3.6
      vertex 8.67868 3.864 -3.6
    endloop
  endfacet
  facet normal 0 0 1
    outer loop
      vertex 4.75 8.22724 -3.6
      vertex -2.09555 2.4184 -3.6
      vertex 6.35674 7.05988 -3.6
    endloop
  endfacet
  facet normal 0 0 1
    outer loop
      vertex 4.75 8.22724 -3.6
      vertex -9.2924 -1.97516 -3.6
      vertex -2.09555 2.4184 -3.6
    endloop
  endfacet
  facet normal 0 0 1
    outer loop
      vertex -2.09555 2.4184 -3.6
      vertex -0.455407 3.16743 -3.6
      vertex 6.35674 7.05988 -3.6
    endloop
  endfacet
  facet normal 0 0 1
    outer loop
      vertex 6.35674 7.05988 -3.6
      vertex 1.32933 2.91082 -3.6
      vertex 7.68566 5.58396 -3.6
    endloop
  endfacet
  facet normal 0 0 1
    outer loop
      vertex 8.67868 3.864 -3.6
      vertex 2.69201 1.73005 -3.6
      vertex 9.2924 1.97516 -3.6
    endloop
  endfacet
  facet normal 0 0 1
    outer loop
      vertex -3.07038 0.901544 -3.6
      vertex -2.09555 2.4184 -3.6
      vertex -9.2924 -1.97516 -3.6
    endloop
  endfacet
  facet normal 0 0 1
    outer loop
      vertex 9.2924 1.97516 -3.6
      vertex 3.2 0 -3.6
      vertex 9.5 0 -3.6
    endloop
  endfacet
  facet normal 0 0 1
    outer loop
      vertex 9.5 0 -3.6
      vertex 2.69201 -1.73005 -3.6
      vertex 9.2924 -1.97516 -3.6
    endloop
  endfacet
  facet normal 0 0 1
    outer loop
      vertex 9.2924 -1.97516 -3.6
      vertex 1.32933 -2.91082 -3.6
      vertex 8.67868 -3.864 -3.6
    endloop
  endfacet
  facet normal 0 0 1
    outer loop
      vertex 8.67868 -3.864 -3.6
      vertex -0.455407 -3.16743 -3.6
      vertex 7.68566 -5.58396 -3.6
    endloop
  endfacet
  facet normal 0 0 1
    outer loop
      vertex 1.32933 -2.91082 -3.6
      vertex -0.455407 -3.16743 -3.6
      vertex 8.67868 -3.864 -3.6
    endloop
  endfacet
  facet normal 0 0 1
    outer loop
      vertex 2.69201 -1.73005 -3.6
      vertex 1.32933 -2.91082 -3.6
      vertex 9.2924 -1.97516 -3.6
    endloop
  endfacet
  facet normal 0 0 1
    outer loop
      vertex 3.2 0 -3.6
      vertex 2.69201 -1.73005 -3.6
      vertex 9.5 0 -3.6
    endloop
  endfacet
  facet normal 0 0 1
    outer loop
      vertex -3.07038 -0.901544 -3.6
      vertex -3.07038 0.901544 -3.6
      vertex -9.2924 -1.97516 -3.6
    endloop
  endfacet
  facet normal 0.207912 -0.978148 0
    outer loop
      vertex -0.99302 9.44796 -3.6
      vertex -0.99302 9.44796 -3.33392
      vertex -1.8 9.27643 -3.11769
    endloop
  endfacet
  facet normal 0.207912 -0.978148 0
    outer loop
      vertex -2.93566 9.03504 -3.6
      vertex -0.99302 9.44796 -3.6
      vertex -1.8 9.27643 -3.11769
    endloop
  endfacet
  facet normal 0.207912 -0.978148 0
    outer loop
      vertex -2.93566 9.03504 -1.98203
      vertex -2.93566 9.03504 -3.6
      vertex -1.8 9.27643 -3.11769
    endloop
  endfacet
  facet normal -0.743145 0.66913 0
    outer loop
      vertex 7.13362 -6.19706 -3.11769
      vertex 7.68566 -5.58396 -3.33392
      vertex 7.68566 -5.58396 -3.6
    endloop
  endfacet
  facet normal -0.743145 0.66913 0
    outer loop
      vertex 7.13362 -6.19706 -3.11769
      vertex 7.68566 -5.58396 -3.6
      vertex 6.35674 -7.05988 -3.6
    endloop
  endfacet
  facet normal -0.743145 0.66913 0
    outer loop
      vertex 7.13362 -6.19706 -3.11769
      vertex 6.35674 -7.05988 -3.6
      vertex 6.35674 -7.05988 -1.98203
    endloop
  endfacet
  facet normal -0.866025 0.5 0
    outer loop
      vertex 8.18217 -4.72398 -3.6
      vertex 8.67868 -3.864 -3.33392
      vertex 8.67868 -3.864 -3.6
    endloop
  endfacet
  facet normal -0.866025 0.5 0
    outer loop
      vertex 8.18217 -4.72398 -3.6
      vertex 8.67868 -3.864 -3.6
      vertex 7.68566 -5.58396 -3.6
    endloop
  endfacet
  facet normal -0.866025 0.5 0
    outer loop
      vertex 8.18217 -4.72398 -3.6
      vertex 7.68566 -5.58396 -3.6
      vertex 7.68566 -5.58396 -3.33392
    endloop
  endfacet
  facet normal -0.951057 0.309017 0
    outer loop
      vertex 8.93362 -3.07937 -3.11769
      vertex 9.2924 -1.97516 -1.98203
      vertex 9.2924 -1.97516 -3.6
    endloop
  endfacet
  facet normal -0.951057 0.309017 0
    outer loop
      vertex 8.93362 -3.07937 -3.11769
      vertex 9.2924 -1.97516 -3.6
      vertex 8.67868 -3.864 -3.33392
    endloop
  endfacet
  facet normal -0.951057 0.309017 0
    outer loop
      vertex 9.2924 -1.97516 -3.6
      vertex 8.67868 -3.864 -3.6
      vertex 8.67868 -3.864 -3.33392
    endloop
  endfacet
  facet normal -0.994522 0.104529 0
    outer loop
      vertex 9.31323 -1.777 -1.8
      vertex 9.36842 -1.25194 -4.44089e-16
      vertex 9.5 0 -4.44089e-16
    endloop
  endfacet
  facet normal -0.994522 0.104529 0
    outer loop
      vertex 9.31323 -1.777 -1.8
      vertex 9.5 0 -4.44089e-16
      vertex 9.5 0 -3.6
    endloop
  endfacet
  facet normal -0.994522 0.104529 0
    outer loop
      vertex 9.31323 -1.777 -1.8
      vertex 9.5 0 -3.6
      vertex 9.2924 -1.97516 -1.98203
    endloop
  endfacet
  facet normal -0.994522 0.104529 0
    outer loop
      vertex 9.5 0 -3.6
      vertex 9.2924 -1.97516 -3.6
      vertex 9.2924 -1.97516 -1.98203
    endloop
  endfacet
  facet normal -0.994522 -0.104529 0
    outer loop
      vertex 9.5 0 -4.44089e-16
      vertex 9.2924 1.97516 -4.44089e-16
      vertex 9.5 0 -3.6
    endloop
  endfacet
  facet normal -0.994522 -0.104529 0
    outer loop
      vertex 9.5 0 -3.6
      vertex 9.2924 1.97516 -4.44089e-16
      vertex 9.2924 1.97516 -3.6
    endloop
  endfacet
  facet normal -0.951057 -0.309017 0
    outer loop
      vertex 9.2924 1.97516 -4.44089e-16
      vertex 8.67868 3.864 -4.44089e-16
      vertex 9.2924 1.97516 -3.6
    endloop
  endfacet
  facet normal -0.951057 -0.309017 0
    outer loop
      vertex 9.2924 1.97516 -3.6
      vertex 8.67868 3.864 -4.44089e-16
      vertex 8.67868 3.864 -3.6
    endloop
  endfacet
  facet normal -0.866025 -0.5 0
    outer loop
      vertex 8.67868 3.864 -4.44089e-16
      vertex 7.68566 5.58396 -4.44089e-16
      vertex 8.67868 3.864 -3.6
    endloop
  endfacet
  facet normal -0.866025 -0.5 0
    outer loop
      vertex 8.67868 3.864 -3.6
      vertex 7.68566 5.58396 -4.44089e-16
      vertex 7.68566 5.58396 -3.6
    endloop
  endfacet
  facet normal -0.743145 -0.66913 0
    outer loop
      vertex 7.68566 5.58396 -4.44089e-16
      vertex 6.35674 7.05988 -4.44089e-16
      vertex 7.68566 5.58396 -3.6
    endloop
  endfacet
  facet normal -0.743145 -0.66913 0
    outer loop
      vertex 7.68566 5.58396 -3.6
      vertex 6.35674 7.05988 -4.44089e-16
      vertex 6.35674 7.05988 -3.6
    endloop
  endfacet
  facet normal -0.587785 -0.809017 0
    outer loop
      vertex 6.35674 7.05988 -3.6
      vertex 6.35674 7.05988 -4.44089e-16
      vertex 4.75 8.22724 -4.44089e-16
    endloop
  endfacet
  facet normal -0.587785 -0.809017 0
    outer loop
      vertex 4.75 8.22724 -3.6
      vertex 6.35674 7.05988 -3.6
      vertex 4.75 8.22724 -4.44089e-16
    endloop
  endfacet
  facet normal -0.406737 -0.913545 0
    outer loop
      vertex 4.75 8.22724 -3.6
      vertex 4.75 8.22724 -4.44089e-16
      vertex 3.6 8.73925 -4.44089e-16
    endloop
  endfacet
  facet normal -0.406737 -0.913545 0
    outer loop
      vertex 2.93566 9.03504 -1.98203
      vertex 4.75 8.22724 -3.6
      vertex 3.11769 8.95399 -1.8
    endloop
  endfacet
  facet normal -0.406737 -0.913545 0
    outer loop
      vertex 3.11769 8.95399 -1.8
      vertex 4.75 8.22724 -3.6
      vertex 3.6 8.73925 -4.44089e-16
    endloop
  endfacet
  facet normal -0.406737 -0.913545 0
    outer loop
      vertex 2.93566 9.03504 -3.6
      vertex 4.75 8.22724 -3.6
      vertex 2.93566 9.03504 -1.98203
    endloop
  endfacet
  facet normal -0.207912 -0.978148 0
    outer loop
      vertex 2.93566 9.03504 -3.6
      vertex 2.93566 9.03504 -1.98203
      vertex 1.8 9.27643 -3.11769
    endloop
  endfacet
  facet normal -0.207912 -0.978148 0
    outer loop
      vertex 0.99302 9.44796 -3.33392
      vertex 2.93566 9.03504 -3.6
      vertex 1.8 9.27643 -3.11769
    endloop
  endfacet
  facet normal -0.207912 -0.978148 0
    outer loop
      vertex 0.99302 9.44796 -3.33392
      vertex 0.99302 9.44796 -3.6
      vertex 2.93566 9.03504 -3.6
    endloop
  endfacet
  facet normal 0 -1 0
    outer loop
      vertex 0.99302 9.44796 -3.6
      vertex 0.99302 9.44796 -3.33392
      vertex 0 9.44796 -3.6
    endloop
  endfacet
  facet normal 0 -1 0
    outer loop
      vertex -0.99302 9.44796 -3.6
      vertex 0.99302 9.44796 -3.6
      vertex 0 9.44796 -3.6
    endloop
  endfacet
  facet normal 0 -1 0
    outer loop
      vertex -0.99302 9.44796 -3.33392
      vertex -0.99302 9.44796 -3.6
      vertex 0 9.44796 -3.6
    endloop
  endfacet
endsolid OpenSCAD_Model
