G75*
%MOIN*%
%OFA0B0*%
%FSLAX24Y24*%
%IPPOS*%
%LPD*%
%AMOC8*
5,1,8,0,0,1.08239X$1,22.5*
%
%ADD10R,0.0709X0.0630*%
%ADD11R,0.0630X0.0709*%
%ADD12R,0.0748X0.1339*%
%ADD13C,0.1000*%
%ADD14C,0.1500*%
%ADD15C,0.0240*%
%ADD16C,0.0660*%
%ADD17C,0.0160*%
D10*
X006680Y013129D03*
X006680Y014231D03*
X009680Y014231D03*
X009680Y013129D03*
X013180Y013129D03*
X013180Y014231D03*
X016680Y014231D03*
X016680Y013129D03*
X019680Y013129D03*
X019680Y014231D03*
D11*
X018231Y004680D03*
X017129Y004680D03*
X015231Y004680D03*
X014129Y004680D03*
X011731Y004680D03*
X010629Y004680D03*
X008231Y004680D03*
X007129Y004680D03*
D12*
G36*
X007137Y003692D02*
X006608Y003163D01*
X005663Y004108D01*
X006192Y004637D01*
X007137Y003692D01*
G37*
G36*
X009168Y004637D02*
X009697Y004108D01*
X008752Y003163D01*
X008223Y003692D01*
X009168Y004637D01*
G37*
G36*
X010608Y003197D02*
X011137Y002668D01*
X010192Y001723D01*
X009663Y002252D01*
X010608Y003197D01*
G37*
G36*
X012697Y002252D02*
X012168Y001723D01*
X011223Y002668D01*
X011752Y003197D01*
X012697Y002252D01*
G37*
G36*
X014137Y003692D02*
X013608Y003163D01*
X012663Y004108D01*
X013192Y004637D01*
X014137Y003692D01*
G37*
G36*
X016168Y004637D02*
X016697Y004108D01*
X015752Y003163D01*
X015223Y003692D01*
X016168Y004637D01*
G37*
G36*
X017608Y003197D02*
X018137Y002668D01*
X017192Y001723D01*
X016663Y002252D01*
X017608Y003197D01*
G37*
G36*
X019697Y002252D02*
X019168Y001723D01*
X018223Y002668D01*
X018752Y003197D01*
X019697Y002252D01*
G37*
G36*
X021137Y003692D02*
X020608Y003163D01*
X019663Y004108D01*
X020192Y004637D01*
X021137Y003692D01*
G37*
G36*
X019192Y010223D02*
X018663Y010752D01*
X019608Y011697D01*
X020137Y011168D01*
X019192Y010223D01*
G37*
G36*
X017752Y011663D02*
X017223Y012192D01*
X018168Y013137D01*
X018697Y012608D01*
X017752Y011663D01*
G37*
G36*
X016137Y012192D02*
X015608Y011663D01*
X014663Y012608D01*
X015192Y013137D01*
X016137Y012192D01*
G37*
G36*
X014697Y010752D02*
X014168Y010223D01*
X013223Y011168D01*
X013752Y011697D01*
X014697Y010752D01*
G37*
G36*
X012192Y010223D02*
X011663Y010752D01*
X012608Y011697D01*
X013137Y011168D01*
X012192Y010223D01*
G37*
G36*
X010752Y011663D02*
X010223Y012192D01*
X011168Y013137D01*
X011697Y012608D01*
X010752Y011663D01*
G37*
G36*
X009137Y012192D02*
X008608Y011663D01*
X007663Y012608D01*
X008192Y013137D01*
X009137Y012192D01*
G37*
G36*
X007697Y010752D02*
X007168Y010223D01*
X006223Y011168D01*
X006752Y011697D01*
X007697Y010752D01*
G37*
G36*
X005697Y002252D02*
X005168Y001723D01*
X004223Y002668D01*
X004752Y003197D01*
X005697Y002252D01*
G37*
D13*
X001680Y008180D03*
X024680Y004680D03*
X024680Y011680D03*
D14*
X024680Y009243D03*
X024680Y007118D03*
X024680Y002243D03*
X024680Y014118D03*
X001680Y010618D03*
X001680Y005743D03*
D15*
X001680Y004741D01*
X004960Y002460D01*
X010400Y002460D01*
X011960Y002460D01*
X017400Y002460D01*
X018960Y002460D01*
X019178Y002243D01*
X024680Y002243D01*
X022180Y004680D02*
X021400Y003900D01*
X020400Y003900D01*
X019680Y004619D01*
X019680Y004680D01*
X018231Y004680D01*
X017129Y004680D02*
X016680Y004680D01*
X015960Y003960D01*
X015960Y003900D01*
X015231Y004629D01*
X015231Y004680D01*
X014129Y004680D02*
X013400Y003951D01*
X013400Y003900D01*
X013180Y004119D01*
X013180Y004180D01*
X012680Y004680D01*
X011731Y004680D01*
X010629Y004680D02*
X009680Y004680D01*
X008960Y003960D01*
X008960Y003900D01*
X008231Y004629D01*
X008231Y004680D01*
X007129Y004680D02*
X004129Y008180D01*
X004180Y008180D01*
X006960Y010960D01*
X006680Y011241D01*
X006680Y013129D01*
X006629Y014180D02*
X006680Y014231D01*
X009680Y014231D01*
X013180Y014231D01*
X016680Y014231D01*
X019680Y014231D01*
X024566Y014231D01*
X024680Y014118D01*
X024680Y011680D02*
X020180Y011680D01*
X019680Y011180D01*
X019619Y011180D01*
X019400Y010960D01*
X019680Y011180D02*
X019680Y013129D01*
X017960Y012400D02*
X017680Y012680D01*
X017680Y012680D01*
X017231Y013129D01*
X016680Y013129D01*
X016629Y013180D01*
X016180Y013180D01*
X015400Y012400D01*
X013180Y013129D02*
X013180Y010960D01*
X013960Y010960D01*
X013180Y010960D02*
X012400Y010960D01*
X010960Y012400D02*
X010680Y012680D01*
X010680Y012680D01*
X010231Y013129D01*
X009680Y013129D01*
X009629Y013180D01*
X009180Y013180D01*
X008400Y012400D01*
X006629Y014180D02*
X004680Y014180D01*
X001680Y011680D01*
X001680Y010618D01*
X001680Y008180D02*
X004129Y008180D01*
X007129Y004680D02*
X006400Y003951D01*
X006400Y003900D01*
X022180Y004680D02*
X024680Y004680D01*
X024680Y007118D02*
X024680Y009243D01*
D16*
X022680Y008180D03*
X019180Y009180D03*
X020680Y010680D03*
X022680Y010680D03*
X022680Y012680D03*
X021180Y012680D03*
X021180Y014680D03*
X018180Y014680D03*
X014680Y014680D03*
X011180Y014680D03*
X008180Y014680D03*
X005180Y013180D03*
X003680Y014180D03*
X009680Y011180D03*
X006680Y009180D03*
X004180Y009680D03*
X006680Y007180D03*
X004680Y006180D03*
X007680Y003180D03*
X007680Y001680D03*
X011180Y001680D03*
X014680Y001680D03*
X014680Y003180D03*
X018180Y001680D03*
X022680Y003680D03*
X022680Y005680D03*
X020680Y005680D03*
X016680Y006180D03*
X013180Y006180D03*
X009680Y006180D03*
X009680Y008680D03*
X013180Y009680D03*
X016680Y008680D03*
X016680Y011180D03*
X003680Y002180D03*
D17*
X000760Y000760D02*
X000760Y005602D01*
X000762Y005586D01*
X000785Y005485D01*
X000819Y005386D01*
X000865Y005292D01*
X000920Y005203D01*
X000985Y005122D01*
X001059Y005048D01*
X001141Y004983D01*
X001229Y004927D01*
X001324Y004882D01*
X001422Y004847D01*
X001524Y004824D01*
X001600Y004816D01*
X001600Y005662D01*
X001760Y005662D01*
X001760Y004816D01*
X001836Y004824D01*
X001938Y004847D01*
X002036Y004882D01*
X002131Y004927D01*
X002219Y004983D01*
X002301Y005048D01*
X002375Y005122D01*
X002440Y005203D01*
X002495Y005292D01*
X002541Y005386D01*
X002575Y005485D01*
X002598Y005586D01*
X002607Y005663D01*
X001760Y005663D01*
X001760Y005822D01*
X002607Y005822D01*
X002598Y005899D01*
X002575Y006000D01*
X002541Y006099D01*
X002495Y006193D01*
X002440Y006282D01*
X002375Y006363D01*
X002301Y006437D01*
X002219Y006502D01*
X002131Y006558D01*
X002036Y006603D01*
X001938Y006638D01*
X001836Y006661D01*
X001760Y006669D01*
X001760Y005823D01*
X001600Y005823D01*
X001600Y006669D01*
X001524Y006661D01*
X001422Y006638D01*
X001324Y006603D01*
X001229Y006558D01*
X001141Y006502D01*
X001059Y006437D01*
X000985Y006363D01*
X000920Y006282D01*
X000865Y006193D01*
X000819Y006099D01*
X000785Y006000D01*
X000762Y005899D01*
X000760Y005883D01*
X000760Y007613D01*
X000816Y007517D01*
X001017Y007316D01*
X001263Y007174D01*
X001538Y007100D01*
X001822Y007100D01*
X002097Y007174D01*
X002343Y007316D01*
X002507Y007480D01*
X003807Y007480D01*
X005841Y005107D01*
X005170Y004437D01*
X005082Y004224D01*
X005082Y003993D01*
X005170Y003780D01*
X006280Y002670D01*
X006493Y002582D01*
X006724Y002582D01*
X006937Y002670D01*
X007629Y003362D01*
X007680Y003485D01*
X007731Y003362D01*
X008423Y002670D01*
X008636Y002582D01*
X008867Y002582D01*
X009080Y002670D01*
X010168Y003758D01*
X010198Y003746D01*
X011059Y003746D01*
X011180Y003796D01*
X011301Y003746D01*
X012162Y003746D01*
X012192Y003758D01*
X013280Y002670D01*
X013493Y002582D01*
X013724Y002582D01*
X013937Y002670D01*
X014629Y003362D01*
X014680Y003485D01*
X014731Y003362D01*
X015423Y002670D01*
X015636Y002582D01*
X015867Y002582D01*
X016080Y002670D01*
X017156Y003746D01*
X017559Y003746D01*
X017680Y003796D01*
X017801Y003746D01*
X018662Y003746D01*
X018875Y003834D01*
X019021Y003980D01*
X019087Y003980D01*
X019170Y003780D01*
X020280Y002670D01*
X020493Y002582D01*
X020724Y002582D01*
X020937Y002670D01*
X021466Y003200D01*
X021539Y003200D01*
X021796Y003306D01*
X022470Y003980D01*
X023853Y003980D01*
X024017Y003816D01*
X024263Y003674D01*
X024538Y003600D01*
X024822Y003600D01*
X025097Y003674D01*
X025343Y003816D01*
X025470Y003943D01*
X025470Y002733D01*
X025440Y002782D01*
X025375Y002863D01*
X025301Y002937D01*
X025219Y003002D01*
X025131Y003058D01*
X025036Y003103D01*
X024938Y003138D01*
X024836Y003161D01*
X024760Y003169D01*
X024760Y002323D01*
X024600Y002323D01*
X024600Y003169D01*
X024524Y003161D01*
X024422Y003138D01*
X024324Y003103D01*
X024229Y003058D01*
X024141Y003002D01*
X024059Y002937D01*
X023985Y002863D01*
X023920Y002782D01*
X023865Y002693D01*
X023819Y002599D01*
X023785Y002500D01*
X023762Y002399D01*
X023753Y002322D01*
X024600Y002322D01*
X024600Y002163D01*
X023753Y002163D01*
X023762Y002086D01*
X023785Y001985D01*
X023819Y001886D01*
X023865Y001792D01*
X023920Y001703D01*
X023985Y001622D01*
X024059Y001548D01*
X024141Y001483D01*
X024229Y001427D01*
X024324Y001382D01*
X024422Y001347D01*
X024524Y001324D01*
X024600Y001316D01*
X024600Y002162D01*
X024760Y002162D01*
X024760Y001316D01*
X024836Y001324D01*
X024938Y001347D01*
X025036Y001382D01*
X025131Y001427D01*
X025219Y001483D01*
X025301Y001548D01*
X025375Y001622D01*
X025440Y001703D01*
X025470Y001752D01*
X025470Y000760D01*
X000760Y000760D01*
X000760Y000863D02*
X025470Y000863D01*
X025470Y001021D02*
X000760Y001021D01*
X000760Y001180D02*
X025470Y001180D01*
X025470Y001339D02*
X024899Y001339D01*
X024760Y001339D02*
X024600Y001339D01*
X024461Y001339D02*
X000760Y001339D01*
X000760Y001497D02*
X024123Y001497D01*
X023959Y001656D02*
X019357Y001656D01*
X019280Y001579D02*
X019504Y001803D01*
X018960Y002347D01*
X018625Y002012D01*
X019059Y001579D01*
X019100Y001555D01*
X019145Y001543D01*
X019193Y001543D01*
X019239Y001555D01*
X019280Y001579D01*
X018982Y001656D02*
X017378Y001656D01*
X017301Y001579D02*
X017735Y002012D01*
X017400Y002347D01*
X017513Y002460D01*
X017848Y002125D01*
X018180Y002457D01*
X018512Y002125D01*
X018847Y002460D01*
X018960Y002347D01*
X019074Y002460D01*
X019617Y001916D01*
X019842Y002141D01*
X019866Y002182D01*
X019878Y002228D01*
X019878Y002275D01*
X019866Y002321D01*
X019842Y002362D01*
X019409Y002796D01*
X019074Y002460D01*
X018960Y002574D01*
X018847Y002460D01*
X018303Y003004D01*
X018180Y002881D01*
X018057Y003004D01*
X017513Y002460D01*
X017400Y002574D01*
X017944Y003117D01*
X017719Y003342D01*
X017678Y003366D01*
X017632Y003378D01*
X017585Y003378D01*
X017539Y003366D01*
X017498Y003342D01*
X017064Y002909D01*
X017400Y002574D01*
X017286Y002460D01*
X017400Y002347D01*
X016856Y001803D01*
X017080Y001579D01*
X017121Y001555D01*
X017167Y001543D01*
X017215Y001543D01*
X017260Y001555D01*
X017301Y001579D01*
X017003Y001656D02*
X012357Y001656D01*
X012280Y001579D02*
X012504Y001803D01*
X011960Y002347D01*
X011625Y002012D01*
X012059Y001579D01*
X012100Y001555D01*
X012145Y001543D01*
X012193Y001543D01*
X012239Y001555D01*
X012280Y001579D01*
X011982Y001656D02*
X010378Y001656D01*
X010301Y001579D02*
X010735Y002012D01*
X010400Y002347D01*
X010513Y002460D01*
X010848Y002125D01*
X011180Y002457D01*
X011512Y002125D01*
X011847Y002460D01*
X011960Y002347D01*
X012074Y002460D01*
X012617Y001916D01*
X012842Y002141D01*
X012866Y002182D01*
X012878Y002228D01*
X012878Y002275D01*
X012866Y002321D01*
X012842Y002362D01*
X012409Y002796D01*
X012074Y002460D01*
X011960Y002574D01*
X011847Y002460D01*
X011303Y003004D01*
X011180Y002881D01*
X011057Y003004D01*
X010513Y002460D01*
X010400Y002574D01*
X010944Y003117D01*
X010719Y003342D01*
X010678Y003366D01*
X010632Y003378D01*
X010585Y003378D01*
X010539Y003366D01*
X010498Y003342D01*
X010064Y002909D01*
X010400Y002574D01*
X010286Y002460D01*
X010400Y002347D01*
X009856Y001803D01*
X010080Y001579D01*
X010121Y001555D01*
X010167Y001543D01*
X010215Y001543D01*
X010260Y001555D01*
X010301Y001579D01*
X010003Y001656D02*
X005357Y001656D01*
X005280Y001579D02*
X005504Y001803D01*
X004960Y002347D01*
X004625Y002012D01*
X005059Y001579D01*
X005100Y001555D01*
X005145Y001543D01*
X005193Y001543D01*
X005239Y001555D01*
X005280Y001579D01*
X004982Y001656D02*
X000760Y001656D01*
X000760Y001814D02*
X004823Y001814D01*
X004665Y001973D02*
X000760Y001973D01*
X000760Y002131D02*
X004506Y002131D01*
X004512Y002125D02*
X004847Y002460D01*
X004960Y002347D01*
X005074Y002460D01*
X005617Y001916D01*
X005842Y002141D01*
X005866Y002182D01*
X005878Y002228D01*
X005878Y002275D01*
X005866Y002321D01*
X005842Y002362D01*
X005409Y002796D01*
X005074Y002460D01*
X004960Y002574D01*
X004847Y002460D01*
X004303Y003004D01*
X004079Y002780D01*
X004055Y002739D01*
X004043Y002693D01*
X004043Y002645D01*
X004055Y002600D01*
X004079Y002559D01*
X004512Y002125D01*
X004518Y002131D02*
X004744Y002131D01*
X004676Y002290D02*
X004903Y002290D01*
X005018Y002290D02*
X005244Y002290D01*
X005177Y002131D02*
X005403Y002131D01*
X005335Y001973D02*
X005561Y001973D01*
X005674Y001973D02*
X009686Y001973D01*
X009743Y001916D02*
X009518Y002141D01*
X009494Y002182D01*
X009482Y002228D01*
X009482Y002275D01*
X009494Y002321D01*
X009518Y002362D01*
X009951Y002796D01*
X010286Y002460D01*
X009743Y001916D01*
X009799Y001973D02*
X010025Y001973D01*
X009957Y002131D02*
X010183Y002131D01*
X010116Y002290D02*
X010342Y002290D01*
X010457Y002290D02*
X010684Y002290D01*
X010616Y002131D02*
X010842Y002131D01*
X010854Y002131D02*
X011506Y002131D01*
X011518Y002131D02*
X011744Y002131D01*
X011676Y002290D02*
X011903Y002290D01*
X012018Y002290D02*
X012244Y002290D01*
X012177Y002131D02*
X012403Y002131D01*
X012335Y001973D02*
X012561Y001973D01*
X012674Y001973D02*
X016686Y001973D01*
X016743Y001916D02*
X016518Y002141D01*
X016494Y002182D01*
X016482Y002228D01*
X016482Y002275D01*
X016494Y002321D01*
X016518Y002362D01*
X016951Y002796D01*
X017286Y002460D01*
X016743Y001916D01*
X016799Y001973D02*
X017025Y001973D01*
X016957Y002131D02*
X017183Y002131D01*
X017116Y002290D02*
X017342Y002290D01*
X017457Y002290D02*
X017684Y002290D01*
X017616Y002131D02*
X017842Y002131D01*
X017854Y002131D02*
X018506Y002131D01*
X018518Y002131D02*
X018744Y002131D01*
X018676Y002290D02*
X018903Y002290D01*
X019018Y002290D02*
X019244Y002290D01*
X019177Y002131D02*
X019403Y002131D01*
X019335Y001973D02*
X019561Y001973D01*
X019674Y001973D02*
X023789Y001973D01*
X023757Y002131D02*
X019832Y002131D01*
X019874Y002290D02*
X024600Y002290D01*
X024600Y002448D02*
X024760Y002448D01*
X024760Y002607D02*
X024600Y002607D01*
X024600Y002765D02*
X024760Y002765D01*
X024760Y002924D02*
X024600Y002924D01*
X024600Y003082D02*
X024760Y003082D01*
X025080Y003082D02*
X025470Y003082D01*
X025470Y002924D02*
X025314Y002924D01*
X025450Y002765D02*
X025470Y002765D01*
X025470Y003241D02*
X021638Y003241D01*
X021889Y003399D02*
X025470Y003399D01*
X025470Y003558D02*
X022047Y003558D01*
X022206Y003716D02*
X024190Y003716D01*
X023958Y003875D02*
X022364Y003875D01*
X021349Y003082D02*
X024280Y003082D01*
X024046Y002924D02*
X021190Y002924D01*
X021032Y002765D02*
X023910Y002765D01*
X023823Y002607D02*
X020783Y002607D01*
X020434Y002607D02*
X019598Y002607D01*
X019439Y002765D02*
X020185Y002765D01*
X020027Y002924D02*
X019281Y002924D01*
X019296Y002909D02*
X018862Y003342D01*
X018821Y003366D01*
X018775Y003378D01*
X018728Y003378D01*
X018682Y003366D01*
X018641Y003342D01*
X018416Y003117D01*
X018960Y002574D01*
X019296Y002909D01*
X019378Y002765D02*
X019152Y002765D01*
X019220Y002607D02*
X018993Y002607D01*
X018927Y002607D02*
X018701Y002607D01*
X018769Y002765D02*
X018543Y002765D01*
X018610Y002924D02*
X018384Y002924D01*
X018222Y002924D02*
X018138Y002924D01*
X017976Y002924D02*
X017750Y002924D01*
X017817Y002765D02*
X017591Y002765D01*
X017659Y002607D02*
X017433Y002607D01*
X017367Y002607D02*
X017140Y002607D01*
X017208Y002765D02*
X016982Y002765D01*
X016921Y002765D02*
X016175Y002765D01*
X016333Y002924D02*
X017079Y002924D01*
X017238Y003082D02*
X016492Y003082D01*
X016650Y003241D02*
X017396Y003241D01*
X017821Y003241D02*
X018539Y003241D01*
X018452Y003082D02*
X017908Y003082D01*
X016967Y003558D02*
X019393Y003558D01*
X019234Y003716D02*
X017126Y003716D01*
X016809Y003399D02*
X019551Y003399D01*
X019710Y003241D02*
X018964Y003241D01*
X019122Y003082D02*
X019868Y003082D01*
X019756Y002448D02*
X023773Y002448D01*
X023854Y001814D02*
X019494Y001814D01*
X018823Y001814D02*
X017537Y001814D01*
X017695Y001973D02*
X018665Y001973D01*
X018348Y002290D02*
X018012Y002290D01*
X018171Y002448D02*
X018189Y002448D01*
X017525Y002448D02*
X017500Y002448D01*
X017299Y002448D02*
X017274Y002448D01*
X016762Y002607D02*
X015926Y002607D01*
X015577Y002607D02*
X013783Y002607D01*
X014032Y002765D02*
X015328Y002765D01*
X015170Y002924D02*
X014190Y002924D01*
X014349Y003082D02*
X015011Y003082D01*
X014853Y003241D02*
X014507Y003241D01*
X014644Y003399D02*
X014716Y003399D01*
X013434Y002607D02*
X012598Y002607D01*
X012439Y002765D02*
X013185Y002765D01*
X013027Y002924D02*
X012281Y002924D01*
X012296Y002909D02*
X011862Y003342D01*
X011821Y003366D01*
X011775Y003378D01*
X011728Y003378D01*
X011682Y003366D01*
X011641Y003342D01*
X011416Y003117D01*
X011960Y002574D01*
X012296Y002909D01*
X012378Y002765D02*
X012152Y002765D01*
X012220Y002607D02*
X011993Y002607D01*
X011927Y002607D02*
X011701Y002607D01*
X011769Y002765D02*
X011543Y002765D01*
X011610Y002924D02*
X011384Y002924D01*
X011222Y002924D02*
X011138Y002924D01*
X010976Y002924D02*
X010750Y002924D01*
X010817Y002765D02*
X010591Y002765D01*
X010659Y002607D02*
X010433Y002607D01*
X010367Y002607D02*
X010140Y002607D01*
X010208Y002765D02*
X009982Y002765D01*
X009921Y002765D02*
X009175Y002765D01*
X009333Y002924D02*
X010079Y002924D01*
X010238Y003082D02*
X009492Y003082D01*
X009650Y003241D02*
X010396Y003241D01*
X010821Y003241D02*
X011539Y003241D01*
X011452Y003082D02*
X010908Y003082D01*
X009967Y003558D02*
X012393Y003558D01*
X012234Y003716D02*
X010126Y003716D01*
X009809Y003399D02*
X012551Y003399D01*
X012710Y003241D02*
X011964Y003241D01*
X012122Y003082D02*
X012868Y003082D01*
X012756Y002448D02*
X016604Y002448D01*
X016486Y002290D02*
X012874Y002290D01*
X012832Y002131D02*
X016528Y002131D01*
X016866Y001814D02*
X012494Y001814D01*
X011823Y001814D02*
X010537Y001814D01*
X010695Y001973D02*
X011665Y001973D01*
X011348Y002290D02*
X011012Y002290D01*
X011171Y002448D02*
X011189Y002448D01*
X010525Y002448D02*
X010500Y002448D01*
X010299Y002448D02*
X010274Y002448D01*
X009762Y002607D02*
X008926Y002607D01*
X008577Y002607D02*
X006783Y002607D01*
X007032Y002765D02*
X008328Y002765D01*
X008170Y002924D02*
X007190Y002924D01*
X007349Y003082D02*
X008011Y003082D01*
X007853Y003241D02*
X007507Y003241D01*
X007644Y003399D02*
X007716Y003399D01*
X006434Y002607D02*
X005598Y002607D01*
X005439Y002765D02*
X006185Y002765D01*
X006027Y002924D02*
X005281Y002924D01*
X005296Y002909D02*
X004862Y003342D01*
X004821Y003366D01*
X004775Y003378D01*
X004728Y003378D01*
X004682Y003366D01*
X004641Y003342D01*
X004416Y003117D01*
X004960Y002574D01*
X005296Y002909D01*
X005378Y002765D02*
X005152Y002765D01*
X005220Y002607D02*
X004993Y002607D01*
X004927Y002607D02*
X004701Y002607D01*
X004769Y002765D02*
X004543Y002765D01*
X004610Y002924D02*
X004384Y002924D01*
X004222Y002924D02*
X000760Y002924D01*
X000760Y003082D02*
X004452Y003082D01*
X004539Y003241D02*
X000760Y003241D01*
X000760Y003399D02*
X005551Y003399D01*
X005393Y003558D02*
X000760Y003558D01*
X000760Y003716D02*
X005234Y003716D01*
X005131Y003875D02*
X000760Y003875D01*
X000760Y004033D02*
X005082Y004033D01*
X005082Y004192D02*
X000760Y004192D01*
X000760Y004350D02*
X005134Y004350D01*
X005242Y004509D02*
X000760Y004509D01*
X000760Y004667D02*
X005400Y004667D01*
X005559Y004826D02*
X001842Y004826D01*
X001760Y004826D02*
X001600Y004826D01*
X001518Y004826D02*
X000760Y004826D01*
X000760Y004984D02*
X001140Y004984D01*
X000969Y005143D02*
X000760Y005143D01*
X000760Y005301D02*
X000860Y005301D01*
X000794Y005460D02*
X000760Y005460D01*
X000760Y005935D02*
X000770Y005935D01*
X000760Y006094D02*
X000818Y006094D01*
X000760Y006252D02*
X000902Y006252D01*
X001033Y006411D02*
X000760Y006411D01*
X000760Y006569D02*
X001253Y006569D01*
X001600Y006569D02*
X001760Y006569D01*
X001760Y006411D02*
X001600Y006411D01*
X001600Y006252D02*
X001760Y006252D01*
X001760Y006094D02*
X001600Y006094D01*
X001600Y005935D02*
X001760Y005935D01*
X001760Y005777D02*
X005267Y005777D01*
X005131Y005935D02*
X002590Y005935D01*
X002542Y006094D02*
X004995Y006094D01*
X004859Y006252D02*
X002458Y006252D01*
X002327Y006411D02*
X004724Y006411D01*
X004588Y006569D02*
X002107Y006569D01*
X002148Y007203D02*
X004044Y007203D01*
X003908Y007362D02*
X002389Y007362D01*
X001212Y007203D02*
X000760Y007203D01*
X000760Y007045D02*
X004180Y007045D01*
X004316Y006886D02*
X000760Y006886D01*
X000760Y006728D02*
X004452Y006728D01*
X005616Y007520D02*
X023842Y007520D01*
X023819Y007474D02*
X023785Y007375D01*
X023762Y007274D01*
X023753Y007197D01*
X024600Y007197D01*
X024600Y007038D01*
X023753Y007038D01*
X023762Y006961D01*
X023785Y006860D01*
X023819Y006761D01*
X023865Y006667D01*
X023920Y006578D01*
X023985Y006497D01*
X024059Y006423D01*
X024141Y006358D01*
X024229Y006302D01*
X024324Y006257D01*
X024422Y006222D01*
X024524Y006199D01*
X024600Y006191D01*
X024600Y007037D01*
X024760Y007037D01*
X024760Y006191D01*
X024836Y006199D01*
X024938Y006222D01*
X025036Y006257D01*
X025131Y006302D01*
X025219Y006358D01*
X025301Y006423D01*
X025375Y006497D01*
X025440Y006578D01*
X025470Y006627D01*
X025470Y005417D01*
X025343Y005544D01*
X025097Y005686D01*
X024822Y005760D01*
X024538Y005760D01*
X024263Y005686D01*
X024017Y005544D01*
X023853Y005380D01*
X022041Y005380D01*
X021783Y005273D01*
X021587Y005077D01*
X021110Y004600D01*
X021049Y004600D01*
X020519Y005129D01*
X020306Y005217D01*
X020133Y005217D01*
X020077Y005273D01*
X019819Y005380D01*
X019021Y005380D01*
X018875Y005526D01*
X018662Y005614D01*
X017801Y005614D01*
X017680Y005564D01*
X017559Y005614D01*
X016698Y005614D01*
X016485Y005526D01*
X016322Y005363D01*
X016285Y005274D01*
X016283Y005273D01*
X016227Y005217D01*
X016098Y005217D01*
X016038Y005363D01*
X015875Y005526D01*
X015662Y005614D01*
X014801Y005614D01*
X014680Y005564D01*
X014559Y005614D01*
X013698Y005614D01*
X013485Y005526D01*
X013322Y005363D01*
X013262Y005217D01*
X013133Y005217D01*
X013077Y005273D01*
X012819Y005380D01*
X012521Y005380D01*
X012375Y005526D01*
X012162Y005614D01*
X011301Y005614D01*
X011180Y005564D01*
X011059Y005614D01*
X010198Y005614D01*
X009985Y005526D01*
X009839Y005380D01*
X009541Y005380D01*
X009283Y005273D01*
X009227Y005217D01*
X009098Y005217D01*
X009038Y005363D01*
X008875Y005526D01*
X008662Y005614D01*
X007801Y005614D01*
X007680Y005564D01*
X007559Y005614D01*
X007250Y005614D01*
X005106Y008116D01*
X006781Y009791D01*
X006841Y009731D01*
X007054Y009643D01*
X007285Y009643D01*
X007498Y009731D01*
X008190Y010423D01*
X008278Y010636D01*
X008278Y010867D01*
X008190Y011080D01*
X007380Y011890D01*
X007380Y012070D01*
X008280Y011170D01*
X008493Y011082D01*
X008724Y011082D01*
X008937Y011170D01*
X009629Y011862D01*
X009680Y011985D01*
X009731Y011862D01*
X010423Y011170D01*
X010636Y011082D01*
X010867Y011082D01*
X011080Y011170D01*
X012190Y012280D01*
X012278Y012493D01*
X012278Y012620D01*
X012334Y012485D01*
X012480Y012339D01*
X012480Y012273D01*
X012280Y012190D01*
X011170Y011080D01*
X011082Y010867D01*
X011082Y010636D01*
X011170Y010423D01*
X011862Y009731D01*
X012075Y009643D01*
X012306Y009643D01*
X012519Y009731D01*
X013049Y010260D01*
X013311Y010260D01*
X013841Y009731D01*
X014054Y009643D01*
X014285Y009643D01*
X014498Y009731D01*
X015190Y010423D01*
X015278Y010636D01*
X015278Y010867D01*
X015190Y011080D01*
X014080Y012190D01*
X013880Y012273D01*
X013880Y012339D01*
X014026Y012485D01*
X014082Y012620D01*
X014082Y012493D01*
X014170Y012280D01*
X015280Y011170D01*
X015493Y011082D01*
X015724Y011082D01*
X015937Y011170D01*
X016629Y011862D01*
X016680Y011985D01*
X016731Y011862D01*
X017423Y011170D01*
X017636Y011082D01*
X017867Y011082D01*
X018080Y011170D01*
X018980Y012070D01*
X018980Y011890D01*
X018170Y011080D01*
X018082Y010867D01*
X018082Y010636D01*
X018170Y010423D01*
X018862Y009731D01*
X019075Y009643D01*
X019306Y009643D01*
X019519Y009731D01*
X020629Y010841D01*
X020687Y010980D01*
X023853Y010980D01*
X024017Y010816D01*
X024263Y010674D01*
X024538Y010600D01*
X024822Y010600D01*
X025097Y010674D01*
X025343Y010816D01*
X025470Y010943D01*
X025470Y009733D01*
X025440Y009782D01*
X025375Y009863D01*
X025301Y009937D01*
X025219Y010002D01*
X025131Y010058D01*
X025036Y010103D01*
X024938Y010138D01*
X024836Y010161D01*
X024760Y010169D01*
X024760Y009323D01*
X024600Y009323D01*
X024600Y010169D01*
X024524Y010161D01*
X024422Y010138D01*
X024324Y010103D01*
X024229Y010058D01*
X024141Y010002D01*
X024059Y009937D01*
X023985Y009863D01*
X023920Y009782D01*
X023865Y009693D01*
X023819Y009599D01*
X023785Y009500D01*
X023762Y009399D01*
X023753Y009322D01*
X024600Y009322D01*
X024600Y009163D01*
X023753Y009163D01*
X023762Y009086D01*
X023785Y008985D01*
X023819Y008886D01*
X023865Y008792D01*
X023920Y008703D01*
X023985Y008622D01*
X024059Y008548D01*
X024141Y008483D01*
X024229Y008427D01*
X024324Y008382D01*
X024422Y008347D01*
X024524Y008324D01*
X024600Y008316D01*
X024600Y009162D01*
X024760Y009162D01*
X024760Y008316D01*
X024836Y008324D01*
X024938Y008347D01*
X025036Y008382D01*
X025131Y008427D01*
X025219Y008483D01*
X025301Y008548D01*
X025375Y008622D01*
X025440Y008703D01*
X025470Y008752D01*
X025470Y007608D01*
X025440Y007657D01*
X025375Y007738D01*
X025301Y007812D01*
X025219Y007877D01*
X025131Y007933D01*
X025036Y007978D01*
X024938Y008013D01*
X024836Y008036D01*
X024760Y008044D01*
X024760Y007198D01*
X024600Y007198D01*
X024600Y008044D01*
X024524Y008036D01*
X024422Y008013D01*
X024324Y007978D01*
X024229Y007933D01*
X024141Y007877D01*
X024059Y007812D01*
X023985Y007738D01*
X023920Y007657D01*
X023865Y007568D01*
X023819Y007474D01*
X023782Y007362D02*
X005752Y007362D01*
X005888Y007203D02*
X023754Y007203D01*
X023779Y006886D02*
X006160Y006886D01*
X006296Y006728D02*
X023836Y006728D01*
X023928Y006569D02*
X006432Y006569D01*
X006567Y006411D02*
X024075Y006411D01*
X024338Y006252D02*
X006703Y006252D01*
X006839Y006094D02*
X025470Y006094D01*
X025470Y006252D02*
X025022Y006252D01*
X024760Y006252D02*
X024600Y006252D01*
X024600Y006411D02*
X024760Y006411D01*
X024760Y006569D02*
X024600Y006569D01*
X024600Y006728D02*
X024760Y006728D01*
X024760Y006886D02*
X024600Y006886D01*
X024600Y007045D02*
X006024Y007045D01*
X005481Y007679D02*
X023938Y007679D01*
X024091Y007837D02*
X005345Y007837D01*
X005209Y007996D02*
X024373Y007996D01*
X024600Y007996D02*
X024760Y007996D01*
X024760Y007837D02*
X024600Y007837D01*
X024600Y007679D02*
X024760Y007679D01*
X024760Y007520D02*
X024600Y007520D01*
X024600Y007362D02*
X024760Y007362D01*
X024760Y007203D02*
X024600Y007203D01*
X025269Y007837D02*
X025470Y007837D01*
X025470Y007679D02*
X025422Y007679D01*
X025470Y007996D02*
X024987Y007996D01*
X025470Y008154D02*
X005144Y008154D01*
X005302Y008313D02*
X025470Y008313D01*
X025470Y008471D02*
X025200Y008471D01*
X025381Y008630D02*
X025470Y008630D01*
X024760Y008630D02*
X024600Y008630D01*
X024600Y008788D02*
X024760Y008788D01*
X024760Y008947D02*
X024600Y008947D01*
X024600Y009105D02*
X024760Y009105D01*
X024600Y009264D02*
X006253Y009264D01*
X006412Y009422D02*
X023767Y009422D01*
X023813Y009581D02*
X006570Y009581D01*
X006729Y009739D02*
X006833Y009739D01*
X007506Y009739D02*
X011854Y009739D01*
X011696Y009898D02*
X007664Y009898D01*
X007823Y010056D02*
X011537Y010056D01*
X011379Y010215D02*
X007981Y010215D01*
X008140Y010373D02*
X011220Y010373D01*
X011125Y010532D02*
X008235Y010532D01*
X008278Y010690D02*
X011082Y010690D01*
X011082Y010849D02*
X008278Y010849D01*
X008220Y011007D02*
X011140Y011007D01*
X011069Y011166D02*
X011256Y011166D01*
X011234Y011324D02*
X011414Y011324D01*
X011392Y011483D02*
X011573Y011483D01*
X011551Y011641D02*
X011731Y011641D01*
X011709Y011800D02*
X011890Y011800D01*
X011868Y011958D02*
X012048Y011958D01*
X012026Y012117D02*
X012207Y012117D01*
X012185Y012275D02*
X012480Y012275D01*
X012386Y012434D02*
X012253Y012434D01*
X012278Y012592D02*
X012290Y012592D01*
X012246Y012802D02*
X012190Y012937D01*
X011498Y013629D01*
X011285Y013717D01*
X011054Y013717D01*
X010841Y013629D01*
X010781Y013569D01*
X010628Y013722D01*
X010530Y013763D01*
X010526Y013772D01*
X010363Y013935D01*
X010214Y013997D01*
X010214Y014154D01*
X009757Y014154D01*
X009757Y014309D01*
X009603Y014309D01*
X009603Y014726D01*
X009302Y014726D01*
X009256Y014714D01*
X009215Y014690D01*
X009182Y014657D01*
X009158Y014616D01*
X009146Y014570D01*
X009146Y014309D01*
X009603Y014309D01*
X009603Y014154D01*
X009146Y014154D01*
X009146Y013997D01*
X008997Y013935D01*
X008872Y013810D01*
X008783Y013773D01*
X008587Y013577D01*
X008579Y013569D01*
X008519Y013629D01*
X008306Y013717D01*
X008075Y013717D01*
X007862Y013629D01*
X007614Y013381D01*
X007614Y013559D01*
X007526Y013772D01*
X007363Y013935D01*
X007214Y013997D01*
X007214Y014154D01*
X006757Y014154D01*
X006757Y014309D01*
X006603Y014309D01*
X006603Y014726D01*
X006302Y014726D01*
X006256Y014714D01*
X006215Y014690D01*
X006182Y014657D01*
X006158Y014616D01*
X006146Y014570D01*
X006146Y014309D01*
X006603Y014309D01*
X006603Y014154D01*
X006146Y014154D01*
X006146Y013997D01*
X005997Y013935D01*
X005834Y013772D01*
X005746Y013559D01*
X005746Y012698D01*
X005834Y012485D01*
X005980Y012339D01*
X005980Y011747D01*
X005731Y011498D01*
X005643Y011285D01*
X005643Y011054D01*
X005731Y010841D01*
X005791Y010781D01*
X003890Y008880D01*
X002507Y008880D01*
X002343Y009044D01*
X002097Y009186D01*
X001822Y009260D01*
X001538Y009260D01*
X001263Y009186D01*
X001017Y009044D01*
X000816Y008843D01*
X000760Y008747D01*
X000760Y010477D01*
X000762Y010461D01*
X000785Y010360D01*
X000819Y010261D01*
X000865Y010167D01*
X000920Y010078D01*
X000985Y009997D01*
X001059Y009923D01*
X001141Y009858D01*
X001229Y009802D01*
X001324Y009757D01*
X001422Y009722D01*
X001524Y009699D01*
X001600Y009691D01*
X001600Y010537D01*
X001760Y010537D01*
X001760Y009691D01*
X001836Y009699D01*
X001938Y009722D01*
X002036Y009757D01*
X002131Y009802D01*
X002219Y009858D01*
X002301Y009923D01*
X002375Y009997D01*
X002440Y010078D01*
X002495Y010167D01*
X002541Y010261D01*
X002575Y010360D01*
X002598Y010461D01*
X002607Y010538D01*
X001760Y010538D01*
X001760Y010697D01*
X002607Y010697D01*
X002598Y010774D01*
X002575Y010875D01*
X002541Y010974D01*
X002495Y011068D01*
X002440Y011157D01*
X002375Y011238D01*
X002301Y011312D01*
X002219Y011377D01*
X002131Y011433D01*
X002036Y011478D01*
X001938Y011513D01*
X001836Y011536D01*
X001760Y011544D01*
X001760Y010698D01*
X001600Y010698D01*
X001600Y011544D01*
X001524Y011536D01*
X001422Y011513D01*
X001324Y011478D01*
X001229Y011433D01*
X001141Y011377D01*
X001059Y011312D01*
X000985Y011238D01*
X000920Y011157D01*
X000865Y011068D01*
X000819Y010974D01*
X000785Y010875D01*
X000762Y010774D01*
X000760Y010758D01*
X000760Y015596D01*
X025470Y015596D01*
X025470Y014608D01*
X025440Y014657D01*
X025375Y014738D01*
X025301Y014812D01*
X025219Y014877D01*
X025131Y014933D01*
X025036Y014978D01*
X024938Y015013D01*
X024836Y015036D01*
X024760Y015044D01*
X024760Y014198D01*
X024600Y014198D01*
X024600Y015044D01*
X024524Y015036D01*
X024422Y015013D01*
X024324Y014978D01*
X024229Y014933D01*
X024141Y014877D01*
X024059Y014812D01*
X023985Y014738D01*
X023920Y014657D01*
X023865Y014568D01*
X023819Y014474D01*
X023785Y014375D01*
X023762Y014274D01*
X023753Y014197D01*
X024600Y014197D01*
X024600Y014038D01*
X023753Y014038D01*
X023762Y013961D01*
X023785Y013860D01*
X020438Y013860D01*
X020363Y013935D02*
X020526Y013772D01*
X020614Y013559D01*
X020614Y012698D01*
X020526Y012485D01*
X020421Y012380D01*
X023853Y012380D01*
X024017Y012544D01*
X024263Y012686D01*
X024538Y012760D01*
X024822Y012760D01*
X025097Y012686D01*
X025343Y012544D01*
X025470Y012417D01*
X025470Y013627D01*
X025440Y013578D01*
X025375Y013497D01*
X025301Y013423D01*
X025219Y013358D01*
X025131Y013302D01*
X025036Y013257D01*
X024938Y013222D01*
X024836Y013199D01*
X024760Y013191D01*
X024760Y014037D01*
X024600Y014037D01*
X024600Y013191D01*
X024524Y013199D01*
X024422Y013222D01*
X024324Y013257D01*
X024229Y013302D01*
X024141Y013358D01*
X024059Y013423D01*
X023985Y013497D01*
X023920Y013578D01*
X023865Y013667D01*
X023819Y013761D01*
X023785Y013860D01*
X023755Y014019D02*
X020214Y014019D01*
X020214Y013997D02*
X020214Y014154D01*
X019757Y014154D01*
X019757Y014309D01*
X019603Y014309D01*
X019603Y014726D01*
X019302Y014726D01*
X019256Y014714D01*
X019215Y014690D01*
X019182Y014657D01*
X019158Y014616D01*
X019146Y014570D01*
X019146Y014309D01*
X019603Y014309D01*
X019603Y014154D01*
X019146Y014154D01*
X019146Y013997D01*
X018997Y013935D01*
X018834Y013772D01*
X018746Y013559D01*
X018746Y013381D01*
X018498Y013629D01*
X018285Y013717D01*
X018054Y013717D01*
X017841Y013629D01*
X017781Y013569D01*
X017628Y013722D01*
X017530Y013763D01*
X017526Y013772D01*
X017363Y013935D01*
X017214Y013997D01*
X017214Y014154D01*
X016757Y014154D01*
X016757Y014309D01*
X016603Y014309D01*
X016603Y014726D01*
X016302Y014726D01*
X016256Y014714D01*
X016215Y014690D01*
X016182Y014657D01*
X016158Y014616D01*
X016146Y014570D01*
X016146Y014309D01*
X016603Y014309D01*
X016603Y014154D01*
X016146Y014154D01*
X016146Y013997D01*
X015997Y013935D01*
X015872Y013810D01*
X015783Y013773D01*
X015587Y013577D01*
X015579Y013569D01*
X015519Y013629D01*
X015306Y013717D01*
X015075Y013717D01*
X014862Y013629D01*
X014170Y012937D01*
X014114Y012802D01*
X014114Y013559D01*
X014026Y013772D01*
X013863Y013935D01*
X013714Y013997D01*
X013714Y014154D01*
X013257Y014154D01*
X013257Y014309D01*
X013103Y014309D01*
X013103Y014726D01*
X012802Y014726D01*
X012756Y014714D01*
X012715Y014690D01*
X012682Y014657D01*
X012658Y014616D01*
X012646Y014570D01*
X012646Y014309D01*
X013103Y014309D01*
X013103Y014154D01*
X012646Y014154D01*
X012646Y013997D01*
X012497Y013935D01*
X012334Y013772D01*
X012246Y013559D01*
X012246Y012802D01*
X012246Y012909D02*
X012201Y012909D01*
X012246Y013068D02*
X012059Y013068D01*
X011901Y013226D02*
X012246Y013226D01*
X012246Y013385D02*
X011742Y013385D01*
X011584Y013543D02*
X012246Y013543D01*
X012305Y013702D02*
X011323Y013702D01*
X011016Y013702D02*
X010648Y013702D01*
X010438Y013860D02*
X012422Y013860D01*
X012646Y014019D02*
X010214Y014019D01*
X010214Y014309D02*
X009757Y014309D01*
X009757Y014726D01*
X010058Y014726D01*
X010104Y014714D01*
X010145Y014690D01*
X010178Y014657D01*
X010202Y014616D01*
X010214Y014570D01*
X010214Y014309D01*
X010214Y014336D02*
X012646Y014336D01*
X012646Y014494D02*
X010214Y014494D01*
X010181Y014653D02*
X012679Y014653D01*
X013103Y014653D02*
X013257Y014653D01*
X013257Y014726D02*
X013257Y014309D01*
X013714Y014309D01*
X013714Y014570D01*
X013702Y014616D01*
X013678Y014657D01*
X013645Y014690D01*
X013604Y014714D01*
X013558Y014726D01*
X013257Y014726D01*
X013257Y014494D02*
X013103Y014494D01*
X013103Y014336D02*
X013257Y014336D01*
X013257Y014177D02*
X016603Y014177D01*
X016757Y014177D02*
X019603Y014177D01*
X019757Y014177D02*
X024600Y014177D01*
X024600Y014019D02*
X024760Y014019D01*
X024760Y013860D02*
X024600Y013860D01*
X024600Y013702D02*
X024760Y013702D01*
X024760Y013543D02*
X024600Y013543D01*
X024600Y013385D02*
X024760Y013385D01*
X024760Y013226D02*
X024600Y013226D01*
X024412Y013226D02*
X020614Y013226D01*
X020614Y013068D02*
X025470Y013068D01*
X025470Y013226D02*
X024948Y013226D01*
X025252Y013385D02*
X025470Y013385D01*
X025470Y013543D02*
X025411Y013543D01*
X025470Y012909D02*
X020614Y012909D01*
X020614Y012751D02*
X024502Y012751D01*
X024858Y012751D02*
X025470Y012751D01*
X025470Y012592D02*
X025260Y012592D01*
X025454Y012434D02*
X025470Y012434D01*
X024100Y012592D02*
X020570Y012592D01*
X020474Y012434D02*
X023906Y012434D01*
X024108Y013385D02*
X020614Y013385D01*
X020614Y013543D02*
X023949Y013543D01*
X023848Y013702D02*
X020555Y013702D01*
X020363Y013935D02*
X020214Y013997D01*
X020214Y014309D02*
X019757Y014309D01*
X019757Y014726D01*
X020058Y014726D01*
X020104Y014714D01*
X020145Y014690D01*
X020178Y014657D01*
X020202Y014616D01*
X020214Y014570D01*
X020214Y014309D01*
X020214Y014336D02*
X023776Y014336D01*
X023829Y014494D02*
X020214Y014494D01*
X020181Y014653D02*
X023918Y014653D01*
X024058Y014811D02*
X000760Y014811D01*
X000760Y014653D02*
X006179Y014653D01*
X006146Y014494D02*
X000760Y014494D01*
X000760Y014336D02*
X006146Y014336D01*
X006146Y014019D02*
X000760Y014019D01*
X000760Y014177D02*
X006603Y014177D01*
X006757Y014177D02*
X009603Y014177D01*
X009757Y014177D02*
X013103Y014177D01*
X013714Y014019D02*
X016146Y014019D01*
X015922Y013860D02*
X013938Y013860D01*
X014055Y013702D02*
X015037Y013702D01*
X014776Y013543D02*
X014114Y013543D01*
X014114Y013385D02*
X014618Y013385D01*
X014459Y013226D02*
X014114Y013226D01*
X014114Y013068D02*
X014301Y013068D01*
X014159Y012909D02*
X014114Y012909D01*
X014082Y012592D02*
X014070Y012592D01*
X014107Y012434D02*
X013974Y012434D01*
X013880Y012275D02*
X014175Y012275D01*
X014153Y012117D02*
X014334Y012117D01*
X014312Y011958D02*
X014492Y011958D01*
X014470Y011800D02*
X014651Y011800D01*
X014629Y011641D02*
X014809Y011641D01*
X014787Y011483D02*
X014968Y011483D01*
X014946Y011324D02*
X015126Y011324D01*
X015104Y011166D02*
X015291Y011166D01*
X015220Y011007D02*
X018140Y011007D01*
X018082Y010849D02*
X015278Y010849D01*
X015278Y010690D02*
X018082Y010690D01*
X018125Y010532D02*
X015235Y010532D01*
X015140Y010373D02*
X018220Y010373D01*
X018379Y010215D02*
X014981Y010215D01*
X014823Y010056D02*
X018537Y010056D01*
X018696Y009898D02*
X014664Y009898D01*
X014506Y009739D02*
X018854Y009739D01*
X019527Y009739D02*
X023894Y009739D01*
X024020Y009898D02*
X019686Y009898D01*
X019844Y010056D02*
X024227Y010056D01*
X024600Y010056D02*
X024760Y010056D01*
X024760Y009898D02*
X024600Y009898D01*
X024600Y009739D02*
X024760Y009739D01*
X024760Y009581D02*
X024600Y009581D01*
X024600Y009422D02*
X024760Y009422D01*
X025340Y009898D02*
X025470Y009898D01*
X025470Y010056D02*
X025133Y010056D01*
X025470Y010215D02*
X020003Y010215D01*
X020161Y010373D02*
X025470Y010373D01*
X025470Y010532D02*
X020320Y010532D01*
X020478Y010690D02*
X024235Y010690D01*
X023984Y010849D02*
X020632Y010849D01*
X018890Y011800D02*
X018709Y011800D01*
X018731Y011641D02*
X018551Y011641D01*
X018573Y011483D02*
X018392Y011483D01*
X018414Y011324D02*
X018234Y011324D01*
X018256Y011166D02*
X018069Y011166D01*
X017434Y011166D02*
X015926Y011166D01*
X016091Y011324D02*
X017269Y011324D01*
X017111Y011483D02*
X016249Y011483D01*
X016408Y011641D02*
X016952Y011641D01*
X016794Y011800D02*
X016566Y011800D01*
X016669Y011958D02*
X016691Y011958D01*
X018868Y011958D02*
X018980Y011958D01*
X018742Y013385D02*
X018746Y013385D01*
X018746Y013543D02*
X018584Y013543D01*
X018805Y013702D02*
X018323Y013702D01*
X018016Y013702D02*
X017648Y013702D01*
X017438Y013860D02*
X018922Y013860D01*
X019146Y014019D02*
X017214Y014019D01*
X017214Y014309D02*
X016757Y014309D01*
X016757Y014726D01*
X017058Y014726D01*
X017104Y014714D01*
X017145Y014690D01*
X017178Y014657D01*
X017202Y014616D01*
X017214Y014570D01*
X017214Y014309D01*
X017214Y014336D02*
X019146Y014336D01*
X019146Y014494D02*
X017214Y014494D01*
X017181Y014653D02*
X019179Y014653D01*
X019603Y014653D02*
X019757Y014653D01*
X019757Y014494D02*
X019603Y014494D01*
X019603Y014336D02*
X019757Y014336D01*
X016757Y014336D02*
X016603Y014336D01*
X016603Y014494D02*
X016757Y014494D01*
X016757Y014653D02*
X016603Y014653D01*
X016179Y014653D02*
X013681Y014653D01*
X013714Y014494D02*
X016146Y014494D01*
X016146Y014336D02*
X013714Y014336D01*
X015344Y013702D02*
X015712Y013702D01*
X010434Y011166D02*
X008926Y011166D01*
X009091Y011324D02*
X010269Y011324D01*
X010111Y011483D02*
X009249Y011483D01*
X009408Y011641D02*
X009952Y011641D01*
X009794Y011800D02*
X009566Y011800D01*
X009669Y011958D02*
X009691Y011958D01*
X008291Y011166D02*
X008104Y011166D01*
X008126Y011324D02*
X007946Y011324D01*
X007968Y011483D02*
X007787Y011483D01*
X007809Y011641D02*
X007629Y011641D01*
X007651Y011800D02*
X007470Y011800D01*
X007492Y011958D02*
X007380Y011958D01*
X005980Y011958D02*
X000760Y011958D01*
X000760Y011800D02*
X005980Y011800D01*
X005874Y011641D02*
X000760Y011641D01*
X000760Y011483D02*
X001336Y011483D01*
X001600Y011483D02*
X001760Y011483D01*
X001760Y011324D02*
X001600Y011324D01*
X001600Y011166D02*
X001760Y011166D01*
X001760Y011007D02*
X001600Y011007D01*
X001600Y010849D02*
X001760Y010849D01*
X001760Y010690D02*
X005700Y010690D01*
X005728Y010849D02*
X002581Y010849D01*
X002525Y011007D02*
X005662Y011007D01*
X005643Y011166D02*
X002432Y011166D01*
X002286Y011324D02*
X005659Y011324D01*
X005725Y011483D02*
X002024Y011483D01*
X001074Y011324D02*
X000760Y011324D01*
X000760Y011166D02*
X000928Y011166D01*
X000835Y011007D02*
X000760Y011007D01*
X000760Y010849D02*
X000779Y010849D01*
X000760Y010373D02*
X000782Y010373D01*
X000760Y010215D02*
X000842Y010215D01*
X000760Y010056D02*
X000938Y010056D01*
X001091Y009898D02*
X000760Y009898D01*
X000760Y009739D02*
X001375Y009739D01*
X001600Y009739D02*
X001760Y009739D01*
X001760Y009898D02*
X001600Y009898D01*
X001600Y010056D02*
X001760Y010056D01*
X001760Y010215D02*
X001600Y010215D01*
X001600Y010373D02*
X001760Y010373D01*
X001760Y010532D02*
X001600Y010532D01*
X002269Y009898D02*
X004908Y009898D01*
X005066Y010056D02*
X002422Y010056D01*
X002518Y010215D02*
X005225Y010215D01*
X005383Y010373D02*
X002578Y010373D01*
X002606Y010532D02*
X005542Y010532D01*
X004749Y009739D02*
X001985Y009739D01*
X002238Y009105D02*
X004115Y009105D01*
X003957Y008947D02*
X002441Y008947D01*
X001122Y009105D02*
X000760Y009105D01*
X000760Y008947D02*
X000919Y008947D01*
X000784Y008788D02*
X000760Y008788D01*
X000760Y009264D02*
X004274Y009264D01*
X004432Y009422D02*
X000760Y009422D01*
X000760Y009581D02*
X004591Y009581D01*
X005778Y008788D02*
X023867Y008788D01*
X023798Y008947D02*
X005936Y008947D01*
X006095Y009105D02*
X023760Y009105D01*
X023979Y008630D02*
X005619Y008630D01*
X005461Y008471D02*
X024160Y008471D01*
X024600Y008471D02*
X024760Y008471D01*
X025466Y009739D02*
X025470Y009739D01*
X025470Y010690D02*
X025125Y010690D01*
X025376Y010849D02*
X025470Y010849D01*
X024760Y014336D02*
X024600Y014336D01*
X024600Y014494D02*
X024760Y014494D01*
X024760Y014653D02*
X024600Y014653D01*
X024600Y014811D02*
X024760Y014811D01*
X024760Y014970D02*
X024600Y014970D01*
X024306Y014970D02*
X000760Y014970D01*
X000760Y015128D02*
X025470Y015128D01*
X025470Y014970D02*
X025054Y014970D01*
X025302Y014811D02*
X025470Y014811D01*
X025470Y014653D02*
X025442Y014653D01*
X025470Y015287D02*
X000760Y015287D01*
X000760Y015445D02*
X025470Y015445D01*
X013833Y009739D02*
X012527Y009739D01*
X012686Y009898D02*
X013674Y009898D01*
X013516Y010056D02*
X012844Y010056D01*
X013003Y010215D02*
X013357Y010215D01*
X007776Y013543D02*
X007614Y013543D01*
X007614Y013385D02*
X007618Y013385D01*
X007555Y013702D02*
X008037Y013702D01*
X008344Y013702D02*
X008712Y013702D01*
X008922Y013860D02*
X007438Y013860D01*
X007214Y014019D02*
X009146Y014019D01*
X009146Y014336D02*
X007214Y014336D01*
X007214Y014309D02*
X007214Y014570D01*
X007202Y014616D01*
X007178Y014657D01*
X007145Y014690D01*
X007104Y014714D01*
X007058Y014726D01*
X006757Y014726D01*
X006757Y014309D01*
X007214Y014309D01*
X007214Y014494D02*
X009146Y014494D01*
X009179Y014653D02*
X007181Y014653D01*
X006757Y014653D02*
X006603Y014653D01*
X006603Y014494D02*
X006757Y014494D01*
X006757Y014336D02*
X006603Y014336D01*
X005922Y013860D02*
X000760Y013860D01*
X000760Y013702D02*
X005805Y013702D01*
X005746Y013543D02*
X000760Y013543D01*
X000760Y013385D02*
X005746Y013385D01*
X005746Y013226D02*
X000760Y013226D01*
X000760Y013068D02*
X005746Y013068D01*
X005746Y012909D02*
X000760Y012909D01*
X000760Y012751D02*
X005746Y012751D01*
X005790Y012592D02*
X000760Y012592D01*
X000760Y012434D02*
X005886Y012434D01*
X005980Y012275D02*
X000760Y012275D01*
X000760Y012117D02*
X005980Y012117D01*
X009603Y014336D02*
X009757Y014336D01*
X009757Y014494D02*
X009603Y014494D01*
X009603Y014653D02*
X009757Y014653D01*
X000814Y007520D02*
X000760Y007520D01*
X000760Y007362D02*
X000971Y007362D01*
X001600Y005618D02*
X001760Y005618D01*
X001760Y005460D02*
X001600Y005460D01*
X001600Y005301D02*
X001760Y005301D01*
X001760Y005143D02*
X001600Y005143D01*
X001600Y004984D02*
X001760Y004984D01*
X002220Y004984D02*
X005717Y004984D01*
X005810Y005143D02*
X002391Y005143D01*
X002500Y005301D02*
X005675Y005301D01*
X005539Y005460D02*
X002566Y005460D01*
X002602Y005618D02*
X005403Y005618D01*
X006975Y005935D02*
X025470Y005935D01*
X025470Y005777D02*
X007111Y005777D01*
X007247Y005618D02*
X024145Y005618D01*
X023932Y005460D02*
X018941Y005460D01*
X020010Y005301D02*
X021850Y005301D01*
X021653Y005143D02*
X020487Y005143D01*
X020664Y004984D02*
X021494Y004984D01*
X021336Y004826D02*
X020823Y004826D01*
X020981Y004667D02*
X021177Y004667D01*
X019131Y003875D02*
X018915Y003875D01*
X018860Y002448D02*
X018835Y002448D01*
X019061Y002448D02*
X019086Y002448D01*
X016297Y005301D02*
X016063Y005301D01*
X015941Y005460D02*
X016419Y005460D01*
X013419Y005460D02*
X012441Y005460D01*
X013010Y005301D02*
X013297Y005301D01*
X009919Y005460D02*
X008941Y005460D01*
X009063Y005301D02*
X009350Y005301D01*
X005710Y003241D02*
X004964Y003241D01*
X005122Y003082D02*
X005868Y003082D01*
X005756Y002448D02*
X009604Y002448D01*
X009486Y002290D02*
X005874Y002290D01*
X005832Y002131D02*
X009528Y002131D01*
X009866Y001814D02*
X005494Y001814D01*
X005086Y002448D02*
X005061Y002448D01*
X004860Y002448D02*
X004835Y002448D01*
X004348Y002290D02*
X000760Y002290D01*
X000760Y002448D02*
X004189Y002448D01*
X004053Y002607D02*
X000760Y002607D01*
X000760Y002765D02*
X004070Y002765D01*
X011835Y002448D02*
X011860Y002448D01*
X012061Y002448D02*
X012086Y002448D01*
X024600Y002131D02*
X024760Y002131D01*
X024760Y001973D02*
X024600Y001973D01*
X024600Y001814D02*
X024760Y001814D01*
X024760Y001656D02*
X024600Y001656D01*
X024600Y001497D02*
X024760Y001497D01*
X025237Y001497D02*
X025470Y001497D01*
X025470Y001656D02*
X025401Y001656D01*
X025470Y003716D02*
X025170Y003716D01*
X025402Y003875D02*
X025470Y003875D01*
X025428Y005460D02*
X025470Y005460D01*
X025470Y005618D02*
X025215Y005618D01*
X025285Y006411D02*
X025470Y006411D01*
X025470Y006569D02*
X025432Y006569D01*
M02*
