%
M48
M72
T01C0.0315
T02C0.0500
T03C0.1000
%
T01
X3680Y2180
X7680Y1680
X7680Y3180
X11180Y1680
X14680Y1680
X14680Y3180
X18180Y1680
X22680Y3680
X22680Y5680
X20680Y5680
X16680Y6180
X13180Y6180
X9680Y6180
X6680Y7180
X4680Y6180
X6680Y9180
X4180Y9680
X5180Y13180
X3680Y14180
X8180Y14680
X11180Y14680
X14680Y14680
X18180Y14680
X21180Y14680
X21180Y12680
X22680Y12680
X22680Y10680
X20680Y10680
X19180Y9180
X16680Y8680
X13180Y9680
X9680Y8680
X9680Y11180
X16680Y11180
X22680Y8180
T02
X24680Y11680
X24680Y4680
X1680Y8180
T03
X1680Y10618
X1680Y5743
X24680Y7118
X24680Y9243
X24680Y14118
X24680Y2243
M30
