G75*
%MOIN*%
%OFA0B0*%
%FSLAX24Y24*%
%IPPOS*%
%LPD*%
%AMOC8*
5,1,8,0,0,1.08239X$1,22.5*
%
%ADD10C,0.0000*%
%ADD11C,0.0040*%
%ADD12C,0.0120*%
%ADD13C,0.0100*%
D10*
X000180Y000180D02*
X000180Y016176D01*
X026050Y016176D01*
X026050Y000180D01*
X000180Y000180D01*
D11*
X004117Y003357D02*
X004443Y003032D01*
X004660Y003249D01*
X004714Y003411D02*
X004822Y003411D01*
X004931Y003520D01*
X004931Y003628D01*
X004822Y003737D01*
X004714Y003737D01*
X004660Y003683D01*
X004605Y003520D01*
X004443Y003683D01*
X004660Y003900D01*
X007279Y003777D02*
X007356Y003700D01*
X007509Y003700D01*
X007586Y003777D01*
X007740Y003777D02*
X007816Y003700D01*
X007970Y003700D01*
X008047Y003777D01*
X008047Y003853D01*
X007970Y003930D01*
X007740Y003930D01*
X007740Y003777D01*
X007740Y003930D02*
X007893Y004084D01*
X008047Y004160D01*
X007586Y004084D02*
X007509Y004160D01*
X007356Y004160D01*
X007279Y004084D01*
X007279Y003777D01*
X008880Y002240D02*
X009206Y002566D01*
X008880Y002240D02*
X009097Y002023D01*
X009260Y001969D02*
X009260Y001860D01*
X009369Y001752D01*
X009477Y001752D01*
X009532Y001806D01*
X009532Y001915D01*
X009369Y002077D01*
X009260Y001969D01*
X009369Y002077D02*
X009586Y002077D01*
X009749Y002023D01*
X011117Y003357D02*
X011443Y003032D01*
X011660Y003249D01*
X011768Y003357D02*
X011714Y003411D01*
X011714Y003845D01*
X011660Y003900D01*
X011443Y003683D01*
X011240Y003700D02*
X011240Y003777D01*
X011547Y004084D01*
X011547Y004160D01*
X011240Y004160D01*
X011086Y004084D02*
X011009Y004160D01*
X010856Y004160D01*
X010779Y004084D01*
X010779Y003777D01*
X010856Y003700D01*
X011009Y003700D01*
X011086Y003777D01*
X014279Y003777D02*
X014356Y003700D01*
X014509Y003700D01*
X014586Y003777D01*
X014740Y003777D02*
X014740Y003853D01*
X014816Y003930D01*
X014970Y003930D01*
X015047Y003853D01*
X015047Y003777D01*
X014970Y003700D01*
X014816Y003700D01*
X014740Y003777D01*
X014816Y003930D02*
X014740Y004007D01*
X014740Y004084D01*
X014816Y004160D01*
X014970Y004160D01*
X015047Y004084D01*
X015047Y004007D01*
X014970Y003930D01*
X014586Y004084D02*
X014509Y004160D01*
X014356Y004160D01*
X014279Y004084D01*
X014279Y003777D01*
X015880Y002240D02*
X016206Y002566D01*
X015880Y002240D02*
X016097Y002023D01*
X016260Y001969D02*
X016314Y002023D01*
X016423Y002023D01*
X016532Y001915D01*
X016532Y001806D01*
X016477Y001752D01*
X016369Y001752D01*
X016260Y001860D01*
X016260Y001969D01*
X016423Y002023D02*
X016423Y002132D01*
X016477Y002186D01*
X016586Y002186D01*
X016694Y002077D01*
X016694Y001969D01*
X016640Y001915D01*
X016532Y001915D01*
X018117Y003357D02*
X018443Y003032D01*
X018660Y003249D01*
X018714Y003411D02*
X018822Y003411D01*
X018931Y003520D01*
X018931Y003628D01*
X018714Y003845D01*
X018605Y003845D01*
X018497Y003737D01*
X018497Y003628D01*
X018551Y003574D01*
X018660Y003574D01*
X018822Y003737D01*
X018047Y003777D02*
X017970Y003700D01*
X017816Y003700D01*
X017740Y003777D01*
X017586Y003777D02*
X017509Y003700D01*
X017356Y003700D01*
X017279Y003777D01*
X017279Y004084D01*
X017356Y004160D01*
X017509Y004160D01*
X017586Y004084D01*
X017740Y004084D02*
X017816Y004160D01*
X017970Y004160D01*
X018047Y004084D01*
X018047Y003777D01*
X018047Y003930D02*
X017816Y003930D01*
X017740Y004007D01*
X017740Y004084D01*
X023575Y008325D02*
X023882Y008785D01*
X024035Y008709D02*
X024112Y008785D01*
X024266Y008785D01*
X024342Y008709D01*
X024342Y008632D01*
X024266Y008555D01*
X024342Y008478D01*
X024342Y008402D01*
X024266Y008325D01*
X024112Y008325D01*
X024035Y008402D01*
X023882Y008325D02*
X023575Y008785D01*
X024189Y008555D02*
X024266Y008555D01*
X024904Y008035D02*
X025211Y007575D01*
X025365Y007575D02*
X025672Y007882D01*
X025672Y007959D01*
X025595Y008035D01*
X025441Y008035D01*
X025365Y007959D01*
X025211Y008035D02*
X024904Y007575D01*
X025365Y007575D02*
X025672Y007575D01*
X019345Y012755D02*
X019020Y012429D01*
X019237Y012538D02*
X019020Y012755D01*
X019345Y012755D01*
X018749Y012700D02*
X018532Y012917D01*
X018857Y013243D01*
X017660Y013356D02*
X017660Y013509D01*
X017583Y013586D01*
X017430Y013740D02*
X017430Y014047D01*
X017660Y013970D02*
X017200Y013970D01*
X017430Y013740D01*
X017276Y013586D02*
X017200Y013509D01*
X017200Y013356D01*
X017276Y013279D01*
X017583Y013279D01*
X017660Y013356D01*
X020200Y013356D02*
X020276Y013279D01*
X020583Y013279D01*
X020660Y013356D01*
X020660Y013509D01*
X020583Y013586D01*
X020583Y013740D02*
X020660Y013816D01*
X020660Y013970D01*
X020583Y014047D01*
X020430Y014047D01*
X020353Y013970D01*
X020353Y013893D01*
X020430Y013740D01*
X020200Y013740D01*
X020200Y014047D01*
X020276Y013586D02*
X020200Y013509D01*
X020200Y013356D01*
X014160Y013356D02*
X014160Y013509D01*
X014083Y013586D01*
X014083Y013740D02*
X014160Y013816D01*
X014160Y013970D01*
X014083Y014047D01*
X014007Y014047D01*
X013930Y013970D01*
X013930Y013893D01*
X013930Y013970D02*
X013853Y014047D01*
X013776Y014047D01*
X013700Y013970D01*
X013700Y013816D01*
X013776Y013740D01*
X013776Y013586D02*
X013700Y013509D01*
X013700Y013356D01*
X013776Y013279D01*
X014083Y013279D01*
X014160Y013356D01*
X013714Y012345D02*
X013605Y012345D01*
X013497Y012237D01*
X013497Y012128D01*
X013714Y012128D02*
X013768Y012183D01*
X013877Y012183D01*
X013931Y012128D01*
X013931Y012020D01*
X013822Y011911D01*
X013714Y011911D01*
X013660Y011749D02*
X013443Y011532D01*
X013117Y011857D01*
X013768Y012183D02*
X013768Y012291D01*
X013714Y012345D01*
X012345Y012646D02*
X012345Y012755D01*
X012237Y012863D01*
X012128Y012863D01*
X012345Y012646D02*
X012291Y012592D01*
X011857Y012592D01*
X012074Y012375D01*
X011749Y012700D02*
X011532Y012917D01*
X011857Y013243D01*
X010660Y013356D02*
X010660Y013509D01*
X010583Y013586D01*
X010660Y013740D02*
X010353Y014047D01*
X010276Y014047D01*
X010200Y013970D01*
X010200Y013816D01*
X010276Y013740D01*
X010276Y013586D02*
X010200Y013509D01*
X010200Y013356D01*
X010276Y013279D01*
X010583Y013279D01*
X010660Y013356D01*
X010660Y013740D02*
X010660Y014047D01*
X007660Y014047D02*
X007660Y013740D01*
X007660Y013893D02*
X007200Y013893D01*
X007353Y013740D01*
X007276Y013586D02*
X007200Y013509D01*
X007200Y013356D01*
X007276Y013279D01*
X007583Y013279D01*
X007660Y013356D01*
X007660Y013509D01*
X007583Y013586D01*
X006551Y012291D02*
X006877Y011966D01*
X006985Y012074D02*
X006768Y011857D01*
X006660Y011749D02*
X006443Y011532D01*
X006117Y011857D01*
X006551Y012074D02*
X006551Y012291D01*
X001342Y011825D02*
X001035Y011825D01*
X000882Y011825D02*
X000575Y012285D01*
X000882Y012285D02*
X000575Y011825D01*
X001035Y012132D02*
X001189Y012285D01*
X001189Y011825D01*
D12*
X001090Y007983D02*
X001107Y007938D01*
X001128Y007894D01*
X001152Y007852D01*
X001179Y007812D01*
X001209Y007774D01*
X001242Y007738D01*
X001278Y007705D01*
X001316Y007675D01*
X001357Y007649D01*
X001399Y007625D01*
X001443Y007605D01*
X001489Y007588D01*
X001536Y007575D01*
X001583Y007566D01*
X001631Y007560D01*
X001680Y007558D01*
X001729Y007560D01*
X001777Y007566D01*
X001824Y007575D01*
X001871Y007588D01*
X001917Y007605D01*
X001961Y007625D01*
X002003Y007649D01*
X002044Y007675D01*
X002082Y007705D01*
X002118Y007738D01*
X002151Y007774D01*
X002181Y007812D01*
X002208Y007852D01*
X002232Y007894D01*
X002253Y007938D01*
X002270Y007983D01*
X002270Y008377D02*
X002253Y008422D01*
X002232Y008466D01*
X002208Y008508D01*
X002181Y008548D01*
X002151Y008586D01*
X002118Y008622D01*
X002082Y008655D01*
X002044Y008685D01*
X002003Y008711D01*
X001961Y008735D01*
X001917Y008755D01*
X001871Y008772D01*
X001824Y008785D01*
X001777Y008794D01*
X001729Y008800D01*
X001680Y008802D01*
X001631Y008800D01*
X001583Y008794D01*
X001536Y008785D01*
X001489Y008772D01*
X001443Y008755D01*
X001399Y008735D01*
X001357Y008711D01*
X001316Y008685D01*
X001278Y008655D01*
X001242Y008622D01*
X001209Y008586D01*
X001179Y008548D01*
X001152Y008508D01*
X001128Y008466D01*
X001107Y008422D01*
X001090Y008377D01*
X024090Y011877D02*
X024107Y011922D01*
X024128Y011966D01*
X024152Y012008D01*
X024179Y012048D01*
X024209Y012086D01*
X024242Y012122D01*
X024278Y012155D01*
X024316Y012185D01*
X024357Y012211D01*
X024399Y012235D01*
X024443Y012255D01*
X024489Y012272D01*
X024536Y012285D01*
X024583Y012294D01*
X024631Y012300D01*
X024680Y012302D01*
X024729Y012300D01*
X024777Y012294D01*
X024824Y012285D01*
X024871Y012272D01*
X024917Y012255D01*
X024961Y012235D01*
X025003Y012211D01*
X025044Y012185D01*
X025082Y012155D01*
X025118Y012122D01*
X025151Y012086D01*
X025181Y012048D01*
X025208Y012008D01*
X025232Y011966D01*
X025253Y011922D01*
X025270Y011877D01*
X025270Y011483D02*
X025253Y011438D01*
X025232Y011394D01*
X025208Y011352D01*
X025181Y011312D01*
X025151Y011274D01*
X025118Y011238D01*
X025082Y011205D01*
X025044Y011175D01*
X025003Y011149D01*
X024961Y011125D01*
X024917Y011105D01*
X024871Y011088D01*
X024824Y011075D01*
X024777Y011066D01*
X024729Y011060D01*
X024680Y011058D01*
X024631Y011060D01*
X024583Y011066D01*
X024536Y011075D01*
X024489Y011088D01*
X024443Y011105D01*
X024399Y011125D01*
X024357Y011149D01*
X024316Y011175D01*
X024278Y011205D01*
X024242Y011238D01*
X024209Y011274D01*
X024179Y011312D01*
X024152Y011352D01*
X024128Y011394D01*
X024107Y011438D01*
X024090Y011483D01*
X024090Y004483D02*
X024107Y004438D01*
X024128Y004394D01*
X024152Y004352D01*
X024179Y004312D01*
X024209Y004274D01*
X024242Y004238D01*
X024278Y004205D01*
X024316Y004175D01*
X024357Y004149D01*
X024399Y004125D01*
X024443Y004105D01*
X024489Y004088D01*
X024536Y004075D01*
X024583Y004066D01*
X024631Y004060D01*
X024680Y004058D01*
X024729Y004060D01*
X024777Y004066D01*
X024824Y004075D01*
X024871Y004088D01*
X024917Y004105D01*
X024961Y004125D01*
X025003Y004149D01*
X025044Y004175D01*
X025082Y004205D01*
X025118Y004238D01*
X025151Y004274D01*
X025181Y004312D01*
X025208Y004352D01*
X025232Y004394D01*
X025253Y004438D01*
X025270Y004483D01*
X025270Y004877D02*
X025253Y004922D01*
X025232Y004966D01*
X025208Y005008D01*
X025181Y005048D01*
X025151Y005086D01*
X025118Y005122D01*
X025082Y005155D01*
X025044Y005185D01*
X025003Y005211D01*
X024961Y005235D01*
X024917Y005255D01*
X024871Y005272D01*
X024824Y005285D01*
X024777Y005294D01*
X024729Y005300D01*
X024680Y005302D01*
X024631Y005300D01*
X024583Y005294D01*
X024536Y005285D01*
X024489Y005272D01*
X024443Y005255D01*
X024399Y005235D01*
X024357Y005211D01*
X024316Y005185D01*
X024278Y005155D01*
X024242Y005122D01*
X024209Y005086D01*
X024179Y005048D01*
X024152Y005008D01*
X024128Y004966D01*
X024107Y004922D01*
X024090Y004877D01*
D13*
X023430Y004680D02*
X023430Y007305D01*
X024055Y007805D01*
X025243Y007805D01*
X025930Y007305D01*
X025930Y002055D01*
X025243Y001555D01*
X024055Y001555D01*
X023430Y002055D01*
X023430Y004618D01*
X023424Y004680D02*
X023426Y004750D01*
X023432Y004821D01*
X023442Y004890D01*
X023455Y004959D01*
X023473Y005028D01*
X023494Y005095D01*
X023520Y005161D01*
X023548Y005225D01*
X023581Y005288D01*
X023617Y005348D01*
X023656Y005407D01*
X023698Y005463D01*
X023743Y005517D01*
X023792Y005568D01*
X023843Y005617D01*
X023897Y005662D01*
X023953Y005704D01*
X024012Y005743D01*
X024072Y005779D01*
X024135Y005812D01*
X024199Y005840D01*
X024265Y005866D01*
X024332Y005887D01*
X024401Y005905D01*
X024470Y005918D01*
X024539Y005928D01*
X024610Y005934D01*
X024680Y005936D01*
X024750Y005934D01*
X024821Y005928D01*
X024890Y005918D01*
X024959Y005905D01*
X025028Y005887D01*
X025095Y005866D01*
X025161Y005840D01*
X025225Y005812D01*
X025288Y005779D01*
X025348Y005743D01*
X025407Y005704D01*
X025463Y005662D01*
X025517Y005617D01*
X025568Y005568D01*
X025617Y005517D01*
X025662Y005463D01*
X025704Y005407D01*
X025743Y005348D01*
X025779Y005288D01*
X025812Y005225D01*
X025840Y005161D01*
X025866Y005095D01*
X025887Y005028D01*
X025905Y004959D01*
X025918Y004890D01*
X025928Y004821D01*
X025934Y004750D01*
X025936Y004680D01*
X025934Y004610D01*
X025928Y004539D01*
X025918Y004470D01*
X025905Y004401D01*
X025887Y004332D01*
X025866Y004265D01*
X025840Y004199D01*
X025812Y004135D01*
X025779Y004072D01*
X025743Y004012D01*
X025704Y003953D01*
X025662Y003897D01*
X025617Y003843D01*
X025568Y003792D01*
X025517Y003743D01*
X025463Y003698D01*
X025407Y003656D01*
X025348Y003617D01*
X025288Y003581D01*
X025225Y003548D01*
X025161Y003520D01*
X025095Y003494D01*
X025028Y003473D01*
X024959Y003455D01*
X024890Y003442D01*
X024821Y003432D01*
X024750Y003426D01*
X024680Y003424D01*
X024610Y003426D01*
X024539Y003432D01*
X024470Y003442D01*
X024401Y003455D01*
X024332Y003473D01*
X024265Y003494D01*
X024199Y003520D01*
X024135Y003548D01*
X024072Y003581D01*
X024012Y003617D01*
X023953Y003656D01*
X023897Y003698D01*
X023843Y003743D01*
X023792Y003792D01*
X023743Y003843D01*
X023698Y003897D01*
X023656Y003953D01*
X023617Y004012D01*
X023581Y004072D01*
X023548Y004135D01*
X023520Y004199D01*
X023494Y004265D01*
X023473Y004332D01*
X023455Y004401D01*
X023442Y004470D01*
X023432Y004539D01*
X023426Y004610D01*
X023424Y004680D01*
X024118Y008555D02*
X025305Y008555D01*
X025930Y009055D01*
X025930Y011680D01*
X025930Y011743D02*
X025930Y014305D01*
X025305Y014805D01*
X024118Y014805D01*
X023430Y014305D01*
X023430Y009055D01*
X024118Y008555D01*
X023424Y011680D02*
X023426Y011750D01*
X023432Y011821D01*
X023442Y011890D01*
X023455Y011959D01*
X023473Y012028D01*
X023494Y012095D01*
X023520Y012161D01*
X023548Y012225D01*
X023581Y012288D01*
X023617Y012348D01*
X023656Y012407D01*
X023698Y012463D01*
X023743Y012517D01*
X023792Y012568D01*
X023843Y012617D01*
X023897Y012662D01*
X023953Y012704D01*
X024012Y012743D01*
X024072Y012779D01*
X024135Y012812D01*
X024199Y012840D01*
X024265Y012866D01*
X024332Y012887D01*
X024401Y012905D01*
X024470Y012918D01*
X024539Y012928D01*
X024610Y012934D01*
X024680Y012936D01*
X024750Y012934D01*
X024821Y012928D01*
X024890Y012918D01*
X024959Y012905D01*
X025028Y012887D01*
X025095Y012866D01*
X025161Y012840D01*
X025225Y012812D01*
X025288Y012779D01*
X025348Y012743D01*
X025407Y012704D01*
X025463Y012662D01*
X025517Y012617D01*
X025568Y012568D01*
X025617Y012517D01*
X025662Y012463D01*
X025704Y012407D01*
X025743Y012348D01*
X025779Y012288D01*
X025812Y012225D01*
X025840Y012161D01*
X025866Y012095D01*
X025887Y012028D01*
X025905Y011959D01*
X025918Y011890D01*
X025928Y011821D01*
X025934Y011750D01*
X025936Y011680D01*
X025934Y011610D01*
X025928Y011539D01*
X025918Y011470D01*
X025905Y011401D01*
X025887Y011332D01*
X025866Y011265D01*
X025840Y011199D01*
X025812Y011135D01*
X025779Y011072D01*
X025743Y011012D01*
X025704Y010953D01*
X025662Y010897D01*
X025617Y010843D01*
X025568Y010792D01*
X025517Y010743D01*
X025463Y010698D01*
X025407Y010656D01*
X025348Y010617D01*
X025288Y010581D01*
X025225Y010548D01*
X025161Y010520D01*
X025095Y010494D01*
X025028Y010473D01*
X024959Y010455D01*
X024890Y010442D01*
X024821Y010432D01*
X024750Y010426D01*
X024680Y010424D01*
X024610Y010426D01*
X024539Y010432D01*
X024470Y010442D01*
X024401Y010455D01*
X024332Y010473D01*
X024265Y010494D01*
X024199Y010520D01*
X024135Y010548D01*
X024072Y010581D01*
X024012Y010617D01*
X023953Y010656D01*
X023897Y010698D01*
X023843Y010743D01*
X023792Y010792D01*
X023743Y010843D01*
X023698Y010897D01*
X023656Y010953D01*
X023617Y011012D01*
X023581Y011072D01*
X023548Y011135D01*
X023520Y011199D01*
X023494Y011265D01*
X023473Y011332D01*
X023455Y011401D01*
X023442Y011470D01*
X023432Y011539D01*
X023426Y011610D01*
X023424Y011680D01*
X002930Y010805D02*
X002930Y005555D01*
X002243Y005055D01*
X001055Y005055D01*
X000430Y005555D01*
X000430Y008118D01*
X000430Y008180D02*
X000430Y010805D01*
X001055Y011305D01*
X002243Y011305D01*
X002930Y010805D01*
X000424Y008180D02*
X000426Y008250D01*
X000432Y008321D01*
X000442Y008390D01*
X000455Y008459D01*
X000473Y008528D01*
X000494Y008595D01*
X000520Y008661D01*
X000548Y008725D01*
X000581Y008788D01*
X000617Y008848D01*
X000656Y008907D01*
X000698Y008963D01*
X000743Y009017D01*
X000792Y009068D01*
X000843Y009117D01*
X000897Y009162D01*
X000953Y009204D01*
X001012Y009243D01*
X001072Y009279D01*
X001135Y009312D01*
X001199Y009340D01*
X001265Y009366D01*
X001332Y009387D01*
X001401Y009405D01*
X001470Y009418D01*
X001539Y009428D01*
X001610Y009434D01*
X001680Y009436D01*
X001750Y009434D01*
X001821Y009428D01*
X001890Y009418D01*
X001959Y009405D01*
X002028Y009387D01*
X002095Y009366D01*
X002161Y009340D01*
X002225Y009312D01*
X002288Y009279D01*
X002348Y009243D01*
X002407Y009204D01*
X002463Y009162D01*
X002517Y009117D01*
X002568Y009068D01*
X002617Y009017D01*
X002662Y008963D01*
X002704Y008907D01*
X002743Y008848D01*
X002779Y008788D01*
X002812Y008725D01*
X002840Y008661D01*
X002866Y008595D01*
X002887Y008528D01*
X002905Y008459D01*
X002918Y008390D01*
X002928Y008321D01*
X002934Y008250D01*
X002936Y008180D01*
X002934Y008110D01*
X002928Y008039D01*
X002918Y007970D01*
X002905Y007901D01*
X002887Y007832D01*
X002866Y007765D01*
X002840Y007699D01*
X002812Y007635D01*
X002779Y007572D01*
X002743Y007512D01*
X002704Y007453D01*
X002662Y007397D01*
X002617Y007343D01*
X002568Y007292D01*
X002517Y007243D01*
X002463Y007198D01*
X002407Y007156D01*
X002348Y007117D01*
X002288Y007081D01*
X002225Y007048D01*
X002161Y007020D01*
X002095Y006994D01*
X002028Y006973D01*
X001959Y006955D01*
X001890Y006942D01*
X001821Y006932D01*
X001750Y006926D01*
X001680Y006924D01*
X001610Y006926D01*
X001539Y006932D01*
X001470Y006942D01*
X001401Y006955D01*
X001332Y006973D01*
X001265Y006994D01*
X001199Y007020D01*
X001135Y007048D01*
X001072Y007081D01*
X001012Y007117D01*
X000953Y007156D01*
X000897Y007198D01*
X000843Y007243D01*
X000792Y007292D01*
X000743Y007343D01*
X000698Y007397D01*
X000656Y007453D01*
X000617Y007512D01*
X000581Y007572D01*
X000548Y007635D01*
X000520Y007699D01*
X000494Y007765D01*
X000473Y007832D01*
X000455Y007901D01*
X000442Y007970D01*
X000432Y008039D01*
X000426Y008110D01*
X000424Y008180D01*
M02*
