G75*
%MOIN*%
%OFA0B0*%
%FSLAX24Y24*%
%IPPOS*%
%LPD*%
%AMOC8*
5,1,8,0,0,1.08239X$1,22.5*
%
%ADD10C,0.1000*%
%ADD11C,0.1500*%
%ADD12C,0.0660*%
%ADD13C,0.0160*%
D10*
X001680Y008180D03*
X024680Y004680D03*
X024680Y011680D03*
D11*
X024680Y009243D03*
X024680Y007118D03*
X024680Y002243D03*
X024680Y014118D03*
X001680Y010618D03*
X001680Y005743D03*
D12*
X004680Y006180D03*
X006680Y007180D03*
X009680Y006180D03*
X013180Y006180D03*
X016680Y006180D03*
X020680Y005680D03*
X022680Y005680D03*
X022680Y003680D03*
X018180Y001680D03*
X014680Y001680D03*
X014680Y003180D03*
X011180Y001680D03*
X007680Y001680D03*
X007680Y003180D03*
X003680Y002180D03*
X009680Y008680D03*
X006680Y009180D03*
X004180Y009680D03*
X005180Y013180D03*
X003680Y014180D03*
X008180Y014680D03*
X011180Y014680D03*
X014680Y014680D03*
X018180Y014680D03*
X021180Y014680D03*
X021180Y012680D03*
X022680Y012680D03*
X022680Y010680D03*
X020680Y010680D03*
X019180Y009180D03*
X016680Y008680D03*
X013180Y009680D03*
X009680Y011180D03*
X016680Y011180D03*
X022680Y008180D03*
D13*
X000760Y005602D02*
X000760Y000760D01*
X025470Y000760D01*
X025470Y001752D01*
X025440Y001703D01*
X025375Y001622D01*
X025301Y001548D01*
X025219Y001483D01*
X025131Y001427D01*
X025036Y001382D01*
X024938Y001347D01*
X024836Y001324D01*
X024760Y001316D01*
X024760Y002162D01*
X024600Y002162D01*
X024600Y001316D01*
X024524Y001324D01*
X024422Y001347D01*
X024324Y001382D01*
X024229Y001427D01*
X024141Y001483D01*
X024059Y001548D01*
X023985Y001622D01*
X023920Y001703D01*
X023865Y001792D01*
X023819Y001886D01*
X023785Y001985D01*
X023762Y002086D01*
X023753Y002163D01*
X024600Y002163D01*
X024600Y002322D01*
X023753Y002322D01*
X023762Y002399D01*
X023785Y002500D01*
X023819Y002599D01*
X023865Y002693D01*
X023920Y002782D01*
X023985Y002863D01*
X024059Y002937D01*
X024141Y003002D01*
X024229Y003058D01*
X024324Y003103D01*
X024422Y003138D01*
X024524Y003161D01*
X024600Y003169D01*
X024600Y002323D01*
X024760Y002323D01*
X024760Y003169D01*
X024836Y003161D01*
X024938Y003138D01*
X025036Y003103D01*
X025131Y003058D01*
X025219Y003002D01*
X025301Y002937D01*
X025375Y002863D01*
X025440Y002782D01*
X025470Y002733D01*
X025470Y003943D01*
X025343Y003816D01*
X025097Y003674D01*
X024822Y003600D01*
X024538Y003600D01*
X024263Y003674D01*
X024017Y003816D01*
X023816Y004017D01*
X023674Y004263D01*
X023600Y004538D01*
X023600Y004822D01*
X023674Y005097D01*
X023816Y005343D01*
X024017Y005544D01*
X024263Y005686D01*
X024538Y005760D01*
X024822Y005760D01*
X025097Y005686D01*
X025343Y005544D01*
X025470Y005417D01*
X025470Y006627D01*
X025440Y006578D01*
X025375Y006497D01*
X025301Y006423D01*
X025219Y006358D01*
X025131Y006302D01*
X025036Y006257D01*
X024938Y006222D01*
X024836Y006199D01*
X024760Y006191D01*
X024760Y007037D01*
X024600Y007037D01*
X024600Y006191D01*
X024524Y006199D01*
X024422Y006222D01*
X024324Y006257D01*
X024229Y006302D01*
X024141Y006358D01*
X024059Y006423D01*
X023985Y006497D01*
X023920Y006578D01*
X023865Y006667D01*
X023819Y006761D01*
X023785Y006860D01*
X023762Y006961D01*
X023753Y007038D01*
X024600Y007038D01*
X024600Y007197D01*
X023753Y007197D01*
X023762Y007274D01*
X023785Y007375D01*
X023819Y007474D01*
X023865Y007568D01*
X023920Y007657D01*
X023985Y007738D01*
X024059Y007812D01*
X024141Y007877D01*
X024229Y007933D01*
X024324Y007978D01*
X024422Y008013D01*
X024524Y008036D01*
X024600Y008044D01*
X024600Y007198D01*
X024760Y007198D01*
X024760Y008044D01*
X024836Y008036D01*
X024938Y008013D01*
X025036Y007978D01*
X025131Y007933D01*
X025219Y007877D01*
X025301Y007812D01*
X025375Y007738D01*
X025440Y007657D01*
X025470Y007608D01*
X025470Y008752D01*
X025440Y008703D01*
X025375Y008622D01*
X025301Y008548D01*
X025219Y008483D01*
X025131Y008427D01*
X025036Y008382D01*
X024938Y008347D01*
X024836Y008324D01*
X024760Y008316D01*
X024760Y009162D01*
X024600Y009162D01*
X024600Y008316D01*
X024524Y008324D01*
X024422Y008347D01*
X024324Y008382D01*
X024229Y008427D01*
X024141Y008483D01*
X024059Y008548D01*
X023985Y008622D01*
X023920Y008703D01*
X023865Y008792D01*
X023819Y008886D01*
X023785Y008985D01*
X023762Y009086D01*
X023753Y009163D01*
X024600Y009163D01*
X024600Y009322D01*
X023753Y009322D01*
X023762Y009399D01*
X023785Y009500D01*
X023819Y009599D01*
X023865Y009693D01*
X023920Y009782D01*
X023985Y009863D01*
X024059Y009937D01*
X024141Y010002D01*
X024229Y010058D01*
X024324Y010103D01*
X024422Y010138D01*
X024524Y010161D01*
X024600Y010169D01*
X024600Y009323D01*
X024760Y009323D01*
X024760Y010169D01*
X024836Y010161D01*
X024938Y010138D01*
X025036Y010103D01*
X025131Y010058D01*
X025219Y010002D01*
X025301Y009937D01*
X025375Y009863D01*
X025440Y009782D01*
X025470Y009733D01*
X025470Y010943D01*
X025343Y010816D01*
X025097Y010674D01*
X024822Y010600D01*
X024538Y010600D01*
X024263Y010674D01*
X024017Y010816D01*
X023816Y011017D01*
X023674Y011263D01*
X023600Y011538D01*
X023600Y011822D01*
X023674Y012097D01*
X023816Y012343D01*
X024017Y012544D01*
X024263Y012686D01*
X024538Y012760D01*
X024822Y012760D01*
X025097Y012686D01*
X025343Y012544D01*
X025470Y012417D01*
X025470Y013627D01*
X025440Y013578D01*
X025375Y013497D01*
X025301Y013423D01*
X025219Y013358D01*
X025131Y013302D01*
X025036Y013257D01*
X024938Y013222D01*
X024836Y013199D01*
X024760Y013191D01*
X024760Y014037D01*
X024600Y014037D01*
X024600Y013191D01*
X024524Y013199D01*
X024422Y013222D01*
X024324Y013257D01*
X024229Y013302D01*
X024141Y013358D01*
X024059Y013423D01*
X023985Y013497D01*
X023920Y013578D01*
X023865Y013667D01*
X023819Y013761D01*
X023785Y013860D01*
X000760Y013860D01*
X000760Y013702D02*
X023848Y013702D01*
X023785Y013860D02*
X023762Y013961D01*
X023753Y014038D01*
X024600Y014038D01*
X024600Y014197D01*
X023753Y014197D01*
X023762Y014274D01*
X023785Y014375D01*
X023819Y014474D01*
X023865Y014568D01*
X023920Y014657D01*
X023985Y014738D01*
X024059Y014812D01*
X024141Y014877D01*
X024229Y014933D01*
X024324Y014978D01*
X024422Y015013D01*
X024524Y015036D01*
X024600Y015044D01*
X024600Y014198D01*
X024760Y014198D01*
X024760Y015044D01*
X024836Y015036D01*
X024938Y015013D01*
X025036Y014978D01*
X025131Y014933D01*
X025219Y014877D01*
X025301Y014812D01*
X025375Y014738D01*
X025440Y014657D01*
X025470Y014608D01*
X025470Y015596D01*
X000760Y015596D01*
X000760Y010758D01*
X000762Y010774D01*
X000785Y010875D01*
X000819Y010974D01*
X000865Y011068D01*
X000920Y011157D01*
X000985Y011238D01*
X001059Y011312D01*
X001141Y011377D01*
X001229Y011433D01*
X001324Y011478D01*
X001422Y011513D01*
X001524Y011536D01*
X001600Y011544D01*
X001600Y010698D01*
X001760Y010698D01*
X001760Y011544D01*
X001836Y011536D01*
X001938Y011513D01*
X002036Y011478D01*
X002131Y011433D01*
X002219Y011377D01*
X002301Y011312D01*
X002375Y011238D01*
X002440Y011157D01*
X002495Y011068D01*
X002541Y010974D01*
X002575Y010875D01*
X002598Y010774D01*
X002607Y010697D01*
X001760Y010697D01*
X001760Y010538D01*
X002607Y010538D01*
X002598Y010461D01*
X002575Y010360D01*
X002541Y010261D01*
X002495Y010167D01*
X002440Y010078D01*
X002375Y009997D01*
X002301Y009923D01*
X002219Y009858D01*
X002131Y009802D01*
X002036Y009757D01*
X001938Y009722D01*
X001836Y009699D01*
X001760Y009691D01*
X001760Y010537D01*
X001600Y010537D01*
X001600Y009691D01*
X001524Y009699D01*
X001422Y009722D01*
X001324Y009757D01*
X001229Y009802D01*
X001141Y009858D01*
X001059Y009923D01*
X000985Y009997D01*
X000920Y010078D01*
X000865Y010167D01*
X000819Y010261D01*
X000785Y010360D01*
X000762Y010461D01*
X000760Y010477D01*
X000760Y008747D01*
X000816Y008843D01*
X001017Y009044D01*
X001263Y009186D01*
X001538Y009260D01*
X001822Y009260D01*
X002097Y009186D01*
X002343Y009044D01*
X002544Y008843D01*
X002686Y008597D01*
X002760Y008322D01*
X002760Y008038D01*
X002686Y007763D01*
X002544Y007517D01*
X002343Y007316D01*
X002097Y007174D01*
X001822Y007100D01*
X001538Y007100D01*
X001263Y007174D01*
X001017Y007316D01*
X000816Y007517D01*
X000760Y007613D01*
X000760Y005883D01*
X000762Y005899D01*
X000785Y006000D01*
X000819Y006099D01*
X000865Y006193D01*
X000920Y006282D01*
X000985Y006363D01*
X001059Y006437D01*
X001141Y006502D01*
X001229Y006558D01*
X001324Y006603D01*
X001422Y006638D01*
X001524Y006661D01*
X001600Y006669D01*
X001600Y005823D01*
X001760Y005823D01*
X001760Y006669D01*
X001836Y006661D01*
X001938Y006638D01*
X002036Y006603D01*
X002131Y006558D01*
X002219Y006502D01*
X002301Y006437D01*
X002375Y006363D01*
X002440Y006282D01*
X002495Y006193D01*
X002541Y006099D01*
X002575Y006000D01*
X002598Y005899D01*
X002607Y005822D01*
X001760Y005822D01*
X001760Y005663D01*
X002607Y005663D01*
X002598Y005586D01*
X002575Y005485D01*
X002541Y005386D01*
X002495Y005292D01*
X002440Y005203D01*
X002375Y005122D01*
X002301Y005048D01*
X002219Y004983D01*
X002131Y004927D01*
X002036Y004882D01*
X001938Y004847D01*
X001836Y004824D01*
X001760Y004816D01*
X001760Y005662D01*
X001600Y005662D01*
X001600Y004816D01*
X001524Y004824D01*
X001422Y004847D01*
X001324Y004882D01*
X001229Y004927D01*
X001141Y004983D01*
X001059Y005048D01*
X000985Y005122D01*
X000920Y005203D01*
X000865Y005292D01*
X000819Y005386D01*
X000785Y005485D01*
X000762Y005586D01*
X000760Y005602D01*
X000760Y005460D02*
X000794Y005460D01*
X000760Y005301D02*
X000860Y005301D01*
X000760Y005143D02*
X000969Y005143D01*
X001140Y004984D02*
X000760Y004984D01*
X000760Y004826D02*
X001518Y004826D01*
X001600Y004826D02*
X001760Y004826D01*
X001842Y004826D02*
X023601Y004826D01*
X023600Y004667D02*
X000760Y004667D01*
X000760Y004509D02*
X023608Y004509D01*
X023650Y004350D02*
X000760Y004350D01*
X000760Y004192D02*
X023715Y004192D01*
X023806Y004033D02*
X000760Y004033D01*
X000760Y003875D02*
X023958Y003875D01*
X024190Y003716D02*
X000760Y003716D01*
X000760Y003558D02*
X025470Y003558D01*
X025470Y003716D02*
X025170Y003716D01*
X025402Y003875D02*
X025470Y003875D01*
X025470Y003399D02*
X000760Y003399D01*
X000760Y003241D02*
X025470Y003241D01*
X025470Y003082D02*
X025080Y003082D01*
X025314Y002924D02*
X025470Y002924D01*
X025470Y002765D02*
X025450Y002765D01*
X024760Y002765D02*
X024600Y002765D01*
X024600Y002607D02*
X024760Y002607D01*
X024760Y002448D02*
X024600Y002448D01*
X024600Y002290D02*
X000760Y002290D01*
X000760Y002448D02*
X023773Y002448D01*
X023823Y002607D02*
X000760Y002607D01*
X000760Y002765D02*
X023910Y002765D01*
X024046Y002924D02*
X000760Y002924D01*
X000760Y003082D02*
X024280Y003082D01*
X024600Y003082D02*
X024760Y003082D01*
X024760Y002924D02*
X024600Y002924D01*
X024600Y002131D02*
X024760Y002131D01*
X024760Y001973D02*
X024600Y001973D01*
X024600Y001814D02*
X024760Y001814D01*
X024760Y001656D02*
X024600Y001656D01*
X024600Y001497D02*
X024760Y001497D01*
X024760Y001339D02*
X024600Y001339D01*
X024461Y001339D02*
X000760Y001339D01*
X000760Y001497D02*
X024123Y001497D01*
X023959Y001656D02*
X000760Y001656D01*
X000760Y001814D02*
X023854Y001814D01*
X023789Y001973D02*
X000760Y001973D01*
X000760Y002131D02*
X023757Y002131D01*
X024899Y001339D02*
X025470Y001339D01*
X025470Y001497D02*
X025237Y001497D01*
X025401Y001656D02*
X025470Y001656D01*
X025470Y001180D02*
X000760Y001180D01*
X000760Y001021D02*
X025470Y001021D01*
X025470Y000863D02*
X000760Y000863D01*
X001600Y004984D02*
X001760Y004984D01*
X001760Y005143D02*
X001600Y005143D01*
X001600Y005301D02*
X001760Y005301D01*
X001760Y005460D02*
X001600Y005460D01*
X001600Y005618D02*
X001760Y005618D01*
X001760Y005777D02*
X025470Y005777D01*
X025470Y005935D02*
X002590Y005935D01*
X002542Y006094D02*
X025470Y006094D01*
X025470Y006252D02*
X025022Y006252D01*
X024760Y006252D02*
X024600Y006252D01*
X024600Y006411D02*
X024760Y006411D01*
X024760Y006569D02*
X024600Y006569D01*
X024600Y006728D02*
X024760Y006728D01*
X024760Y006886D02*
X024600Y006886D01*
X024600Y007045D02*
X000760Y007045D01*
X000760Y007203D02*
X001212Y007203D01*
X000971Y007362D02*
X000760Y007362D01*
X000760Y007520D02*
X000814Y007520D01*
X000760Y006886D02*
X023779Y006886D01*
X023836Y006728D02*
X000760Y006728D01*
X000760Y006569D02*
X001253Y006569D01*
X001033Y006411D02*
X000760Y006411D01*
X000760Y006252D02*
X000902Y006252D01*
X000818Y006094D02*
X000760Y006094D01*
X000760Y005935D02*
X000770Y005935D01*
X001600Y005935D02*
X001760Y005935D01*
X001760Y006094D02*
X001600Y006094D01*
X001600Y006252D02*
X001760Y006252D01*
X001760Y006411D02*
X001600Y006411D01*
X001600Y006569D02*
X001760Y006569D01*
X002107Y006569D02*
X023928Y006569D01*
X024075Y006411D02*
X002327Y006411D01*
X002458Y006252D02*
X024338Y006252D01*
X024145Y005618D02*
X002602Y005618D01*
X002566Y005460D02*
X023932Y005460D01*
X023791Y005301D02*
X002500Y005301D01*
X002391Y005143D02*
X023700Y005143D01*
X023643Y004984D02*
X002220Y004984D01*
X002148Y007203D02*
X023754Y007203D01*
X023782Y007362D02*
X002389Y007362D01*
X002546Y007520D02*
X023842Y007520D01*
X023938Y007679D02*
X002638Y007679D01*
X002706Y007837D02*
X024091Y007837D01*
X024373Y007996D02*
X002749Y007996D01*
X002760Y008154D02*
X025470Y008154D01*
X025470Y007996D02*
X024987Y007996D01*
X024760Y007996D02*
X024600Y007996D01*
X024600Y007837D02*
X024760Y007837D01*
X024760Y007679D02*
X024600Y007679D01*
X024600Y007520D02*
X024760Y007520D01*
X024760Y007362D02*
X024600Y007362D01*
X024600Y007203D02*
X024760Y007203D01*
X025422Y007679D02*
X025470Y007679D01*
X025470Y007837D02*
X025269Y007837D01*
X025470Y008313D02*
X002760Y008313D01*
X002720Y008471D02*
X024160Y008471D01*
X023979Y008630D02*
X002668Y008630D01*
X002576Y008788D02*
X023867Y008788D01*
X023798Y008947D02*
X002441Y008947D01*
X002238Y009105D02*
X023760Y009105D01*
X023767Y009422D02*
X000760Y009422D01*
X000760Y009264D02*
X024600Y009264D01*
X024600Y009422D02*
X024760Y009422D01*
X024760Y009581D02*
X024600Y009581D01*
X024600Y009739D02*
X024760Y009739D01*
X024760Y009898D02*
X024600Y009898D01*
X024600Y010056D02*
X024760Y010056D01*
X025133Y010056D02*
X025470Y010056D01*
X025470Y009898D02*
X025340Y009898D01*
X025466Y009739D02*
X025470Y009739D01*
X025470Y010215D02*
X002518Y010215D01*
X002578Y010373D02*
X025470Y010373D01*
X025470Y010532D02*
X002606Y010532D01*
X002581Y010849D02*
X023984Y010849D01*
X023826Y011007D02*
X002525Y011007D01*
X002432Y011166D02*
X023730Y011166D01*
X023657Y011324D02*
X002286Y011324D01*
X002024Y011483D02*
X023615Y011483D01*
X023600Y011641D02*
X000760Y011641D01*
X000760Y011483D02*
X001336Y011483D01*
X001600Y011483D02*
X001760Y011483D01*
X001760Y011324D02*
X001600Y011324D01*
X001600Y011166D02*
X001760Y011166D01*
X001760Y011007D02*
X001600Y011007D01*
X001600Y010849D02*
X001760Y010849D01*
X001760Y010690D02*
X024235Y010690D01*
X025125Y010690D02*
X025470Y010690D01*
X025470Y010849D02*
X025376Y010849D01*
X024227Y010056D02*
X002422Y010056D01*
X002269Y009898D02*
X024020Y009898D01*
X023894Y009739D02*
X001985Y009739D01*
X001760Y009739D02*
X001600Y009739D01*
X001600Y009898D02*
X001760Y009898D01*
X001760Y010056D02*
X001600Y010056D01*
X001600Y010215D02*
X001760Y010215D01*
X001760Y010373D02*
X001600Y010373D01*
X001600Y010532D02*
X001760Y010532D01*
X000938Y010056D02*
X000760Y010056D01*
X000760Y009898D02*
X001091Y009898D01*
X001375Y009739D02*
X000760Y009739D01*
X000760Y009581D02*
X023813Y009581D01*
X024600Y009105D02*
X024760Y009105D01*
X024760Y008947D02*
X024600Y008947D01*
X024600Y008788D02*
X024760Y008788D01*
X024760Y008630D02*
X024600Y008630D01*
X024600Y008471D02*
X024760Y008471D01*
X025200Y008471D02*
X025470Y008471D01*
X025470Y008630D02*
X025381Y008630D01*
X025432Y006569D02*
X025470Y006569D01*
X025470Y006411D02*
X025285Y006411D01*
X025215Y005618D02*
X025470Y005618D01*
X025470Y005460D02*
X025428Y005460D01*
X023600Y011800D02*
X000760Y011800D01*
X000760Y011958D02*
X023636Y011958D01*
X023685Y012117D02*
X000760Y012117D01*
X000760Y012275D02*
X023776Y012275D01*
X023906Y012434D02*
X000760Y012434D01*
X000760Y012592D02*
X024100Y012592D01*
X024502Y012751D02*
X000760Y012751D01*
X000760Y012909D02*
X025470Y012909D01*
X025470Y012751D02*
X024858Y012751D01*
X025260Y012592D02*
X025470Y012592D01*
X025454Y012434D02*
X025470Y012434D01*
X025470Y013068D02*
X000760Y013068D01*
X000760Y013226D02*
X024412Y013226D01*
X024600Y013226D02*
X024760Y013226D01*
X024760Y013385D02*
X024600Y013385D01*
X024600Y013543D02*
X024760Y013543D01*
X024760Y013702D02*
X024600Y013702D01*
X024600Y013860D02*
X024760Y013860D01*
X024760Y014019D02*
X024600Y014019D01*
X024600Y014177D02*
X000760Y014177D01*
X000760Y014019D02*
X023755Y014019D01*
X023776Y014336D02*
X000760Y014336D01*
X000760Y014494D02*
X023829Y014494D01*
X023918Y014653D02*
X000760Y014653D01*
X000760Y014811D02*
X024058Y014811D01*
X024306Y014970D02*
X000760Y014970D01*
X000760Y015128D02*
X025470Y015128D01*
X025470Y014970D02*
X025054Y014970D01*
X024760Y014970D02*
X024600Y014970D01*
X024600Y014811D02*
X024760Y014811D01*
X024760Y014653D02*
X024600Y014653D01*
X024600Y014494D02*
X024760Y014494D01*
X024760Y014336D02*
X024600Y014336D01*
X025302Y014811D02*
X025470Y014811D01*
X025470Y014653D02*
X025442Y014653D01*
X025470Y015287D02*
X000760Y015287D01*
X000760Y015445D02*
X025470Y015445D01*
X025411Y013543D02*
X025470Y013543D01*
X025470Y013385D02*
X025252Y013385D01*
X025470Y013226D02*
X024948Y013226D01*
X024108Y013385D02*
X000760Y013385D01*
X000760Y013543D02*
X023949Y013543D01*
X001074Y011324D02*
X000760Y011324D01*
X000760Y011166D02*
X000928Y011166D01*
X000835Y011007D02*
X000760Y011007D01*
X000760Y010849D02*
X000779Y010849D01*
X000760Y010373D02*
X000782Y010373D01*
X000760Y010215D02*
X000842Y010215D01*
X000760Y009105D02*
X001122Y009105D01*
X000919Y008947D02*
X000760Y008947D01*
X000760Y008788D02*
X000784Y008788D01*
M02*
